<svg version="1.1" id="Layer_1" xmlns="http://www.w3.org/2000/svg" xmlns:xlink="http://www.w3.org/1999/xlink" x="0px" y="0px" viewBox="0 0 335 34.4" style="enable-background:new 0 0 335 34.4;" xml:space="preserve">
 <g>
  <path d="M0.3,33.6l29.2-18.2h15.2c0.5,0,0.9,0.4,0.9,0.9c0,0.4-0.2,0.6-0.4,0.7l-14.4,8.6c-0.9,0.6-1.3,1.7-1.3,2.5l0,5.4h18.3V2
		c0-0.6-0.5-1.1-1.2-1.1H29.2L0,19v14.6H0.3z">
  </path>
  <path d="M240,33.6h26.3v-7.1h-18v-5.9h14.5v-7.1h-14.5V8h18V0.9H240V33.6z">
  </path>
  <path d="M74.8,0.9L62.2,33.6h8.6l2.2-6.1h14l2.1,6.1H98L85.4,0.9H74.8z M75.5,20.5l4.6-12.8l4.5,12.8H75.5z">
  </path>
  <path d="M133.8,8h10.5v25.6h8.3V8h10.5V0.9h-29.4V8z">
  </path>
  <path d="M121.7,21c0,4.2-2.6,6-7.1,6c-4.3,0-7.1-1.8-7.1-6V0.8h-8.3v21.2c0,9.4,8.4,12.4,15.5,12.4c7,0,15.4-2.9,15.4-12.4V0.8
		h-8.3L121.7,21L121.7,21z">
  </path>
  <path d="M335,0.9h-9.9l-11.9,13.3V0.9h-8.3l0,32.7h8.3V21.2l11.3,12.4H335l-15.2-16.1L335,0.9z">
  </path>
  <path d="M220.4,0.9h-15.3v32.7h15.3c11.7,0,14.9-4.4,14.9-16.6C235.3,5.5,232.2,0.9,220.4,0.9z M220,26.5h-6.6V8h6.6
		c5.2,0,6.8,1.4,6.8,9C226.8,23.9,225.1,26.5,220,26.5z">
  </path>
  <path d="M291.5,14.3l-7.6-0.9c-4.4-0.5-5.6-1.6-5.6-3.1c0-1.7,2.3-3.2,6.7-3.2c4.3,0,6.5,1.6,6.9,4h8.2C299.7,4.3,293.9,0,285.5,0
		c-10,0-15.1,4-15.1,11.1c0,5.7,3.4,8.5,10.3,9.2l7.7,0.8c2.9,0.3,4.3,1.5,4.3,2.9c0,1.7-2,3.2-6.7,3.2c-5.5,0-7.7-1.4-8-4.2h-8
		c0.4,7.5,5.3,11.4,15.8,11.4c9.6,0,14.9-4.2,14.9-10.5C300.6,18.3,297.4,15,291.5,14.3z">
  </path>
  <path d="M182.5,0c-11.9,0-18,7.3-18,17.1c0,9.9,6.2,17.2,18,17.2c11.9,0,18.1-7.3,18.1-17.2C200.6,7.3,194.4,0,182.5,0z M182.5,27
		c-6.2,0-9.5-3.8-9.5-9.9c0-6,3.4-9.8,9.5-9.8c6.2,0,9.5,3.8,9.5,9.8C192.1,23.3,188.7,27,182.5,27z">
  </path>
 </g>
</svg>