<svg version="1.1" id="Layer_1" xmlns:x="ns_extend;" xmlns:i="ns_ai;" xmlns:graph="ns_graphs;" xmlns="http://www.w3.org/2000/svg" xmlns:xlink="http://www.w3.org/1999/xlink" x="0px" y="0px" viewBox="0 0 451.7 90.7" style="enable-background:new 0 0 451.7 90.7;" xml:space="preserve">
 <style type="text/css">
  .st0{fill:#FF6900;}
 </style>
 <metadata>
  <sfw xmlns="ns_sfw;">
   <slices>
   </slices>
   <sliceSourceBounds bottomLeftOrigin="true" height="90.7" width="451.7" x="0" y="9.3">
   </sliceSourceBounds>
  </sfw>
 </metadata>
 <g>
  <path class="st0" d="M448.9,55.5c-1.7,0-3-1.3-3.1-3l0,0V9.2c0-5.1-4.1-9.2-9.2-9.2h-9.2v10.7h3c1.6,0,3,1.3,3,3l0,0v11.1
		c-3.9-4.9-9.8-7.7-16-7.8c-12.2,0-22.1,11.3-22.1,25.2s9.9,25.2,22.1,25.2c6.4-0.1,12.4-3.1,16.3-8.2c1,4.1,4.8,7,9,7h9V55.5H448.9
		z M420.7,55.1c-7.1,0-12.9-5.8-13-12.9c0-7.1,5.8-12.9,12.9-13c7.1,0,12.9,5.8,13,12.9l0,0C433.6,49.3,427.8,55.1,420.7,55.1z">
  </path>
  <path class="st0" d="M169.1,18.1c-4.3,0-8,2.9-9,7c-3.9-5-9.9-8-16.3-8.1c-12.2,0-22.1,11.3-22.1,25.2s9.9,25.2,22.1,25.2
		c6.2-0.1,12.1-2.9,16-7.8v6.2c0,7.2-5.7,13.1-12.9,13.3H144v11.6h2.9c4.6,0.1,9.1-1.1,13-3.4c7.6-4.5,12.3-12.7,12.3-21.6V31.8
		c0-1.6,1.3-3,3-3l0,0h3V18.1H169.1z M146.9,55.1c-7.1,0-12.9-5.8-13-12.9c0-7.1,5.8-12.9,12.9-13s12.9,5.8,13,12.9l0,0
		C159.8,49.3,154,55.1,146.9,55.1z">
  </path>
  <path class="st0" d="M34.4,16.9c-6.3,0.1-12.1,3-16,7.9V9.2c0-5.1-4.1-9.2-9.2-9.2H0v10.7h3c1.7,0,3,1.3,3.1,3l0,0v52.5h12.3v-6.8
		c3.9,4.9,9.8,7.7,16,7.8c12.2,0,22.1-11.3,22.1-25.2S46.6,16.9,34.4,16.9z M31.3,55.1c-7.1,0-12.9-5.8-13-12.9
		c0-7.1,5.8-12.9,12.9-13c7.1,0,12.9,5.8,13,12.9l0,0C44.3,49.3,38.5,55.1,31.3,55.1z">
  </path>
  <path class="st0" d="M295.2,16.4c-13.9,0-25.2,11.3-25.2,25.2s11.3,25.2,25.2,25.2c13.9,0,25.2-11.3,25.2-25.2
		S309.1,16.4,295.2,16.4z M295.2,54.6c-7.1,0-12.9-5.8-12.9-12.9s5.8-12.9,12.9-12.9s12.9,5.8,12.9,12.9S302.3,54.6,295.2,54.6z">
  </path>
  <path class="st0" d="M205.8,28.8c4.7-0.1,9,2.4,11.3,6.5l10.6-6.1c-7-12-22.4-16.2-34.4-9.2s-16.2,22.4-9.2,34.4
		s22.4,16.2,34.4,9.2c3.8-2.2,7-5.4,9.2-9.2l-10.8-6.1c-3.6,6.2-11.5,8.3-17.6,4.7c-6.2-3.6-8.3-11.5-4.7-17.6
		c2.3-4,6.5-6.4,11.1-6.5L205.8,28.8z">
  </path>
  <path class="st0" d="M250.8,25.1c-0.9-4.1-4.7-7.1-8.9-7h-9.2v10.7h3.1c1.7,0,3,1.4,3,3l0,0v34.4H251V41.8
		c0-7.1,5.8-12.9,12.9-12.9h3V17C260.7,17.1,254.7,20.1,250.8,25.1z">
  </path>
  <path class="st0" d="M375.8,24.4l-5.9,22l-7.6-28.1h-9.2l-7.6,28.2l-5.9-22c-1.2-3.8-4.8-6.3-8.7-6.3h-8.3v10.7h3.6
		c1.3,0,2.5,0.9,2.9,2.1c0,0.1,9.4,35.3,9.4,35.3h12.3l6.8-25.3l6.8,25.3h12.3c0,0,9.5-35.2,9.5-35.3c0.4-1.3,1.6-2.1,2.9-2.1h3.6
		V18.1h-8.3C380.5,18.1,377,20.6,375.8,24.4L375.8,24.4z">
  </path>
  <path class="st0" d="M118.3,55.5v10.7h-9.2c-4.2,0-7.9-2.8-8.9-7c-3.6,4.7-9.1,7.6-15,8.1c-0.2,0-0.3,0-0.5,0h-1.6
		c-0.2,0-0.3,0-0.5,0c-9.1-0.7-16.2-8.3-16.2-17.5V31.6c0-1.7-1.3-3-3-3.1l0,0h-3.1V17.9h9.2c5.1,0,9.2,4.1,9.2,9.2v17.4
		c-0.3,5.9,4.3,10.8,10.1,11.1c5.9,0.3,10.8-4.3,11.1-10.1c0-0.3,0-0.7,0-1V17.9h12.2v34.5c0,1.7,1.3,3,3,3.1l0,0H118.3z">
  </path>
 </g>
</svg>