<svg width="1577" height="382" viewBox="0 0 1577 382" fill="none" xmlns="http://www.w3.org/2000/svg" xmlns:xlink="http://www.w3.org/1999/xlink">
 <path d="M227.999 219.9C217.199 229.4 203.799 241.3 179.499 241.3H164.899C147.299 241.3 131.199 234.9 119.799 223.3C108.599 212 102.399 196.4 102.399 179.6V159.7C102.399 142.8 108.599 127.3 119.799 116C131.299 104.4 147.299 97.9998 164.899 97.9998H179.499C203.899 97.9998 217.299 109.9 227.999 119.4C239.199 129.3 248.799 137.8 274.499 137.8C278.499 137.8 282.4 137.5 286.2 136.9C286.2 136.8 286.1 136.8 286.1 136.7C284.6 132.9 282.8 129.2 280.7 125.6L263.499 95.8997C247.699 68.5997 218.6 51.7998 187.1 51.7998H152.799C121.299 51.7998 92.1993 68.5997 76.3993 95.8997L59.1996 125.6C43.3996 152.9 43.3996 186.5 59.1996 213.8L76.3993 243.5C92.1993 270.8 121.299 287.6 152.799 287.6H187.1C218.6 287.6 247.699 270.8 263.499 243.5L280.7 213.8C282.8 210.2 284.6 206.5 286.1 202.7C286.1 202.6 286.2 202.6 286.2 202.5C282.4 201.9 278.499 201.6 274.499 201.6C248.799 201.4 239.099 210 227.999 219.9Z" fill="#231F20">
 </path>
 <path d="M179.399 115.9H164.799C137.999 115.9 120.399 135.1 120.399 159.6V179.5C120.399 204 137.999 223.2 164.799 223.2H179.399C218.499 223.2 215.399 183.4 274.399 183.4C280.099 183.4 285.6 183.9 291.1 184.9C292.9 174.8 292.9 164.4 291.1 154.3C285.7 155.3 280.099 155.8 274.399 155.8C215.399 155.8 218.499 115.9 179.399 115.9Z" fill="#231F20">
 </path>
 <path d="M325 199.5C314.9 192.1 303.4 187.2 291.1 184.9C291.1 185 291.1 185.1 291.1 185.2C290.1 191 288.4 196.8 286.2 202.4C296.5 204.1 306.1 208 314.2 213.9C314.2 214 314.1 214.1 314.1 214.2C309.4 229.5 302.3 243.8 293.1 256.9C283.9 269.8 272.9 281.2 260.2 290.7C233.9 310.4 202.5 320.9 169.5 320.9C149.1 320.9 129.3 316.9 110.6 309C92.5996 301.4 76.3995 290.5 62.4995 276.6C48.5995 262.7 37.6996 246.5 30.0996 228.5C22.1996 209.9 18.1997 190 18.1997 169.6C18.1997 149.2 22.1996 129.4 30.0996 110.7C37.6996 92.6997 48.5995 76.4999 62.4995 62.5999C76.3995 48.6999 92.5996 37.7997 110.6 30.1997C129.2 22.2997 149.1 18.2998 169.5 18.2998C202.5 18.2998 233.9 28.6998 260.2 48.4998C272.9 57.9998 283.9 69.3998 293.1 82.2998C302.4 95.3998 309.4 109.8 314.1 125C314.1 125.1 314.2 125.2 314.2 125.3C306.1 131.3 296.5 135.2 286.2 136.8C288.4 142.4 290.1 148.1 291.1 154C291.1 154.1 291.1 154.2 291.1 154.3C303.4 152 314.9 147.2 325 139.7C334.7 132.5 332.799 124.5 331.299 119.7C309.999 50.4997 245.599 0.299805 169.399 0.299805C75.8994 0.299805 0.0996094 76.0999 0.0996094 169.6C0.0996094 263.1 75.8994 338.9 169.399 338.9C245.599 338.9 309.999 288.6 331.299 219.5C332.799 214.7 334.7 206.6 325 199.5Z" fill="#231F20">
 </path>
 <path d="M934.1 151.1C958.6 151.1 981.8 166.1 986.7 198.5H877.5C882.1 170.1 903.4 151.1 934.1 151.1ZM983.299 246.5C974.999 259.5 958.799 269.5 936.799 269.5C906.399 269.5 883.2 252.8 877.6 223.4H1014.6C1015.3 219.2 1015.6 214.9 1015.6 210.6C1015.6 164.8 983.6 124.3 934.2 124.3C883.2 124.3 848.5 161.9 848.5 210.3C848.5 259.3 883.5 296.3 936.1 296.3C968.8 296.3 993.6 281.6 1008 259.4L983.299 246.5Z" fill="#231F20">
 </path>
 <path d="M835 53.2998H806.6V292H835V53.2998Z" fill="#231F20">
 </path>
 <path d="M1173.8 191.6V292H1145.4V193.3C1145.4 166.5 1130 151.4 1104.9 151.4C1078.7 151.4 1057.5 166.8 1057.5 205.3V291.9H1029V128.4H1057.4V151.9C1069.5 132.6 1087.5 124.1 1110.4 124.1C1148.6 124.3 1173.8 149.8 1173.8 191.6Z" fill="#231F20">
 </path>
 <path d="M1330.7 210.3C1330.7 176.9 1305.5 151.8 1272.5 151.8C1239.8 151.8 1214.6 177 1214.6 210.3C1214.6 243.6 1239.8 268.8 1272.5 268.8C1305.5 268.8 1330.7 243.6 1330.7 210.3ZM1359.1 53.2998V292H1330.7V263.9C1317.6 283.8 1296.7 296.3 1268.9 296.3C1223.5 296.3 1186.2 258.7 1186.2 210.3C1186.2 161.9 1223.5 124.3 1268.9 124.3C1296.7 124.3 1317.6 136.7 1330.7 156.7V53.3997H1359.1V53.2998Z" fill="#231F20">
 </path>
 <path d="M1410.4 53.2998H1382V292H1410.4V53.2998Z" fill="#231F20">
 </path>
 <path d="M755.899 210.3C755.899 176.9 730.7 151.8 697.7 151.8C665 151.8 639.799 177 639.799 210.3C639.799 243.6 665 268.8 697.7 268.8C730.7 268.8 755.899 243.6 755.899 210.3ZM784.299 128.5V292H755.899V263.9C742.799 283.8 721.9 296.3 694.1 296.3C648.7 296.3 611.399 258.7 611.399 210.3C611.399 161.9 648.7 124.3 694.1 124.3C721.9 124.3 742.799 136.7 755.899 156.7V128.6H784.299V128.5Z" fill="#231F20">
 </path>
 <path d="M569.2 260.6C554.8 265.9 539.099 267.4 523.799 264.8C500.499 260.9 480.099 248.1 466.399 228.8C452.699 209.5 447.3 186.1 451.2 162.8C455.1 139.5 467.9 119.1 487.2 105.4C506.5 91.6996 529.9 86.2998 553.2 90.2998C568.5 92.8998 582.8 99.3997 594.7 109.2C599.7 113.3 604.2 118 608.2 123.1L632.799 105.1C627.299 97.8998 621 91.2997 614.1 85.6997C598.1 72.4997 578.799 63.6997 558.299 60.1997C526.999 54.8997 495.4 62.0997 469.5 80.4997C443.6 98.8997 426.4 126.3 421.1 157.7C410.2 222.4 453.9 283.9 518.6 294.9C525.1 296 531.8 296.6 538.5 296.6C552.7 296.6 566.5 294.1 579.7 289.2C590.9 285.1 601.5 279.1 611.1 271.8L594.7 245.9C587.1 252.1 578.4 257.2 569.2 260.6Z" fill="#231F20">
 </path>
 <path d="M1547.8 128.5V221.3C1547.8 251.3 1530.3 270.3 1503.7 270.3C1477.1 270.3 1457.8 251.3 1457.8 221.3V128.5H1429V218.5C1429 265.7 1458.4 296.3 1503.7 296.3C1542.9 296.3 1549 271.5 1549 270.9V304.3C1549 337.4 1534.6 356 1504.6 356C1482 356 1463.4 339.3 1460.6 317.8L1434.9 326.8C1442.3 358.4 1470.5 382 1504.6 382C1551.1 382 1576.6 351.4 1576.6 304.2V128.4H1547.8V128.5Z" fill="#231F20">
 </path>
</svg>