<svg version="1.1" id="Layer_1" xmlns:x="ns_extend;" xmlns:i="ns_ai;" xmlns:graph="ns_graphs;" xmlns="http://www.w3.org/2000/svg" xmlns:xlink="http://www.w3.org/1999/xlink" x="0px" y="0px" viewBox="0 0 199.6 64" style="enable-background:new 0 0 199.6 64;" xml:space="preserve">
 <style type="text/css">
  .st0{fill:url(#SVGID_1_);}
	.st1{fill:url(#SVGID_2_);}
	.st2{fill:url(#SVGID_3_);}
	.st3{fill:url(#SVGID_4_);}
	.st4{fill:url(#SVGID_5_);}
	.st5{fill:url(#SVGID_6_);}
 </style>
 <metadata>
  <sfw xmlns="ns_sfw;">
   <slices>
   </slices>
   <sliceSourceBounds bottomLeftOrigin="true" height="64" width="199.6" x="-47.7" y="54.5">
   </sliceSourceBounds>
  </sfw>
 </metadata>
 <g>
  <linearGradient id="SVGID_1_" gradientUnits="userSpaceOnUse" x1="197.3912" y1="143.9217" x2="31.3544" y2="183.4353" gradientTransform="matrix(1 0 0 -1 0 209.0271)">
   <stop offset="0" style="stop-color:#7D2AE7">
   </stop>
   <stop offset="0.7708" style="stop-color:#7D2AE7">
   </stop>
   <stop offset="1" style="stop-color:#7D2AE7;stop-opacity:0">
   </stop>
  </linearGradient>
  <path class="st0" d="M198.2,43.7c-0.3,0-0.6,0.2-0.8,0.7c-2,5.8-4.8,9.3-7.1,9.3c-1.3,0-1.8-1.5-1.8-3.7c0-5.7,3.4-17.8,5.1-23.4
		c0.2-0.7,0.3-1.3,0.3-1.8c0-1.6-0.9-2.4-3.1-2.4c-2.3,0-4.9,0.9-7.3,5.2c-0.8-3.8-3.4-5.4-7-5.4c-4.1,0-8.1,2.7-11.4,7
		c-3.3,4.3-7.2,5.7-10.1,5c2.1-5.1,2.9-9,2.9-11.8c0-4.5-2.2-7.2-5.8-7.2c-5.4,0-8.5,5.2-8.5,10.6c0,4.2,1.9,8.5,6.1,10.6
		c-3.5,7.9-8.6,15.1-10.6,15.1c-2.5,0-3.3-12.3-3.1-21.1c0.1-5,0.5-5.3,0.5-6.8c0-0.9-0.6-1.5-2.9-1.5c-5.3,0-7,4.5-7.2,9.7
		c-0.1,2-0.4,3.9-0.9,5.8c-2.2,7.9-6.8,14-9.8,14c-1.4,0-1.8-1.4-1.8-3.2c0-5.7,3.2-12.9,3.2-19c0-4.5-2-7.3-5.7-7.3
		c-4.4,0-10.1,5.2-15.6,14.9c1.8-7.4,2.5-14.6-2.8-14.6c-1.2,0-2.3,0.3-3.3,0.9c-0.7,0.3-1.1,1-1.1,1.8c0.5,7.9-6.4,28.2-12.9,28.2
		c-1.2,0-1.8-1.3-1.8-3.4c0-5.7,3.4-17.8,5.1-23.4c0.2-0.7,0.3-1.3,0.3-1.9c0-1.5-0.9-2.3-3.1-2.3c-2.3,0-4.9,0.9-7.3,5.2
		c-0.9-3.8-3.4-5.4-7-5.4c-5.9,0-12.4,6.2-15.3,14.3c-3.9,10.8-11.6,21.3-22.1,21.3c-9.5,0-14.5-7.9-14.5-20.4
		c0-18.1,13.3-32.8,23.1-32.8c4.7,0,6.9,3,6.9,7.6c0,5.6-3.1,8.1-3.1,10.3c0,0.6,0.5,1.3,1.6,1.3c4.3,0,9.3-5,9.3-11.9
		S42.4,0,32.6,0C16.3,0,0,16.3,0,37.3C0,54,8.2,64,22.4,64c9.7,0,18.2-7.5,22.7-16.3c0.5,7.3,3.8,11.1,8.9,11.1
		c4.5,0,8.1-2.7,10.9-7.4c1.1,4.9,3.9,7.3,7.6,7.3c4.2,0,7.8-2.7,11.1-7.6c0,3.9,0.8,7.6,4.2,7.6c1.6,0,3.5-0.4,3.8-1.8
		c3.6-14.7,12.4-26.8,15.1-26.8c0.8,0,1,0.8,1,1.7c0,4-2.8,12.2-2.8,17.4c0,5.7,2.4,9.4,7.4,9.4c5.5,0,11.1-6.7,14.8-16.6
		c1.2,9.2,3.7,16.6,7.6,16.6c4.8,0,13.5-10.2,18.7-21c2,0.3,5.1,0.2,8.1-1.9c-1.3,3.2-2,6.7-2,10.1c0,10,4.8,12.8,8.9,12.8
		c4.5,0,8.1-2.7,10.9-7.4c0.9,4.2,3.3,7.3,7.6,7.3c6.7,0,12.6-6.9,12.6-12.6C199.6,44.7,198.9,43.7,198.2,43.7z M58.2,53.2
		c-2.7,0-3.8-2.7-3.8-6.8c0-7.1,4.9-19,10-19c2.2,0,3.1,2.6,3.1,5.9C67.5,40.5,62.9,53.2,58.2,53.2z M151.5,32
		c-1.6-1.9-2.2-4.6-2.2-6.9c0-2.9,1.1-5.3,2.3-5.3s1.7,1.2,1.7,3C153.2,25.6,152.2,29.9,151.5,32z M172.6,53.2
		c-2.7,0-3.8-3.2-3.8-6.8c0-6.9,4.9-19,10-19c2.2,0,3,2.6,3,5.9C181.9,40.5,177.4,53.2,172.6,53.2z">
  </path>
  <radialGradient id="SVGID_2_" cx="-111.5409" cy="306.913" r="9.978172e-02" gradientTransform="matrix(420.0004 -432 -287.1004 -279.1257 135064.25 37552.5781)" gradientUnits="userSpaceOnUse">
   <stop offset="0" style="stop-color:#6420FF">
   </stop>
   <stop offset="1" style="stop-color:#6420FF;stop-opacity:0">
   </stop>
  </radialGradient>
  <path class="st1" d="M198.2,43.7c-0.3,0-0.6,0.2-0.8,0.7c-2,5.8-4.8,9.3-7.1,9.3c-1.3,0-1.8-1.5-1.8-3.7c0-5.7,3.4-17.8,5.1-23.4
		c0.2-0.7,0.3-1.3,0.3-1.8c0-1.6-0.9-2.4-3.1-2.4c-2.3,0-4.9,0.9-7.3,5.2c-0.8-3.8-3.4-5.4-7-5.4c-4.1,0-8.1,2.7-11.4,7
		c-3.3,4.3-7.2,5.7-10.1,5c2.1-5.1,2.9-9,2.9-11.8c0-4.5-2.2-7.2-5.8-7.2c-5.4,0-8.5,5.2-8.5,10.6c0,4.2,1.9,8.5,6.1,10.6
		c-3.5,7.9-8.6,15.1-10.6,15.1c-2.5,0-3.3-12.3-3.1-21.1c0.1-5,0.5-5.3,0.5-6.8c0-0.9-0.6-1.5-2.9-1.5c-5.3,0-7,4.5-7.2,9.7
		c-0.1,2-0.4,3.9-0.9,5.8c-2.2,7.9-6.8,14-9.8,14c-1.4,0-1.8-1.4-1.8-3.2c0-5.7,3.2-12.9,3.2-19c0-4.5-2-7.3-5.7-7.3
		c-4.4,0-10.1,5.2-15.6,14.9c1.8-7.4,2.5-14.6-2.8-14.6c-1.2,0-2.3,0.3-3.3,0.9c-0.7,0.3-1.1,1-1.1,1.8c0.5,7.9-6.4,28.2-12.9,28.2
		c-1.2,0-1.8-1.3-1.8-3.4c0-5.7,3.4-17.8,5.1-23.4c0.2-0.7,0.3-1.3,0.3-1.9c0-1.5-0.9-2.3-3.1-2.3c-2.3,0-4.9,0.9-7.3,5.2
		c-0.9-3.8-3.4-5.4-7-5.4c-5.9,0-12.4,6.2-15.3,14.3c-3.9,10.8-11.6,21.3-22.1,21.3c-9.5,0-14.5-7.9-14.5-20.4
		c0-18.1,13.3-32.8,23.1-32.8c4.7,0,6.9,3,6.9,7.6c0,5.6-3.1,8.1-3.1,10.3c0,0.6,0.5,1.3,1.6,1.3c4.3,0,9.3-5,9.3-11.9
		S42.4,0,32.6,0C16.3,0,0,16.3,0,37.3C0,54,8.2,64,22.4,64c9.7,0,18.2-7.5,22.7-16.3c0.5,7.3,3.8,11.1,8.9,11.1
		c4.5,0,8.1-2.7,10.9-7.4c1.1,4.9,3.9,7.3,7.6,7.3c4.2,0,7.8-2.7,11.1-7.6c0,3.9,0.8,7.6,4.2,7.6c1.6,0,3.5-0.4,3.8-1.8
		c3.6-14.7,12.4-26.8,15.1-26.8c0.8,0,1,0.8,1,1.7c0,4-2.8,12.2-2.8,17.4c0,5.7,2.4,9.4,7.4,9.4c5.5,0,11.1-6.7,14.8-16.6
		c1.2,9.2,3.7,16.6,7.6,16.6c4.8,0,13.5-10.2,18.7-21c2,0.3,5.1,0.2,8.1-1.9c-1.3,3.2-2,6.7-2,10.1c0,10,4.8,12.8,8.9,12.8
		c4.5,0,8.1-2.7,10.9-7.4c0.9,4.2,3.3,7.3,7.6,7.3c6.7,0,12.6-6.9,12.6-12.6C199.6,44.7,198.9,43.7,198.2,43.7z M58.2,53.2
		c-2.7,0-3.8-2.7-3.8-6.8c0-7.1,4.9-19,10-19c2.2,0,3.1,2.6,3.1,5.9C67.5,40.5,62.9,53.2,58.2,53.2z M151.5,32
		c-1.6-1.9-2.2-4.6-2.2-6.9c0-2.9,1.1-5.3,2.3-5.3s1.7,1.2,1.7,3C153.2,25.6,152.2,29.9,151.5,32z M172.6,53.2
		c-2.7,0-3.8-3.2-3.8-6.8c0-6.9,4.9-19,10-19c2.2,0,3,2.6,3,5.9C181.9,40.5,177.4,53.2,172.6,53.2z">
  </path>
  <radialGradient id="SVGID_3_" cx="-111.2152" cy="304.8279" r="9.978172e-02" gradientTransform="matrix(1167.999 103.9999 82.8902 -930.921 104636.7734 295379.6875)" gradientUnits="userSpaceOnUse">
   <stop offset="0.25" style="stop-color:#00C4CC">
   </stop>
   <stop offset="1" style="stop-color:#00C4CC;stop-opacity:0">
   </stop>
  </radialGradient>
  <path class="st2" d="M198.2,43.7c-0.3,0-0.6,0.2-0.8,0.7c-2,5.8-4.8,9.3-7.1,9.3c-1.3,0-1.8-1.5-1.8-3.7c0-5.7,3.4-17.8,5.1-23.4
		c0.2-0.7,0.3-1.3,0.3-1.8c0-1.6-0.9-2.4-3.1-2.4c-2.3,0-4.9,0.9-7.3,5.2c-0.8-3.8-3.4-5.4-7-5.4c-4.1,0-8.1,2.7-11.4,7
		c-3.3,4.3-7.2,5.7-10.1,5c2.1-5.1,2.9-9,2.9-11.8c0-4.5-2.2-7.2-5.8-7.2c-5.4,0-8.5,5.2-8.5,10.6c0,4.2,1.9,8.5,6.1,10.6
		c-3.5,7.9-8.6,15.1-10.6,15.1c-2.5,0-3.3-12.3-3.1-21.1c0.1-5,0.5-5.3,0.5-6.8c0-0.9-0.6-1.5-2.9-1.5c-5.3,0-7,4.5-7.2,9.7
		c-0.1,2-0.4,3.9-0.9,5.8c-2.2,7.9-6.8,14-9.8,14c-1.4,0-1.8-1.4-1.8-3.2c0-5.7,3.2-12.9,3.2-19c0-4.5-2-7.3-5.7-7.3
		c-4.4,0-10.1,5.2-15.6,14.9c1.8-7.4,2.5-14.6-2.8-14.6c-1.2,0-2.3,0.3-3.3,0.9c-0.7,0.3-1.1,1-1.1,1.8c0.5,7.9-6.4,28.2-12.9,28.2
		c-1.2,0-1.8-1.3-1.8-3.4c0-5.7,3.4-17.8,5.1-23.4c0.2-0.7,0.3-1.3,0.3-1.9c0-1.5-0.9-2.3-3.1-2.3c-2.3,0-4.9,0.9-7.3,5.2
		c-0.9-3.8-3.4-5.4-7-5.4c-5.9,0-12.4,6.2-15.3,14.3c-3.9,10.8-11.6,21.3-22.1,21.3c-9.5,0-14.5-7.9-14.5-20.4
		c0-18.1,13.3-32.8,23.1-32.8c4.7,0,6.9,3,6.9,7.6c0,5.6-3.1,8.1-3.1,10.3c0,0.6,0.5,1.3,1.6,1.3c4.3,0,9.3-5,9.3-11.9
		S42.4,0,32.6,0C16.3,0,0,16.3,0,37.3C0,54,8.2,64,22.4,64c9.7,0,18.2-7.5,22.7-16.3c0.5,7.3,3.8,11.1,8.9,11.1
		c4.5,0,8.1-2.7,10.9-7.4c1.1,4.9,3.9,7.3,7.6,7.3c4.2,0,7.8-2.7,11.1-7.6c0,3.9,0.8,7.6,4.2,7.6c1.6,0,3.5-0.4,3.8-1.8
		c3.6-14.7,12.4-26.8,15.1-26.8c0.8,0,1,0.8,1,1.7c0,4-2.8,12.2-2.8,17.4c0,5.7,2.4,9.4,7.4,9.4c5.5,0,11.1-6.7,14.8-16.6
		c1.2,9.2,3.7,16.6,7.6,16.6c4.8,0,13.5-10.2,18.7-21c2,0.3,5.1,0.2,8.1-1.9c-1.3,3.2-2,6.7-2,10.1c0,10,4.8,12.8,8.9,12.8
		c4.5,0,8.1-2.7,10.9-7.4c0.9,4.2,3.3,7.3,7.6,7.3c6.7,0,12.6-6.9,12.6-12.6C199.6,44.7,198.9,43.7,198.2,43.7z M58.2,53.2
		c-2.7,0-3.8-2.7-3.8-6.8c0-7.1,4.9-19,10-19c2.2,0,3.1,2.6,3.1,5.9C67.5,40.5,62.9,53.2,58.2,53.2z M151.5,32
		c-1.6-1.9-2.2-4.6-2.2-6.9c0-2.9,1.1-5.3,2.3-5.3s1.7,1.2,1.7,3C153.2,25.6,152.2,29.9,151.5,32z M172.6,53.2
		c-2.7,0-3.8-3.2-3.8-6.8c0-6.9,4.9-19,10-19c2.2,0,3,2.6,3,5.9C181.9,40.5,177.4,53.2,172.6,53.2z">
  </path>
  <radialGradient id="SVGID_4_" cx="-111.5286" cy="306.0371" r="9.978172e-02" gradientTransform="matrix(588.4999 -474.0003 -324.1069 -402.3982 164908.4844 70348.1406)" gradientUnits="userSpaceOnUse">
   <stop offset="0" style="stop-color:#6420FF">
   </stop>
   <stop offset="1" style="stop-color:#6420FF;stop-opacity:0">
   </stop>
  </radialGradient>
  <path class="st3" d="M198.2,43.7c-0.3,0-0.6,0.2-0.8,0.7c-2,5.8-4.8,9.3-7.1,9.3c-1.3,0-1.8-1.5-1.8-3.7c0-5.7,3.4-17.8,5.1-23.4
		c0.2-0.7,0.3-1.3,0.3-1.8c0-1.6-0.9-2.4-3.1-2.4c-2.3,0-4.9,0.9-7.3,5.2c-0.8-3.8-3.4-5.4-7-5.4c-4.1,0-8.1,2.7-11.4,7
		c-3.3,4.3-7.2,5.7-10.1,5c2.1-5.1,2.9-9,2.9-11.8c0-4.5-2.2-7.2-5.8-7.2c-5.4,0-8.5,5.2-8.5,10.6c0,4.2,1.9,8.5,6.1,10.6
		c-3.5,7.9-8.6,15.1-10.6,15.1c-2.5,0-3.3-12.3-3.1-21.1c0.1-5,0.5-5.3,0.5-6.8c0-0.9-0.6-1.5-2.9-1.5c-5.3,0-7,4.5-7.2,9.7
		c-0.1,2-0.4,3.9-0.9,5.8c-2.2,7.9-6.8,14-9.8,14c-1.4,0-1.8-1.4-1.8-3.2c0-5.7,3.2-12.9,3.2-19c0-4.5-2-7.3-5.7-7.3
		c-4.4,0-10.1,5.2-15.6,14.9c1.8-7.4,2.5-14.6-2.8-14.6c-1.2,0-2.3,0.3-3.3,0.9c-0.7,0.3-1.1,1-1.1,1.8c0.5,7.9-6.4,28.2-12.9,28.2
		c-1.2,0-1.8-1.3-1.8-3.4c0-5.7,3.4-17.8,5.1-23.4c0.2-0.7,0.3-1.3,0.3-1.9c0-1.5-0.9-2.3-3.1-2.3c-2.3,0-4.9,0.9-7.3,5.2
		c-0.9-3.8-3.4-5.4-7-5.4c-5.9,0-12.4,6.2-15.3,14.3c-3.9,10.8-11.6,21.3-22.1,21.3c-9.5,0-14.5-7.9-14.5-20.4
		c0-18.1,13.3-32.8,23.1-32.8c4.7,0,6.9,3,6.9,7.6c0,5.6-3.1,8.1-3.1,10.3c0,0.6,0.5,1.3,1.6,1.3c4.3,0,9.3-5,9.3-11.9
		S42.4,0,32.6,0C16.3,0,0,16.3,0,37.3C0,54,8.2,64,22.4,64c9.7,0,18.2-7.5,22.7-16.3c0.5,7.3,3.8,11.1,8.9,11.1
		c4.5,0,8.1-2.7,10.9-7.4c1.1,4.9,3.9,7.3,7.6,7.3c4.2,0,7.8-2.7,11.1-7.6c0,3.9,0.8,7.6,4.2,7.6c1.6,0,3.5-0.4,3.8-1.8
		c3.6-14.7,12.4-26.8,15.1-26.8c0.8,0,1,0.8,1,1.7c0,4-2.8,12.2-2.8,17.4c0,5.7,2.4,9.4,7.4,9.4c5.5,0,11.1-6.7,14.8-16.6
		c1.2,9.2,3.7,16.6,7.6,16.6c4.8,0,13.5-10.2,18.7-21c2,0.3,5.1,0.2,8.1-1.9c-1.3,3.2-2,6.7-2,10.1c0,10,4.8,12.8,8.9,12.8
		c4.5,0,8.1-2.7,10.9-7.4c0.9,4.2,3.3,7.3,7.6,7.3c6.7,0,12.6-6.9,12.6-12.6C199.6,44.7,198.9,43.7,198.2,43.7z M58.2,53.2
		c-2.7,0-3.8-2.7-3.8-6.8c0-7.1,4.9-19,10-19c2.2,0,3.1,2.6,3.1,5.9C67.5,40.5,62.9,53.2,58.2,53.2z M151.5,32
		c-1.6-1.9-2.2-4.6-2.2-6.9c0-2.9,1.1-5.3,2.3-5.3s1.7,1.2,1.7,3C153.2,25.6,152.2,29.9,151.5,32z M172.6,53.2
		c-2.7,0-3.8-3.2-3.8-6.8c0-6.9,4.9-19,10-19c2.2,0,3,2.6,3,5.9C181.9,40.5,177.4,53.2,172.6,53.2z">
  </path>
  <radialGradient id="SVGID_5_" cx="-110.8691" cy="305.3029" r="9.978172e-02" gradientTransform="matrix(728.0006 -495.9998 -339.1491 -497.784 184267.1562 97058.9688)" gradientUnits="userSpaceOnUse">
   <stop offset="0" style="stop-color:#6420FF">
   </stop>
   <stop offset="1" style="stop-color:#6420FF;stop-opacity:0">
   </stop>
  </radialGradient>
  <path class="st4" d="M198.2,43.7c-0.3,0-0.6,0.2-0.8,0.7c-2,5.8-4.8,9.3-7.1,9.3c-1.3,0-1.8-1.5-1.8-3.7c0-5.7,3.4-17.8,5.1-23.4
		c0.2-0.7,0.3-1.3,0.3-1.8c0-1.6-0.9-2.4-3.1-2.4c-2.3,0-4.9,0.9-7.3,5.2c-0.8-3.8-3.4-5.4-7-5.4c-4.1,0-8.1,2.7-11.4,7
		c-3.3,4.3-7.2,5.7-10.1,5c2.1-5.1,2.9-9,2.9-11.8c0-4.5-2.2-7.2-5.8-7.2c-5.4,0-8.5,5.2-8.5,10.6c0,4.2,1.9,8.5,6.1,10.6
		c-3.5,7.9-8.6,15.1-10.6,15.1c-2.5,0-3.3-12.3-3.1-21.1c0.1-5,0.5-5.3,0.5-6.8c0-0.9-0.6-1.5-2.9-1.5c-5.3,0-7,4.5-7.2,9.7
		c-0.1,2-0.4,3.9-0.9,5.8c-2.2,7.9-6.8,14-9.8,14c-1.4,0-1.8-1.4-1.8-3.2c0-5.7,3.2-12.9,3.2-19c0-4.5-2-7.3-5.7-7.3
		c-4.4,0-10.1,5.2-15.6,14.9c1.8-7.4,2.5-14.6-2.8-14.6c-1.2,0-2.3,0.3-3.3,0.9c-0.7,0.3-1.1,1-1.1,1.8c0.5,7.9-6.4,28.2-12.9,28.2
		c-1.2,0-1.8-1.3-1.8-3.4c0-5.7,3.4-17.8,5.1-23.4c0.2-0.7,0.3-1.3,0.3-1.9c0-1.5-0.9-2.3-3.1-2.3c-2.3,0-4.9,0.9-7.3,5.2
		c-0.9-3.8-3.4-5.4-7-5.4c-5.9,0-12.4,6.2-15.3,14.3c-3.9,10.8-11.6,21.3-22.1,21.3c-9.5,0-14.5-7.9-14.5-20.4
		c0-18.1,13.3-32.8,23.1-32.8c4.7,0,6.9,3,6.9,7.6c0,5.6-3.1,8.1-3.1,10.3c0,0.6,0.5,1.3,1.6,1.3c4.3,0,9.3-5,9.3-11.9
		S42.4,0,32.6,0C16.3,0,0,16.3,0,37.3C0,54,8.2,64,22.4,64c9.7,0,18.2-7.5,22.7-16.3c0.5,7.3,3.8,11.1,8.9,11.1
		c4.5,0,8.1-2.7,10.9-7.4c1.1,4.9,3.9,7.3,7.6,7.3c4.2,0,7.8-2.7,11.1-7.6c0,3.9,0.8,7.6,4.2,7.6c1.6,0,3.5-0.4,3.8-1.8
		c3.6-14.7,12.4-26.8,15.1-26.8c0.8,0,1,0.8,1,1.7c0,4-2.8,12.2-2.8,17.4c0,5.7,2.4,9.4,7.4,9.4c5.5,0,11.1-6.7,14.8-16.6
		c1.2,9.2,3.7,16.6,7.6,16.6c4.8,0,13.5-10.2,18.7-21c2,0.3,5.1,0.2,8.1-1.9c-1.3,3.2-2,6.7-2,10.1c0,10,4.8,12.8,8.9,12.8
		c4.5,0,8.1-2.7,10.9-7.4c0.9,4.2,3.3,7.3,7.6,7.3c6.7,0,12.6-6.9,12.6-12.6C199.6,44.7,198.9,43.7,198.2,43.7z M58.2,53.2
		c-2.7,0-3.8-2.7-3.8-6.8c0-7.1,4.9-19,10-19c2.2,0,3.1,2.6,3.1,5.9C67.5,40.5,62.9,53.2,58.2,53.2z M151.5,32
		c-1.6-1.9-2.2-4.6-2.2-6.9c0-2.9,1.1-5.3,2.3-5.3s1.7,1.2,1.7,3C153.2,25.6,152.2,29.9,151.5,32z M172.6,53.2
		c-2.7,0-3.8-3.2-3.8-6.8c0-6.9,4.9-19,10-19c2.2,0,3,2.6,3,5.9C181.9,40.5,177.4,53.2,172.6,53.2z">
  </path>
  <radialGradient id="SVGID_6_" cx="-111.2804" cy="304.488" r="9.978172e-02" gradientTransform="matrix(1699.9954 375.999 461.1489 -2084.9814 48781.0664 676699)" gradientUnits="userSpaceOnUse">
   <stop offset="0" style="stop-color:#00C4CC;stop-opacity:0.7259">
   </stop>
   <stop offset="0" style="stop-color:#00C4CC">
   </stop>
   <stop offset="1" style="stop-color:#00C4CC;stop-opacity:0">
   </stop>
  </radialGradient>
  <path class="st5" d="M198.2,43.7c-0.3,0-0.6,0.2-0.8,0.7c-2,5.8-4.8,9.3-7.1,9.3c-1.3,0-1.8-1.5-1.8-3.7c0-5.7,3.4-17.8,5.1-23.4
		c0.2-0.7,0.3-1.3,0.3-1.8c0-1.6-0.9-2.4-3.1-2.4c-2.3,0-4.9,0.9-7.3,5.2c-0.8-3.8-3.4-5.4-7-5.4c-4.1,0-8.1,2.7-11.4,7
		c-3.3,4.3-7.2,5.7-10.1,5c2.1-5.1,2.9-9,2.9-11.8c0-4.5-2.2-7.2-5.8-7.2c-5.4,0-8.5,5.2-8.5,10.6c0,4.2,1.9,8.5,6.1,10.6
		c-3.5,7.9-8.6,15.1-10.6,15.1c-2.5,0-3.3-12.3-3.1-21.1c0.1-5,0.5-5.3,0.5-6.8c0-0.9-0.6-1.5-2.9-1.5c-5.3,0-7,4.5-7.2,9.7
		c-0.1,2-0.4,3.9-0.9,5.8c-2.2,7.9-6.8,14-9.8,14c-1.4,0-1.8-1.4-1.8-3.2c0-5.7,3.2-12.9,3.2-19c0-4.5-2-7.3-5.7-7.3
		c-4.4,0-10.1,5.2-15.6,14.9c1.8-7.4,2.5-14.6-2.8-14.6c-1.2,0-2.3,0.3-3.3,0.9c-0.7,0.3-1.1,1-1.1,1.8c0.5,7.9-6.4,28.2-12.9,28.2
		c-1.2,0-1.8-1.3-1.8-3.4c0-5.7,3.4-17.8,5.1-23.4c0.2-0.7,0.3-1.3,0.3-1.9c0-1.5-0.9-2.3-3.1-2.3c-2.3,0-4.9,0.9-7.3,5.2
		c-0.9-3.8-3.4-5.4-7-5.4c-5.9,0-12.4,6.2-15.3,14.3c-3.9,10.8-11.6,21.3-22.1,21.3c-9.5,0-14.5-7.9-14.5-20.4
		c0-18.1,13.3-32.8,23.1-32.8c4.7,0,6.9,3,6.9,7.6c0,5.6-3.1,8.1-3.1,10.3c0,0.6,0.5,1.3,1.6,1.3c4.3,0,9.3-5,9.3-11.9
		S42.4,0,32.6,0C16.3,0,0,16.3,0,37.3C0,54,8.2,64,22.4,64c9.7,0,18.2-7.5,22.7-16.3c0.5,7.3,3.8,11.1,8.9,11.1
		c4.5,0,8.1-2.7,10.9-7.4c1.1,4.9,3.9,7.3,7.6,7.3c4.2,0,7.8-2.7,11.1-7.6c0,3.9,0.8,7.6,4.2,7.6c1.6,0,3.5-0.4,3.8-1.8
		c3.6-14.7,12.4-26.8,15.1-26.8c0.8,0,1,0.8,1,1.7c0,4-2.8,12.2-2.8,17.4c0,5.7,2.4,9.4,7.4,9.4c5.5,0,11.1-6.7,14.8-16.6
		c1.2,9.2,3.7,16.6,7.6,16.6c4.8,0,13.5-10.2,18.7-21c2,0.3,5.1,0.2,8.1-1.9c-1.3,3.2-2,6.7-2,10.1c0,10,4.8,12.8,8.9,12.8
		c4.5,0,8.1-2.7,10.9-7.4c0.9,4.2,3.3,7.3,7.6,7.3c6.7,0,12.6-6.9,12.6-12.6C199.6,44.7,198.9,43.7,198.2,43.7z M58.2,53.2
		c-2.7,0-3.8-2.7-3.8-6.8c0-7.1,4.9-19,10-19c2.2,0,3.1,2.6,3.1,5.9C67.5,40.5,62.9,53.2,58.2,53.2z M151.5,32
		c-1.6-1.9-2.2-4.6-2.2-6.9c0-2.9,1.1-5.3,2.3-5.3s1.7,1.2,1.7,3C153.2,25.6,152.2,29.9,151.5,32z M172.6,53.2
		c-2.7,0-3.8-3.2-3.8-6.8c0-6.9,4.9-19,10-19c2.2,0,3,2.6,3,5.9C181.9,40.5,177.4,53.2,172.6,53.2z">
  </path>
 </g>
</svg>