<svg version="1.1" id="Layer_1" xmlns:x="ns_extend;" xmlns:i="ns_ai;" xmlns:graph="ns_graphs;" xmlns="http://www.w3.org/2000/svg" xmlns:xlink="http://www.w3.org/1999/xlink" x="0px" y="0px" viewBox="0 0 481.5 100" style="enable-background:new 0 0 481.5 100;" xml:space="preserve">
 <style type="text/css">
  .st0{fill:#D5FF00;}
	.st1{fill:#191823;}
 </style>
 <metadata>
  <sfw xmlns="ns_sfw;">
   <slices>
   </slices>
   <sliceSourceBounds bottomLeftOrigin="true" height="100" width="481.5" x="-216.3" y="-213.3">
   </sliceSourceBounds>
  </sfw>
 </metadata>
 <g>
  <path class="st0" d="M100.3,0H0v100h100.3V0z">
  </path>
  <path class="st1" d="M86.4,76.4H13.9v9.7h72.4V76.4z M50.2,70.8l6.9-6.8l21-20.9l-7-7l-16,16V12.5h-9.7v39.6l-16-16l-7,7l21,20.9
		C43.2,64,50.2,70.8,50.2,70.8z M130.9,20.3h25.4c16.1,0,26.5,12.9,26.5,30.7c0,9.8-3.3,18.3-9.6,23.6c-4.5,3.7-10.3,5.8-17.9,5.8
		h-24.4L130.9,20.3L130.9,20.3z M154.4,69.9c11.5,0,15.9-7,15.9-18.9s-5.2-20.3-15.6-20.3h-11.6v39.2L154.4,69.9L154.4,69.9
		L154.4,69.9z M184.5,58.9c0-12.9,9.2-22.8,22.6-22.8c13.4,0,22.6,9.9,22.6,22.8s-9.2,22.8-22.6,22.8
		C193.7,81.6,184.5,71.7,184.5,58.9L184.5,58.9z M218.1,58.9c0-8.4-4-14.1-11-14.1c-7,0-11,5.7-11,14.1s3.9,14,11,14
		C214.2,72.9,218.1,67.3,218.1,58.9z M232.1,58.9c0-12.9,8.4-22.8,21.6-22.8c11.2,0,18.1,6.5,19.6,15.8h-11.2
		c-0.8-3.8-3.7-6.6-7.9-6.6c-6.9,0-10.5,5.3-10.5,13.6c0,8.3,3.3,13.6,10.3,13.6c4.6,0,7.9-2.4,8.7-7.3h11
		c-0.8,9.2-7.9,16.5-19.5,16.5C240.6,81.6,232.1,71.7,232.1,58.9C232.1,58.8,232.1,58.9,232.1,58.9z M304,80.4v-5h-0.3
		c-3,3.9-6.3,6.2-12.4,6.2c-9.6,0-15-6.1-15-15.6V37.2h11.4v26.8c0,5,2.3,7.8,7.2,7.8c5.4,0,8.7-4,8.7-9.8V37.2h11.5v43.1L304,80.4
		C304,80.4,304,80.4,304,80.4z M370.9,20.5h11.5v10.7h-11.5V20.5z M370.9,37.3h11.5v43.1h-11.5V37.3L370.9,37.3z M398.6,81.6
		c0.9,2.7,3.4,4.8,8.7,4.8c6.5,0,9.6-3.1,9.6-9v-4.7h-0.3c-2.5,2.9-5.8,5-11.3,5c-9.6,0-19.1-7.6-19.1-20.6c0-13,7.8-21.1,18.7-21.1
		c5.4,0,9.4,2.1,12,5.7h0.2v-4.5h11v39.8c0,6-1.9,10.2-5.1,13.1c-3.6,3.4-9.2,4.9-15.6,4.9c-11.8,0-19.1-5-20.2-13.5L398.6,81.6
		L398.6,81.6z M417.4,56.9c0-6.3-3.4-11.7-10.3-11.7c-5.8,0-9.7,4.5-9.7,11.8c0,7.2,3.9,11.6,9.8,11.6
		C414.5,68.6,417.4,63.3,417.4,56.9L417.4,56.9z M444.3,43.1h0.3c3-4.6,6.9-7.1,12.8-7.1c8.9,0,14.9,6.7,14.9,16.1v28.2h-11.5V53.9
		c0-4.6-2.7-7.9-7.5-7.9c-5.1,0-8.8,4-8.8,9.9v24.5h-11.5V37.2h11.2L444.3,43.1L444.3,43.1z M344.8,44.1c-8.9-1.9-13.2-3.4-13.2-8.2
		c0-4.3,4.3-7.1,10.9-7.1c6,0,10.6,2.8,11.5,8.4h11.8c-1.2-11.7-9.9-18.1-23.2-18.1c-13.3,0-23.1,6.1-23.1,18
		c0,12.5,9.9,15.4,20.7,17.8c9.2,2.1,14.9,3.3,14.9,9.2c0,5.5-5.5,7.7-11.7,7.7c-8.6,0-12.7-2.9-13.6-10.1h-12
		c0.4,12.7,9.7,19.9,26,19.9c13.6,0,23.4-6.8,23.4-19C367.3,49.8,357.2,46.8,344.8,44.1L344.8,44.1L344.8,44.1z M476.9,45.2
		c-2.5,0-4.6-2-4.6-4.5c0-2.5,2-4.6,4.6-4.6c2.5,0,4.5,2,4.6,4.6C481.5,43.2,479.4,45.2,476.9,45.2z M476.9,36.8
		c-2.1,0-3.8,1.7-3.8,3.8c0,2.1,1.7,3.8,3.9,3.8c2.1,0,3.8-1.7,3.8-3.8C480.8,38.6,479,36.8,476.9,36.8z">
  </path>
  <path class="st1" d="M475.4,38.3h1.5c0.6,0,1,0,1.4,0.3c0.3,0.3,0.5,0.7,0.5,1.1c0,0.9-0.7,1.2-0.9,1.3l1,1.9h-1l-0.9-1.7h-0.8V43
		h-0.9L475.4,38.3L475.4,38.3L475.4,38.3z M476.2,39.1v1.5h0.3c0.3,0,0.4,0,0.6,0c0.2,0,0.8,0,0.8-0.7c0-0.1,0-0.4-0.4-0.6
		c-0.2-0.1-0.4-0.1-0.9-0.1C476.6,39.1,476.2,39.1,476.2,39.1z">
  </path>
 </g>
</svg>