<svg version="1.1" id="Layer_1" xmlns="http://www.w3.org/2000/svg" xmlns:xlink="http://www.w3.org/1999/xlink" x="0px" y="0px" viewBox="0 0 720 160.6" style="enable-background:new 0 0 720 160.6;" xml:space="preserve">
 <style type="text/css">
  .st0{fill:#111111;}
 </style>
 <path class="st0" d="M238.4,155l-19.5-45.9h-16.7V155h-44.5V4.5h78.4c34.4,0,52.8,23.5,52.8,51.6c0,26-14.7,39.7-26.4,45.6
	l26.7,53.3H238.4z M243.8,59c0-10.2-7.1-14.8-14.6-14.8h-27V74h27C236.7,74.1,243.8,69.5,243.8,59z">
 </path>
 <path class="st0" d="M404.5,155V4.5h111.9v39.7h-67.2v20.2h65.7v39.7h-65.7V155H404.5z">
 </path>
 <path class="st0" d="M0,155V4.5h66c46.6,0,81.1,27,81.1,75.2c0,48-34.6,75.3-80.9,75.3H0z M101.8,79.7c0-20.4-11.5-35.5-35.5-35.5
	H44.8v71.1H66C88.5,115.3,101.8,98.7,101.8,79.7z">
 </path>
 <path class="st0" d="M567.2,155V44.2h-39.6V4.5h123.6v39.7h-39.3V155H567.2z">
 </path>
 <path class="st0" d="M394.7,4.6c0.6,0,1.2,0.1,1.7,0.2c2.2,0.5,3.2,2.5,2.1,4.3c-0.3,0.4-0.5,0.6-0.8,1l-37.6,42.8
	c0,0-0.7,0.7-1,1.2c-1.4,1.9,0,4.3,2.6,4.4c0.5,0,1.3,0,1.3,0h12.9c0,0,0.8,0,1.3,0c2.5,0.3,3.8,2.6,2.5,4.4
	c-0.3,0.5-1.1,1.3-1.1,1.3l-27.8,31.3c-0.4,0.4-0.6,0.7-1,1.2c-1.2,1.9,0.2,4.1,2.7,4.3c0.7,0,9.3,0,10,0c1.4-0.1,2.6,0.6,3.3,1.8
	c0.5,1.1,0.2,2.4-0.8,3.2c-0.3,0.3-0.8,0.6-0.8,0.6L300,154.8c0,0-0.7,0.7-1.2,1c-0.6,0.4-1.4,0.4-2.1,0c-0.5-0.3-0.8-1-0.6-1.5
	c0.2-0.5,0.5-1.2,0.5-1.2l17.7-36.5l0.5-1.1c1.2-2.4,0-4.4-2.6-4.7c-0.4,0-1,0-1,0H299c-0.5,0-1,0-1.5-0.1c-2.2-0.4-3.3-2.2-2.5-4
	c0.2-0.4,0.6-1.2,0.6-1.2l22-36.8c0,0,0.3-0.5,0.4-0.6c1.2-2.2-0.3-4.3-3-4.3c-1.2,0-3.4,0-3.4,0s-5.9,0-9.8,0h-1.2
	c-1.9,0-3.2-1-3.4-2.4c-0.1-0.7,0.1-1.5,0.5-2.2l6.7-11.8l21.9-38.7l0.5-0.9c1.1-2,3-3,5.6-3L394.7,4.6L394.7,4.6z">
 </path>
 <path id="_x2122_" class="st0" d="M693.1,37.8V10.2L704,37.7h1.2l10.9-27.5v27.5h4.1V4.5H714l-9.3,24.2l-9.3-24.2H689v33.3H693.1z
	 M674.8,37.8V8.4h9V4.5h-22v3.9h9v29.3h4V37.8z">
 </path>
</svg>