<svg version="1.1" id="Layer_1" xmlns="http://www.w3.org/2000/svg" xmlns:xlink="http://www.w3.org/1999/xlink" x="0px" y="0px" viewBox="0 0 1709 735" style="enable-background:new 0 0 1709 735;" xml:space="preserve">
 <g>
  <path d="M1135.1,129.9v405.5h121.8v-62h-40.2V68.2l-81.6,0L1135.1,129.9z">
  </path>
  <path d="M77.4,473.5h41.4V277.8H77.4V224l41.4-6.8v-54.5c0-66,14.4-94.6,98.5-94.6c18.2,0,39.7,2.7,58.6,6.1l-11.2,66.3
		c-12.8-2-19.1-2.4-27.2-2.4c-29.6,0-37.1,3-37.1,31.9v47.1h61.5v60.6h-61.5v195.6h41v61.9l-163.9,0L77.4,473.5L77.4,473.5z">
  </path>
  <path d="M1093.6,453.9c-12.8,2.7-23.9,2.4-32,2.6c-33.6,0.8-30.7-10.2-30.7-41.8V277.8h63.9v-60.6H1031V68.2h-81.6v363.4
		c0,71.3,17.6,103.9,94.3,103.9c18.2,0,43.1-4.7,62-8.7L1093.6,453.9z">
  </path>
  <path d="M1600.3,473.8c17.1,0,31,13.6,31,30.8c0,17.1-13.9,30.8-31,30.8c-17.1,0-30.9-13.6-30.9-30.8
		C1569.4,487.4,1583.2,473.8,1600.3,473.8 M1600.3,530.5c14.2,0,25.8-11.7,25.8-25.9c0-14.2-11.6-25.6-25.8-25.6
		c-14.2,0-25.8,11.3-25.8,25.6C1574.5,518.8,1586.1,530.5,1600.3,530.5 M1606,519.7l-6.2-9.1h-4.3v9.1h-6.9v-30.2h12.7
		c7.5,0,12.1,3.8,12.1,10.5c0,4.9-2.5,8.3-6.3,9.4l7.6,10.4L1606,519.7L1606,519.7z M1595.5,504.5h5.5c3.2,0,5.3-1.2,5.3-4.6
		c0-3.2-2.1-4.4-5.1-4.4h-5.7L1595.5,504.5L1595.5,504.5z">
  </path>
  <path d="M847.6,277.7v-10.9c-24.7-4.5-49.2-4.6-62.5-4.6c-38,0-42.6,20.1-42.6,31c0,15.4,5.3,23.8,46.4,32.8
		c60.1,13.5,120.5,27.6,120.5,102.1c0,70.7-36.4,107.2-112.9,107.2c-51.2,0-101-11-138.9-20.6v-60.9h61.8l0,10.8
		c26.6,5.1,54.4,4.6,69,4.6c40.5,0,47-21.8,47-33.3c0-16.1-11.6-23.8-49.6-31.5c-71.5-12.2-128.2-36.6-128.2-109.3
		c0-68.7,46-95.7,122.5-95.7c51.9,0,91.3,8,129.3,17.7v60.5H847.6z">
  </path>
  <path d="M472.3,331.3l-6.2-6.2l-31.5,27.5c-1.6-0.6-3.3-0.9-5.1-0.9c-8.5,0-15.4,7.1-15.4,15.8c0,8.7,6.9,15.8,15.4,15.8
		c8.5,0,15.4-7.1,15.4-15.8c0-1.7-0.3-3.3-0.7-4.8L472.3,331.3z">
  </path>
  <path d="M597.3,453.9l-0.1-253.8h-81.6v23.8c-16.8-10.1-35.5-17.3-55.5-21h0.5v-28.2h10V154h-82.1v20.7h10v28.2h0.6
		c-78,14.4-137.1,82.7-137.1,164.8c0,92.6,75.1,167.7,167.7,167.7c31.6,0,61.2-8.8,86.4-24l14.7,24h86.2v-81.5L597.3,453.9
		L597.3,453.9z M434.4,453.7v-9.6h-9.8v9.6c-43.8-2.6-78.8-37.7-81.1-81.6h9.7v-9.8h-9.7c2.6-43.5,37.5-78.4,81-80.9v9.6h9.8v-9.6
		c42.9,2.3,77.5,36,81.3,78.5v2.8h-9.8v9.8h9.8l0,2.7C512,417.7,477.4,451.4,434.4,453.7L434.4,453.7z">
  </path>
  <path d="M1463.3,217.2h168.2v60.6h-40.2l-103.2,253.8C1458.6,602.9,1410,670,1336.1,670c-18.2,0-42.4-2-59.2-6l7.4-74
		c10.8,2,24.9,3.3,32.3,3.3c34.3,0,73-21.3,85.1-58.3l-104.5-257.2h-40.2v-60.6h168.3v60.6H1385l59.2,145.7l59.2-145.7h-40.1
		L1463.3,217.2L1463.3,217.2z">
  </path>
 </g>
</svg>