<svg version="1.1" id="Layer_1" xmlns="http://www.w3.org/2000/svg" xmlns:xlink="http://www.w3.org/1999/xlink" x="0px" y="0px" viewBox="0 0 125.5 50.4" style="enable-background:new 0 0 125.5 50.4;" xml:space="preserve">
 <style type="text/css">
  .st0{fill:#165C7D;}
 </style>
 <g>
  <g transform="translate(0 -.63)">
   <path class="st0" d="M13.3,25.5c-0.1-0.1-0.2-0.1-0.4-0.2c-0.2,0-0.4-0.1-0.6-0.1c-0.2,0-6.2,0-6.7,0c-0.4,0-0.7-0.1-0.8-0.4
			c0-0.1-0.1-0.2-0.1-0.3c0-0.1,0-0.3,0-0.4v-0.3c0-0.2,0-0.2,0-0.4c0-0.1,0-0.4,0-0.5V8.4c0-0.2-0.1-0.4-0.2-0.6
			C4.5,7.7,4.3,7.6,4.1,7.6c-0.2,0-3.3,0-3.5,0c-0.2,0-0.4,0.2-0.5,0.3C0.1,8,0,8.2,0,8.3c0,0.2,0,19.9,0,20.1c0,0.2,0,0.3,0.1,0.5
			c0.1,0.2,0.3,0.3,0.5,0.3c0.2,0,11.9,0,12.1,0c0.2,0,0.4,0,0.5-0.1c0.1-0.1,0.2-0.2,0.3-0.3c0-0.1,0.1-0.2,0-0.4
			c0-0.1,0-2.2,0-2.4C13.5,25.8,13.4,25.6,13.3,25.5z M21.7,26.4c-1.7,0-3.7-1.4-3.7-5c0-3.7,2-5.1,4.1-5.1c2,0,3.7,1.8,3.7,5.1
			C25.7,25.6,23.3,26.4,21.7,26.4z M21.8,13.2h-0.1c-6.6,0-8,5.5-8,8.1v0c-0.1,1.2,0.3,2.8,0.7,3.8c1,2.3,3.3,4.6,7.4,4.6
			c4.2,0,8.1-2.6,8.1-8.3v0C30,18.7,28.3,13.2,21.8,13.2L21.8,13.2z M38.9,25.5c-2,0-3.5-1.6-3.5-5c0-2.8,1.7-4.2,3.5-4.2
			c1.6,0,3.7,1.4,3.7,4.3C42.6,23.7,41.1,25.5,38.9,25.5z M46.4,13.7c-0.1-0.1-0.3-0.2-0.4-0.2c-0.2,0-2.5,0-2.7,0
			c-0.2,0-0.3,0.1-0.4,0.1c-0.1,0.1-0.1,0.2-0.2,0.3c0,0.1,0,0.1,0,0.2c-0.1,0.4-0.2,0.7-0.5,0.7c-0.1,0-0.3-0.1-0.4-0.2
			c-0.6-0.5-1.5-1.6-4-1.6c-5.3,0-6.6,5-6.7,6.9c0,0,0,0.5,0,0.8c0,5.6,3.1,8,6.8,8c1.7,0,3.5-0.9,3.8-1.4c0,0,0.1-0.1,0.1-0.1
			c0.1-0.1,0.1-0.1,0.2-0.1c0.1,0,0.3,0,0.4,0c0.2,0.1,0.2,0.4,0.2,0.7c0,0-0.1,1.4-0.2,1.6c-0.1,0.8-0.7,2.5-3,2.8
			c-1.8,0.2-2.9-0.5-3.6-1.8c-0.1-0.2-0.4-0.3-0.6-0.3c-0.1,0-2.7,0-2.9,0c-0.2,0-0.3,0.1-0.5,0.3c-0.1,0.1-0.1,0.3-0.1,0.6
			c0.5,2,2.8,4.1,6.9,4.1h0.1c6.2,0,7.9-3.5,7.9-7.2c0,0,0-13.4,0-13.7S46.6,13.8,46.4,13.7z M83.9,19.4c-0.1,0.2-0.3,0.2-0.6,0.3
			c-0.3,0-4.8,0-5.1,0s-0.5,0-0.7-0.2c-0.1-0.1-0.2-0.2-0.2-0.3c0-0.1,0-0.3,0-0.4c0.1-0.7,1.1-2.6,3.5-2.6c2.1,0,2.9,1.8,3.1,2.4
			C84,19,84,19.2,83.9,19.4z M80.6,13.1c-5.6,0.2-7.7,5-7.7,8.2c0,1.9,0.8,8.2,8.1,8.2c5.3,0,6.7-3.9,6.9-4.4c0-0.1,0.1-0.2,0-0.4
			c0,0,0-0.1,0-0.1c0-0.2-0.2-0.3-0.3-0.3h-2.6c-0.2,0-0.5,0.1-0.7,0.4c-0.1,0.1-0.1,0.2-0.2,0.3c-0.4,0.4-1.2,1.4-3,1.4
			c-2.9,0-3.8-2-3.9-3c0-0.1,0-0.2,0-0.2c0-0.3,0.2-0.6,0.5-0.8c0.1,0,0.2-0.1,0.3-0.1c0.1,0,8.9,0,9.1,0c0.2,0,0.4,0,0.6-0.1
			c0.2,0,0.3-0.1,0.4-0.2c0.1-0.1,0.2-0.2,0.2-0.4c0-0.2,0-0.6,0-0.8C88.5,17.9,86.3,13,80.6,13.1L80.6,13.1z M122.9,3.2
			C122.9,3.2,122.9,3.1,122.9,3.2l0-0.1c0,0,0,0,0,0c0,0,0,0,0,0c0,0,0,0,0.1,0l0,0c0,0,0,0,0,0h0.2c0.1,0,0.1,0,0.2,0
			c0.1,0,0.1,0,0.2,0c0,0,0.1,0.1,0.1,0.1c0,0,0,0.1,0,0.1c0,0,0,0.1,0,0.1c0,0,0,0.1-0.1,0.1c0,0-0.1,0.1-0.1,0.1c0,0-0.1,0-0.1,0
			c0,0-0.1,0-0.2,0l-0.2,0l-0.1,0c0,0-0.1,0-0.1,0c0,0,0-0.1,0-0.1L122.9,3.2C122.9,3.2,122.9,3.2,122.9,3.2L122.9,3.2z M122.6,4.6
			C122.6,4.6,122.6,4.6,122.6,4.6C122.6,4.7,122.6,4.7,122.6,4.6c0.1,0.1,0.1,0.1,0.1,0.1c0,0,0.1,0,0.1,0c0,0,0,0,0.1,0
			c0,0,0,0,0,0c0,0,0-0.1,0-0.1c0,0,0-0.1,0-0.1V4.1c0,0,0-0.1,0-0.1c0,0,0-0.1,0-0.1c0,0,0,0,0,0c0,0,0,0,0.1,0h0c0,0,0.1,0,0.1,0
			c0,0,0,0,0.1,0c0,0,0.1,0.1,0.1,0.1c0,0,0,0.1,0.1,0.1l0.3,0.5c0,0,0,0.1,0.1,0.1c0,0,0,0.1,0.1,0.1c0,0,0,0,0,0c0,0,0,0,0,0
			c0,0,0.1,0,0.1,0c0,0,0,0,0,0c0,0,0,0,0,0c0,0,0,0,0-0.1c0,0,0,0,0-0.1l0-0.1L123.7,4c0,0,0,0,0-0.1c0,0,0,0,0-0.1l0,0
			c0,0,0,0,0,0c0,0,0,0,0-0.1c0,0,0,0,0.1,0c0,0,0,0,0.1,0c0,0,0,0,0.1,0c0.1,0,0.1-0.1,0.1-0.1c0,0,0.1-0.1,0.1-0.2
			c0,0,0-0.1,0-0.1c0,0,0-0.1,0-0.1v0l0-0.1c0-0.1-0.1-0.2-0.1-0.2c0,0-0.1-0.1-0.1-0.1c-0.1-0.1-0.2-0.1-0.3-0.1
			c-0.1,0-0.3,0-0.4,0h-0.5c0,0,0,0,0,0l0,0c0,0,0,0-0.1,0c0,0,0,0,0,0.1v1.6V4.6C122.6,4.5,122.6,4.5,122.6,4.6
			C122.6,4.6,122.6,4.6,122.6,4.6z M123.2,2c0.9,0,1.7,0.8,1.7,1.7c0,0.9-0.7,1.7-1.7,1.7c-0.9,0-1.7-0.7-1.7-1.7
			C121.5,2.8,122.3,2,123.2,2C123.2,2,123.2,2,123.2,2z M123.2,5.7c1.1,0,2-0.9,2-2c0-1.1-0.9-2-2-2c-1.1,0-2,0.9-2,2
			C121.2,4.8,122.1,5.7,123.2,5.7z M119.1,28.7c0,0.4-0.2,0.6-0.4,0.7c-0.3,0.1-3,0-3.2,0c-0.2,0-0.3-0.1-0.4-0.3
			c-0.1-0.1-0.1-0.3-0.1-0.5c0-0.2,0-7.3,0-7.3c0-0.8,0-1.4-0.1-2.1c-0.1-0.6-0.4-2.6-2.8-2.6c-2.2,0-2.9,1.8-3.1,2.6
			c-0.1,1-0.2,2-0.2,3v6.2c0,0.2,0,0.3-0.1,0.5c-0.1,0.2-0.3,0.3-0.5,0.4c-0.3,0.1-2.8,0.1-3,0c-0.2,0-0.4-0.1-0.5-0.2
			c-0.1-0.2-0.2-0.4-0.2-0.8c0-0.3,0-13.8,0-13.9c0-0.2,0.1-0.3,0.2-0.5c0.1-0.2,0.4-0.2,0.9-0.2l1.7,0c0.5,0,1.1,0,1.2,0.5
			c0,0.1,0.1,1,0.5,1.1c0.1,0,0.2-0.1,0.3-0.2c0,0,0.6-0.7,1.1-0.9c1.6-1,4.4-1.1,6.1-0.3c0.8,0.4,1.5,1,1.9,1.7
			c0.5,0.8,0.8,2.2,0.8,3.5C119.1,19.4,119.1,28.3,119.1,28.7L119.1,28.7z M101.3,29.1c-0.1,0.1-0.3,0.3-0.6,0.3c-0.3,0-3.1,0-3.3,0
			c-0.2,0-0.3-0.1-0.5-0.2c-0.1-0.1-0.2-0.3-0.2-0.5c0-0.2,0-0.4,0-0.6c0,0,0-18.8,0-19.2c0-0.4,0-0.7,0.1-0.8
			c0.1-0.1,0.3-0.3,0.6-0.3c0.1,0,3.2,0,3.4,0c0.2,0,0.4,0.1,0.5,0.2c0.1,0.2,0.2,0.4,0.2,0.5c0,0.2,0,19.4,0,19.8
			C101.5,28.7,101.4,28.9,101.3,29.1z M107.5,0.6c-10,0-18,8.1-18,18c0,10,8.1,18,18,18c10,0,18-8.1,18-18
			C125.5,8.7,117.4,0.6,107.5,0.6z M70.9,7.6h-5.2c-0.2,0-0.3,0-0.5,0.2c-0.2,0.1-0.3,0.2-0.3,0.4l-0.2,0.5
			c-0.1,0.3-4.2,12.9-4.2,12.9c-0.1,0.2-0.2,0.3-0.3,0.3c-0.2,0-0.4-0.4-0.6-1.1c-0.1-0.3-4.2-12.4-4.3-12.5c0-0.2-0.2-0.3-0.3-0.4
			c-0.2-0.1-0.4-0.2-0.8-0.2c-0.3,0-5,0-5.1,0c0,0-0.1,0-0.1,0c-0.2,0.1-0.4,0.2-0.5,0.3c0,0.1-0.1,0.2-0.1,0.3c0,0.2,0,0.3,0,0.5
			v19.2c0,0.2,0,0.4,0,0.6c0,0.2,0.1,0.4,0.2,0.5c0.1,0.1,0.3,0.2,0.5,0.2c0.2,0,2.5,0,2.7,0c0.2,0,0.3,0,0.5,0
			c0.2,0,0.4-0.1,0.5-0.3c0.1-0.1,0.1-0.3,0.1-0.4l0-12.7c0-0.1,0.1-0.4,0.2-0.4c0.1,0,0.1,0,0.2,0.1c0,0,0.1,0.1,0.1,0.1
			c0.1,0.2,0.2,0.4,0.3,0.7c0,0,4.3,12.1,4.3,12.3c0.2,0.4,0.4,0.7,0.8,0.7l2.7,0c0.3,0,0.5-0.3,0.6-0.5c0.9-2.2,3.7-11.1,4.5-13
			c0.1-0.2,0.2-0.4,0.3-0.4c0,0,0.2-0.1,0.2-0.1c0.1,0,0.1,0.1,0.2,0.2c0,0.2,0,0.5,0,0.6c0,0.2,0,11.9,0,11.9v0.5
			c0,0.2,0,0.3,0.1,0.4c0.1,0.1,0.3,0.3,0.7,0.3c0,0,2.7,0,2.9,0c0.2,0,0.3-0.1,0.5-0.2c0.1-0.1,0.2-0.3,0.2-0.5
			c0-0.2,0-19.8,0-20.2c0-0.3-0.1-0.6-0.3-0.7C71.2,7.6,71.1,7.6,70.9,7.6z">
   </path>
  </g>
  <g transform="translate(48 39.37)">
   <path class="st0" d="M73.9,9.7c0-0.1-0.1-0.2-0.2-0.3C73.4,9.1,73,9,72.7,9.2c-0.1,0-0.2,0.1-0.3,0.2c-0.4,0.4-0.4,1,0,1.4
			c0.1,0.1,0.2,0.2,0.3,0.2c0.1,0,0.2,0.1,0.4,0.1c0.1,0,0.3,0,0.4-0.1c0.1,0,0.2-0.1,0.3-0.2c0.2-0.2,0.3-0.4,0.3-0.7
			C74,9.9,74,9.8,73.9,9.7L73.9,9.7z M70.4,7.5c-0.2-0.1-0.4-0.3-0.6-0.3C69.6,7,69.4,7,69.2,6.9c-0.2-0.1-0.4-0.1-0.6-0.2
			c-0.2-0.1-0.4-0.1-0.6-0.2c-0.1-0.1-0.3-0.2-0.4-0.3c-0.1-0.1-0.2-0.3-0.2-0.4c0-0.1,0-0.2,0.1-0.3c0.1-0.1,0.1-0.2,0.2-0.3
			C67.9,5.1,68,5,68.1,5c0.2,0,0.3-0.1,0.5-0.1c0.2,0,0.4,0,0.6,0.1c0.2,0,0.3,0.1,0.4,0.2c0.1,0.1,0.2,0.1,0.3,0.2
			c0.1,0,0.2,0.1,0.3,0.1c0.1,0,0.1,0,0.2,0c0.1,0,0.1-0.1,0.1-0.1l0.3-0.5c-0.3-0.3-0.6-0.5-1-0.6c-0.4-0.2-0.8-0.2-1.3-0.2
			c-0.4,0-0.8,0.1-1.1,0.2c-0.3,0.1-0.6,0.3-0.8,0.5c-0.2,0.2-0.4,0.4-0.5,0.7C66.1,5.3,66,5.6,66,5.9c0,0.3,0.1,0.6,0.2,0.8
			c0.1,0.2,0.2,0.4,0.4,0.5c0.2,0.1,0.4,0.3,0.6,0.4c0.2,0.1,0.4,0.2,0.6,0.3C68,7.9,68.2,8,68.4,8c0.2,0.1,0.4,0.1,0.6,0.2
			c0.2,0.1,0.3,0.2,0.4,0.3c0.1,0.1,0.2,0.3,0.2,0.4c0,0.3-0.1,0.5-0.3,0.7c-0.1,0.1-0.3,0.2-0.4,0.2c-0.2,0.1-0.3,0.1-0.6,0.1
			c-0.3,0-0.5,0-0.7-0.1c-0.2-0.1-0.3-0.1-0.5-0.2c-0.1-0.1-0.2-0.1-0.3-0.2c-0.1-0.1-0.2-0.1-0.3-0.1c-0.1,0-0.2,0-0.2,0.1
			c-0.1,0-0.1,0.1-0.2,0.2l-0.3,0.6c0.1,0.1,0.3,0.2,0.5,0.3c0.2,0.1,0.4,0.2,0.6,0.3c0.4,0.2,0.9,0.2,1.3,0.2
			c0.4,0,0.8-0.1,1.2-0.2c0.3-0.1,0.6-0.3,0.9-0.5c0.2-0.2,0.4-0.4,0.5-0.7c0.1-0.3,0.2-0.6,0.2-0.9c0-0.3-0.1-0.5-0.2-0.7
			C70.7,7.8,70.6,7.6,70.4,7.5L70.4,7.5z M64.4,7.5c-0.2-0.1-0.4-0.3-0.6-0.3C63.6,7,63.4,7,63.2,6.9c-0.2-0.1-0.4-0.1-0.6-0.2
			c-0.2-0.1-0.4-0.1-0.6-0.2c-0.1-0.1-0.3-0.2-0.4-0.3c-0.1-0.1-0.2-0.3-0.2-0.4c0-0.1,0-0.2,0.1-0.3c0.1-0.1,0.1-0.2,0.2-0.3
			C61.9,5.1,62,5,62.2,5c0.1,0,0.3-0.1,0.5-0.1c0.2,0,0.4,0,0.6,0.1c0.2,0,0.3,0.1,0.4,0.2c0.1,0.1,0.2,0.1,0.3,0.2
			c0.1,0,0.2,0.1,0.3,0.1c0.1,0,0.1,0,0.2,0c0.1,0,0.1-0.1,0.1-0.1l0.3-0.5c-0.3-0.3-0.6-0.5-1-0.6c-0.4-0.2-0.8-0.2-1.3-0.2
			c-0.4,0-0.8,0.1-1.1,0.2c-0.3,0.1-0.6,0.3-0.8,0.5c-0.4,0.4-0.7,0.9-0.7,1.5c0,0.3,0.1,0.6,0.2,0.8c0.1,0.2,0.2,0.4,0.4,0.5
			c0.2,0.1,0.4,0.3,0.6,0.4c0.2,0.1,0.4,0.2,0.6,0.3C62,7.9,62.3,8,62.5,8c0.2,0.1,0.4,0.1,0.6,0.2c0.2,0.1,0.3,0.2,0.4,0.3
			c0.1,0.1,0.2,0.3,0.2,0.4c0,0.1,0,0.3-0.1,0.4c-0.1,0.1-0.1,0.2-0.2,0.3c-0.1,0.1-0.3,0.2-0.4,0.2c-0.2,0.1-0.3,0.1-0.6,0.1
			c-0.3,0-0.5,0-0.7-0.1c-0.2-0.1-0.3-0.1-0.5-0.2c-0.1-0.1-0.2-0.1-0.3-0.2c-0.1-0.1-0.2-0.1-0.3-0.1c-0.1,0-0.2,0-0.2,0.1
			c-0.1,0-0.1,0.1-0.2,0.2l-0.3,0.6c0.1,0.1,0.3,0.2,0.5,0.3c0.2,0.1,0.4,0.2,0.6,0.3s0.4,0.1,0.6,0.2c0.2,0,0.5,0.1,0.7,0.1
			c0.4,0,0.8-0.1,1.2-0.2c0.3-0.1,0.6-0.3,0.9-0.5c0.2-0.2,0.4-0.4,0.5-0.7C64.9,9.3,65,9,65,8.7c0-0.3-0.1-0.5-0.2-0.7
			C64.7,7.8,64.6,7.6,64.4,7.5L64.4,7.5z M54.2,6.6c0.1-0.6,0.3-1,0.6-1.3c0.3-0.3,0.7-0.5,1.3-0.5c0.3,0,0.5,0,0.7,0.1
			c0.2,0.1,0.4,0.2,0.5,0.4c0.1,0.2,0.2,0.3,0.3,0.6c0.1,0.2,0.1,0.4,0.1,0.7L54.2,6.6L54.2,6.6z M58.2,4.6
			c-0.3-0.3-0.6-0.5-0.9-0.6c-0.4-0.1-0.8-0.2-1.2-0.2c-0.5,0-1,0.1-1.4,0.3c-0.4,0.2-0.7,0.4-1,0.7c-0.3,0.3-0.5,0.7-0.7,1.1
			c-0.2,0.4-0.2,0.9-0.2,1.4c0,0.6,0.1,1.1,0.3,1.6c0.2,0.5,0.4,0.9,0.7,1.2c0.3,0.3,0.7,0.6,1.1,0.7c0.4,0.2,0.9,0.2,1.3,0.2
			c0.2,0,0.5,0,0.8-0.1s0.5-0.1,0.8-0.2c0.2-0.1,0.5-0.2,0.7-0.3c0.2-0.1,0.4-0.3,0.6-0.5l-0.4-0.5c-0.1-0.1-0.2-0.1-0.3-0.1
			c-0.1,0-0.2,0-0.3,0.1c-0.1,0.1-0.3,0.1-0.4,0.2c-0.2,0.1-0.4,0.2-0.5,0.2c-0.2,0.1-0.5,0.1-0.7,0.1c-0.3,0-0.6,0-0.8-0.1
			c-0.2-0.1-0.5-0.2-0.6-0.4c-0.2-0.2-0.3-0.5-0.4-0.7c-0.1-0.3-0.2-0.7-0.2-1h4.5c0.1,0,0.2,0,0.3-0.1C59,7.3,59,7.2,59,6.9
			c0-0.5-0.1-0.9-0.2-1.3C58.6,5.2,58.4,4.9,58.2,4.6z M49.8,10.9h1.5V0.8h-1.5V10.9z M48.2,9.5c0,0-0.1,0-0.1,0
			c0,0-0.1,0.1-0.2,0.1c-0.1,0-0.1,0.1-0.2,0.1c-0.1,0-0.2,0-0.3,0c-0.2,0-0.4-0.1-0.5-0.2c-0.1-0.1-0.2-0.3-0.2-0.6v-4h1.9V4h-1.9
			V1.7h-0.8c-0.1,0-0.2,0-0.2,0.1c-0.1,0.1-0.1,0.1-0.1,0.2l-0.3,2l-1.1,0.2v0.6c0,0.1,0,0.2,0.1,0.2c0.1,0.1,0.1,0.1,0.2,0.1h0.8
			v4.1c0,0.6,0.2,1.1,0.5,1.4C46,10.8,46.5,11,47,11c0.3,0,0.6-0.1,1-0.2c0.3-0.1,0.6-0.3,0.8-0.5l-0.4-0.7
			C48.3,9.6,48.2,9.5,48.2,9.5z M42.9,1.1C42.8,1,42.7,1,42.6,0.9c-0.1-0.1-0.3-0.1-0.4-0.1c-0.1,0-0.3,0-0.4,0.1
			c-0.4,0.2-0.6,0.5-0.6,0.9c0,0.1,0,0.3,0.1,0.4c0.1,0.1,0.1,0.2,0.2,0.3c0.1,0.1,0.2,0.2,0.3,0.2c0.2,0.1,0.5,0.1,0.8,0
			c0.2-0.1,0.4-0.3,0.5-0.5c0.1-0.1,0.1-0.2,0.1-0.4c0-0.1,0-0.3-0.1-0.4C43.1,1.3,43,1.2,42.9,1.1L42.9,1.1z M41.5,10.9h1.5v-7
			h-1.5L41.5,10.9L41.5,10.9z M39.1,4.5c-0.2-0.2-0.5-0.4-0.7-0.5c-0.3-0.1-0.7-0.2-1-0.2c-0.2,0-0.5,0-0.7,0.1
			C36.4,3.9,36.2,4,36,4.1c-0.2,0.1-0.4,0.2-0.5,0.4c-0.2,0.2-0.3,0.4-0.4,0.6C35,5,34.9,4.8,34.8,4.6c-0.1-0.2-0.2-0.3-0.4-0.4
			C34.3,4.1,34.1,4,34,3.9c-0.2-0.1-0.4-0.1-0.6-0.1c-0.2,0-0.4,0-0.6,0.1c-0.2,0.1-0.3,0.1-0.5,0.2c-0.2,0.1-0.3,0.2-0.4,0.3
			c-0.1,0.1-0.3,0.3-0.4,0.4l-0.1-0.6c-0.1-0.2-0.2-0.3-0.4-0.3H30v7h1.5V5.7c0.2-0.2,0.4-0.4,0.6-0.6C32.4,5,32.6,5,32.9,5
			c0.4,0,0.7,0.1,0.9,0.4c0.2,0.2,0.3,0.6,0.3,1.1v4.4h1.5V6.4c0-0.2,0-0.5,0.1-0.6c0.1-0.2,0.2-0.3,0.3-0.5s0.3-0.2,0.4-0.3
			C36.6,5,36.8,5,37,5c0.4,0,0.7,0.1,0.9,0.4c0.2,0.2,0.3,0.6,0.3,1.1v4.4h1.5V6.4c0-0.4-0.1-0.8-0.2-1.1C39.4,5,39.3,4.7,39.1,4.5
			L39.1,4.5z M26.7,10.9h1.5v-7h-1.5V10.9z M28.1,1.1C28.1,1,27.9,1,27.8,0.9c-0.2-0.1-0.5-0.1-0.8,0c-0.2,0.1-0.4,0.3-0.5,0.5
			c-0.1,0.2-0.1,0.5,0,0.8c0.1,0.2,0.3,0.4,0.5,0.5c0.2,0.1,0.5,0.1,0.8,0c0.1-0.1,0.2-0.1,0.3-0.2c0.1-0.1,0.2-0.2,0.2-0.3
			c0.1-0.1,0.1-0.2,0.1-0.4c0-0.1,0-0.3-0.1-0.4C28.3,1.3,28.2,1.2,28.1,1.1L28.1,1.1z M21.5,1h-1.6v9.8h5.7V9.6h-4.1V1L21.5,1z
			 M10,6.6c0.1-0.6,0.3-1,0.6-1.3c0.3-0.3,0.7-0.5,1.3-0.5c0.3,0,0.5,0,0.7,0.1c0.2,0.1,0.4,0.2,0.5,0.4c0.1,0.2,0.2,0.3,0.3,0.6
			c0.1,0.2,0.1,0.4,0.1,0.7C13.5,6.6,10,6.6,10,6.6z M14,4.6C13.7,4.4,13.4,4.1,13,4c-0.4-0.1-0.8-0.2-1.2-0.2c-0.5,0-1,0.1-1.4,0.3
			c-0.4,0.2-0.7,0.4-1,0.7C9.1,5.1,8.9,5.5,8.8,5.9C8.6,6.3,8.5,6.8,8.5,7.3c0,0.6,0.1,1.1,0.3,1.6C9,9.3,9.2,9.7,9.5,10
			c0.3,0.3,0.7,0.6,1.1,0.7c0.4,0.2,0.9,0.2,1.3,0.2c0.2,0,0.5,0,0.8-0.1s0.5-0.1,0.8-0.2c0.2-0.1,0.5-0.2,0.7-0.3
			c0.2-0.1,0.4-0.3,0.6-0.5l-0.4-0.5c-0.1-0.1-0.2-0.1-0.3-0.1c-0.1,0-0.2,0-0.3,0.1c-0.1,0.1-0.3,0.1-0.4,0.2
			c-0.2,0.1-0.4,0.2-0.5,0.2c-0.2,0.1-0.5,0.1-0.7,0.1c-0.3,0-0.6,0-0.8-0.1c-0.2-0.1-0.5-0.2-0.6-0.4c-0.2-0.2-0.3-0.5-0.4-0.7
			c-0.1-0.3-0.2-0.7-0.2-1h4.5c0.1,0,0.2,0,0.3-0.1c0.1-0.1,0.1-0.2,0.1-0.5c0-0.5-0.1-0.9-0.2-1.3C14.5,5.2,14.3,4.9,14,4.6z
			 M5.8,8.6C5.8,8.8,5.6,9,5.5,9.2C5.3,9.3,5.1,9.4,4.9,9.5C4.6,9.6,4.3,9.6,4,9.6H2V6.5h2c0.7,0,1.2,0.1,1.5,0.4
			C5.8,7.2,5.9,7.5,5.9,8C5.9,8.2,5.9,8.4,5.8,8.6L5.8,8.6z M2,2.3h1.7c0.7,0,1.2,0.1,1.5,0.4c0.3,0.2,0.5,0.6,0.5,1.2
			c0,0.5-0.2,0.9-0.5,1.1C4.8,5.2,4.3,5.4,3.6,5.4H2V2.3z M5.4,5.8C5.7,5.7,6,5.6,6.2,5.4c0.2-0.2,0.4-0.3,0.6-0.5
			C6.9,4.7,7,4.5,7.1,4.3c0.1-0.2,0.1-0.4,0.1-0.7c0-0.4-0.1-0.8-0.2-1.1C6.9,2.2,6.6,2,6.4,1.7C6.1,1.5,5.7,1.3,5.3,1.2
			C4.8,1.1,4.3,1,3.6,1H0.4v9.8H4c0.6,0,1.1-0.1,1.5-0.2c0.4-0.1,0.8-0.3,1.1-0.6c0.3-0.3,0.5-0.6,0.7-0.9C7.4,8.8,7.5,8.4,7.5,8
			C7.5,6.8,6.8,6.1,5.4,5.8z">
   </path>
  </g>
 </g>
</svg>