<svg version="1.1" id="Layer_1" xmlns:x="ns_extend;" xmlns:i="ns_ai;" xmlns:graph="ns_graphs;" xmlns="http://www.w3.org/2000/svg" xmlns:xlink="http://www.w3.org/1999/xlink" x="0px" y="0px" viewBox="0 0 205.3 62" style="enable-background:new 0 0 205.3 62;" xml:space="preserve">
 <style type="text/css">
  .st0{fill:#222222;}
	.st1{fill:#625DF5;}
 </style>
 <metadata>
  <sfw xmlns="ns_sfw;">
   <slices>
   </slices>
   <sliceSourceBounds bottomLeftOrigin="true" height="61.9" width="205.1" x="0" y="0.1">
   </sliceSourceBounds>
  </sfw>
 </metadata>
 <g>
  <path class="st0" d="M78.6,53.6V8.3h8.3v45.3H78.6z">
  </path>
  <path class="st0" d="M158.3,22.8h7.9v3.8c1.7-3,5.6-4.6,9-4.6c4.2,0,7.6,1.8,9.1,5.1c2.4-3.8,5.7-5.1,9.7-5.1
		c5.7,0,11.1,3.4,11.1,11.7v19.9H197V35.3c0-3.3-1.6-5.8-5.4-5.8c-3.6,0-5.7,2.8-5.7,6.1v18h-8.2V35.3c0-3.3-1.7-5.8-5.4-5.8
		c-3.6,0-5.8,2.7-5.8,6.1v18h-8.3L158.3,22.8L158.3,22.8z">
  </path>
  <path class="st0" d="M105.7,54.5c-9.4,0-16.1-6.9-16.1-16.3c0-9.2,6.8-16.3,16.1-16.3c9.4,0,16.1,7.2,16.1,16.3
		C121.9,47.4,115.1,54.5,105.7,54.5z M105.7,29.4c-4.8,0-8.8,3.9-8.8,8.8c0,4.8,3.9,8.8,8.8,8.8c4.8,0,8.8-3.9,8.8-8.8
		C114.5,33.4,110.5,29.4,105.7,29.4z">
  </path>
  <path class="st0" d="M139.6,54.5c-9.4,0-16.1-6.9-16.1-16.3c0-9.2,6.8-16.3,16.1-16.3c9.4,0,16.1,7.2,16.1,16.3
		C155.7,47.4,149,54.5,139.6,54.5z M139.6,29.3c-4.9,0-8.9,4-8.9,8.9s4,8.9,8.9,8.9s8.9-4,8.9-8.9S144.5,29.3,139.6,29.3z">
  </path>
  <path class="st1" d="M61.9,27.5H43.8l15.7-9l-3.4-6l-15.7,9l9-15.7l-6-3.4l-9,15.7V0h-6.9v18.1l-9-15.7l-6,3.4l9,15.7l-15.7-9
		l-3.4,6l15.7,9H0v6.9h18.1l-15.7,9l3.4,6l15.7-9l-9,15.7l6,3.4l9-15.7v18.1h6.9V43.8l9,15.7l6-3.4l-9-15.7l15.7,9l3.4-6l-15.7-9
		h18.1V27.5L61.9,27.5z M30.9,40.3c-5.2,0-9.4-4.2-9.4-9.4s4.2-9.4,9.4-9.4s9.4,4.2,9.4,9.4S36.1,40.3,30.9,40.3z">
  </path>
 </g>
</svg>