<svg version="1.1" id="Layer_1" xmlns:x="ns_extend;" xmlns:i="ns_ai;" xmlns:graph="ns_graphs;" xmlns="http://www.w3.org/2000/svg" xmlns:xlink="http://www.w3.org/1999/xlink" x="0px" y="0px" viewBox="0 0 1102 278" style="enable-background:new 0 0 1102 278;" xml:space="preserve">
 <style type="text/css">
  .st0{fill:#00684A;}
 </style>
 <metadata>
  <sfw xmlns="ns_sfw;">
   <slices>
   </slices>
   <sliceSourceBounds bottomLeftOrigin="true" height="278" width="1102" x="0" y="0">
   </sliceSourceBounds>
  </sfw>
 </metadata>
 <g>
  <path class="st0" d="M82.3,28.6C71.5,15.8,62.2,2.8,60.4,0.1c-0.2-0.2-0.5-0.2-0.7,0c-1.9,2.7-11.2,15.7-22,28.5
		c-92.6,118.1,14.6,197.8,14.6,197.8l0.9,0.6c0.8,12.3,2.8,30,2.8,30h4h4c0,0,2-17.6,2.8-30l0.9-0.7
		C67.7,226.4,174.9,146.7,82.3,28.6z M60,224.6c0,0-4.8-4.1-6.1-6.2v-0.2l5.8-128.6c0-0.4,0.6-0.4,0.6,0L66,218.2v0.2
		C64.7,220.5,60,224.6,60,224.6z">
  </path>
  <path class="st0" d="M260.5,198.4L215.8,89.3l-0.1-0.3H181v7.3h5.6c1.7,0,3.3,0.7,4.5,1.9c1.2,1.2,1.8,2.8,1.8,4.5l-1,109.8
		c0,3.4-2.8,6.2-6.2,6.3L180,219v7.2h33.8V219l-3.5-0.1c-3.4-0.1-6.2-2.9-6.2-6.3V109.1l48.7,117.1c0.7,1.7,2.3,2.8,4.1,2.8
		c1.8,0,3.4-1.1,4.1-2.8l47.6-114.5l0.7,100.8c0,3.5-2.8,6.3-6.3,6.4h-3.6v7.2H339V219h-5.4c-3.4,0-6.2-2.9-6.3-6.3L327,102.9
		c0-3.5,2.8-6.3,6.2-6.4l5.8-0.1V89h-33.8L260.5,198.4z">
  </path>
  <path class="st0" d="M571.9,217c-1.1-1.1-1.7-2.6-1.7-4.4v-53.9c0-10.3-3-18.3-9-24c-5.9-5.7-14.2-8.7-24.4-8.7
		c-14.4,0-25.7,5.8-33.6,17.3c-0.1,0.2-0.4,0.3-0.7,0.3c-0.3,0-0.5-0.2-0.5-0.5l-3.7-14.4H492l-16,9.2v5h4.1c1.9,0,3.5,0.5,4.6,1.5
		c1.1,1,1.7,2.5,1.7,4.6v63.5c0,1.8-0.6,3.3-1.7,4.4c-1.1,1.1-2.6,1.7-4.4,1.7h-4v7.3H513v-7.3h-4c-1.8,0-3.3-0.6-4.4-1.7
		c-1.1-1.1-1.7-2.6-1.7-4.4v-42.1c0-5.3,1.2-10.7,3.4-15.9c2.3-5.1,5.7-9.5,10.2-12.8c4.5-3.3,9.9-4.9,16.2-4.9
		c7,0,12.3,2.2,15.7,6.6c3.3,4.4,5,10.2,5,17v51.9c0,1.8-0.6,3.3-1.7,4.4s-2.6,1.7-4.4,1.7h-4v7.3H580v-7.3h-4
		C574.5,218.8,573.1,218.2,571.9,217z">
  </path>
  <path class="st0" d="M907.5,97.2C897.4,91.8,886,89,873.8,89H826v7.3h4.7c1.8,0,3.4,0.7,5,2.3c1.5,1.5,2.3,3.2,2.3,5v107.8
		c0,1.8-0.8,3.5-2.3,5c-1.5,1.5-3.2,2.3-5,2.3H826v7.3h47.8c12.2,0,23.6-2.8,33.8-8.2c10.2-5.4,18.4-13.4,24.4-23.6
		c6-10.2,9.1-22.5,9.1-36.6c0-14-3.1-26.2-9.1-36.6C925.9,110.6,917.7,102.7,907.5,97.2z M921.8,157.4c0,12.8-2.3,23.6-6.8,32.3
		c-4.5,8.7-10.5,15.2-17.8,19.4c-7.4,4.2-15.5,6.3-24.3,6.3h-9.7c-1.8,0-3.4-0.7-5-2.3c-1.5-1.5-2.3-3.2-2.3-5V106.5
		c0-1.8,0.7-3.4,2.3-5c1.5-1.5,3.2-2.3,5-2.3h9.7c8.8,0,16.9,2.1,24.3,6.3c7.4,4.2,13.3,10.7,17.8,19.4
		C919.5,133.8,921.8,144.7,921.8,157.4z">
  </path>
  <path class="st0" d="M1054,164.7c-4.4-5.1-12.9-9.4-23-11.7c13.8-6.9,21-16.6,21-29.1c0-6.8-1.8-12.9-5.4-18.1
		c-3.6-5.2-8.7-9.4-15.2-12.3c-6.5-2.9-14.2-4.4-22.8-4.4h-54.1v7.3h4.3c1.8,0,3.4,0.7,5,2.3c1.5,1.5,2.3,3.2,2.3,5v107.8
		c0,1.8-0.8,3.5-2.3,5c-1.5,1.5-3.2,2.3-5,2.3H954v7.3h58.7c8.9,0,17.3-1.5,24.8-4.5c7.5-3,13.6-7.4,17.9-13.2
		c4.4-5.8,6.6-12.9,6.6-21.1C1061.9,178.3,1059.3,170.8,1054,164.7z M986.6,213.3c-1.5-1.5-2.3-3.2-2.3-5v-48.4h27.9
		c9.8,0,17.4,2.5,22.6,7.5c5.2,5,7.8,11.5,7.8,19.5c0,4.8-1.2,9.5-3.4,13.8c-2.3,4.4-5.7,7.9-10.3,10.6c-4.5,2.7-10.1,4.1-16.7,4.1
		h-20.6C989.8,215.5,988.2,214.8,986.6,213.3z M984.4,149.6v-43c0-1.8,0.7-3.4,2.3-5c1.5-1.5,3.2-2.3,5-2.3h13.2
		c9.5,0,16.6,2.4,21,7c4.4,4.7,6.6,10.7,6.6,18.1c0,7.6-2.1,13.7-6.2,18.3c-4.1,4.5-10.3,6.8-18.6,6.8H984.4z">
  </path>
  <path class="st0" d="M432,132.4c-7.7-4.2-16.2-6.4-25.5-6.4s-17.9,2.1-25.5,6.4c-7.7,4.2-13.7,10.3-18.2,18
		C358.3,158,356,167,356,177s2.3,19,6.8,26.6c4.5,7.7,10.6,13.8,18.2,18c7.7,4.2,16.2,6.4,25.5,6.4s17.9-2.1,25.5-6.4
		c7.7-4.2,13.7-10.3,18.2-18c4.5-7.7,6.8-16.7,6.8-26.6s-2.3-19-6.8-26.6C445.7,142.7,439.7,136.6,432,132.4z M439.4,177
		c0,12.3-3,22.3-9,29.4c-5.9,7.2-13.9,10.9-23.9,10.9c-10,0-18-3.7-23.9-10.9c-6-7.2-9-17.2-9-29.4s3-22.3,9-29.4
		c5.9-7.2,13.9-10.9,23.9-10.9c10,0,18,3.7,23.9,10.9C436.4,154.7,439.4,164.7,439.4,177z">
  </path>
  <path class="st0" d="M785,132.4c-7.7-4.2-16.2-6.4-25.5-6.4s-17.9,2.1-25.5,6.4c-7.7,4.2-13.7,10.3-18.2,18S709,167,709,177
		s2.3,19,6.8,26.6s10.6,13.8,18.2,18c7.7,4.2,16.2,6.4,25.5,6.4s17.9-2.1,25.5-6.4c7.7-4.2,13.7-10.3,18.2-18S810,187,810,177
		s-2.3-19-6.8-26.6S792.6,136.6,785,132.4z M792.4,177c0,12.3-3,22.3-9,29.4c-5.9,7.2-13.9,10.9-23.9,10.9c-10,0-18-3.7-23.9-10.9
		c-6-7.2-9-17.2-9-29.4c0-12.4,3-22.3,9-29.4c5.9-7.2,13.9-10.9,23.9-10.9c10,0,18,3.7,23.9,10.9C789.3,154.7,792.4,164.7,792.4,177
		z">
  </path>
  <path class="st0" d="M642.6,126c-8,0-15.3,1.7-22,5.1c-6.6,3.4-11.8,8-15.5,13.9c-3.7,5.8-5.6,12.3-5.6,19.3c0,6.2,1.4,11.9,4.3,17
		c2.8,4.9,6.6,9,11.4,12.4l-14.3,19.5c-1.8,2.4-2,5.6-0.7,8.2c1.4,2.7,4,4.3,7,4.3h4.1c-4,2.7-7.2,5.9-9.4,9.7
		c-2.6,4.3-3.9,8.8-3.9,13.4c0,8.6,3.8,15.7,11.3,21.1c7.4,5.3,17.9,8,31,8c9.1,0,17.9-1.5,25.8-4.4c8-2.9,14.5-7.2,19.4-12.8
		c4.9-5.6,7.4-12.4,7.4-20.3c0-8.2-3-14-10-19.7c-6-4.7-15.4-7.2-27.2-7.2h-40.1c-0.1,0-0.2-0.1-0.2-0.1s-0.1-0.2,0-0.3l10.4-14
		c2.8,1.3,5.4,2.1,7.7,2.6c2.4,0.5,5.1,0.7,8.1,0.7c8.4,0,16.1-1.7,22.7-5.1c6.6-3.4,11.9-8,15.8-13.9c3.8-5.8,5.7-12.3,5.7-19.2
		c0-7.4-3.6-21-13.4-27.9c0-0.1,0.1-0.1,0.1-0.1l21.6,2.4v-9.9h-34.5C654.1,127,648.5,126,642.6,126z M654.7,188.8
		c-3.8,2-7.9,3.1-12,3.1c-6.7,0-12.6-2.4-17.7-7.1c-5-4.7-7.5-11.6-7.5-20.5s2.5-15.7,7.5-20.5c5-4.7,10.9-7.1,17.7-7.1
		c4.2,0,8.2,1,12,3.1c3.8,2,6.9,5.1,9.4,9.2c2.4,4.1,3.7,9.2,3.7,15.2c0,6.1-1.2,11.2-3.7,15.2C661.7,183.7,658.5,186.8,654.7,188.8
		z M627.5,225.7h27.2c7.5,0,12.3,1.5,15.5,4.7c3.2,3.2,4.8,7.5,4.8,12.5c0,7.3-2.9,13.3-8.7,17.8c-5.8,4.5-13.6,6.8-23.3,6.8
		c-8.4,0-15.4-1.9-20.6-5.5c-5.1-3.6-7.7-9.1-7.7-16.1c0-4.4,1.2-8.5,3.6-12.1C620.8,230.2,623.7,227.6,627.5,225.7z">
  </path>
  <path class="st0" d="M1082.3,224.3c-2-1.1-3.5-2.7-4.7-4.5c-1.1-2-1.7-4-1.7-6.3s0.6-4.4,1.7-6.3c1.1-2,2.7-3.4,4.7-4.5
		c2-1.1,4.2-1.7,6.7-1.7s4.7,0.6,6.7,1.7c2,1.1,3.5,2.7,4.7,4.5c1.1,2,1.7,4,1.7,6.3s-0.6,4.4-1.7,6.3c-1.1,2-2.7,3.4-4.7,4.5
		c-2,1.1-4.2,1.7-6.7,1.7C1086.6,226,1084.3,225.5,1082.3,224.3z M1094.6,222.9c1.7-0.9,2.9-2.3,3.9-3.8c0.9-1.7,1.4-3.5,1.4-5.6
		s-0.5-3.9-1.4-5.6c-0.9-1.7-2.2-3-3.9-3.8c-1.7-0.9-3.5-1.4-5.6-1.4s-3.9,0.5-5.6,1.4c-1.7,0.9-2.9,2.3-3.9,3.8
		c-0.9,1.7-1.4,3.5-1.4,5.6s0.5,3.9,1.4,5.6c0.9,1.7,2.2,3,3.9,3.8c1.7,0.9,3.5,1.4,5.6,1.4S1093,223.8,1094.6,222.9z M1083.6,219.5
		v-0.9l0.2-0.1h0.6c0.2,0,0.4-0.1,0.5-0.2c0.2-0.2,0.2-0.3,0.2-0.5v-9.2c0-0.2-0.1-0.4-0.2-0.5c-0.2-0.2-0.3-0.2-0.5-0.2h-0.6
		l-0.2-0.1V207l0.2-0.1h5.2c1.5,0,2.6,0.3,3.5,1c0.9,0.7,1.3,1.6,1.3,2.8c0,0.9-0.3,1.8-1,2.4c-0.7,0.7-1.5,1.1-2.5,1.2l1.2,0.4
		l2.3,3.6c0.2,0.3,0.4,0.4,0.7,0.4h0.6l0.1,0.1v0.9l-0.1,0.1h-3.1l-0.2-0.1l-3.2-5.3h-0.8v3.5c0,0.2,0.1,0.4,0.2,0.5
		c0.2,0.2,0.3,0.2,0.5,0.2h0.6l0.2,0.1v0.9l-0.2,0.1h-5.3L1083.6,219.5z M1088.7,213c0.8,0,1.5-0.2,1.9-0.7c0.4-0.4,0.7-1.1,0.7-1.9
		c0-0.8-0.2-1.4-0.6-1.9c-0.4-0.5-1-0.7-1.7-0.7h-0.4c-0.2,0-0.4,0.1-0.5,0.2c-0.2,0.2-0.2,0.3-0.2,0.5v4.4H1088.7z">
  </path>
 </g>
</svg>