<svg version="1.1" id="Layer_1" xmlns:x="ns_extend;" xmlns:i="ns_ai;" xmlns:graph="ns_graphs;" xmlns="http://www.w3.org/2000/svg" xmlns:xlink="http://www.w3.org/1999/xlink" x="0px" y="0px" viewBox="0 0 349.8 44" style="enable-background:new 0 0 349.8 44;" xml:space="preserve">
 <style type="text/css">
  .st0{fill:#5F239F;}
 </style>
 <metadata>
  <sfw xmlns="ns_sfw;">
   <slices>
   </slices>
   <sliceSourceBounds bottomLeftOrigin="true" height="44" width="349.8" x="-278" y="-198.5">
   </sliceSourceBounds>
  </sfw>
 </metadata>
 <g>
  <g>
   <g>
    <path class="st0" d="M60.9,16.4c0-10-6.2-15.5-17.8-15.6l0,0H25.8v0L0.4,0C0.2,0,0,0.2,0,0.4l0.4,2.2C1.1,6,4.1,8.5,7.6,8.5
				l18.2,0.8v3.5L8.9,12c-0.2,0-0.4,0.2-0.4,0.4L9,14.9c0.7,3.4,3.7,5.9,7.2,5.9l9.6,0.4v3L18.6,24c-0.2,0-0.4,0.2-0.4,0.4l0.4,1.4
				c0.7,3.5,3.6,6.2,7.2,6.4v10.8h10V32h6.5l7.6,11.1h12.7l-9.6-13.2C58,27.6,60.9,23.1,60.9,16.4 M41.8,23.3h-6.1V9.8h6.4
				c5.6,0,7.8,2.4,7.8,7.1C49.9,20.4,47.6,23.3,41.8,23.3 M79.5,9.6c-4.6-0.2-9.1,1.5-12.4,4.8c-3.3,3.3-5,7.8-4.7,12.4
				c0,10.4,6.3,17.1,17.4,17.1c7.9,0,12.8-2.7,15.7-6.8l-6.3-5.3c-2.1,2.5-5.2,4-8.5,3.9c-4.5,0-7.1-2.1-8-5.9h23.5
				c0.1-0.8,0.1-2.3,0.1-2.9C96.3,16.7,90.7,9.6,79.5,9.6 M72.6,23.5c0.4-3.4,3.4-6,6.8-5.8c3.4-0.3,6.5,2.2,6.8,5.6
				c0,0.1,0,0.1,0,0.2H72.6z M123.6,12.8c-2.5-2.2-5.8-3.3-9.1-3.2c-9,0-15.1,6.7-15.1,17.2c0,10.4,6,17.1,15.5,17.1
				c3.3,0.2,6.6-1.1,8.9-3.5v2.7h9.9V10.5h-10.1 M123.8,31.3c-1.2,2.4-3.7,3.8-6.3,3.6c-4.7,0-7.5-3.1-7.5-8.2c0-5.3,3-8.1,7.3-8.1
				c2.6-0.1,5.1,1.2,6.5,3.5L123.8,31.3z M155.4,34.6c-4.1,0.2-7.6-2.9-7.8-7c0-0.3,0-0.7,0-1c-0.2-4,2.9-7.5,6.9-7.7
				c0.3,0,0.6,0,0.9,0c2.8,0,5.4,1.4,6.9,3.8l7.1-6.2c-2.8-4.1-7.9-6.8-14.7-6.8c-11.1,0-17.5,7.2-17.5,17c0,10.3,6.4,17,17.7,17
				c5.7,0.3,11.2-2.2,14.6-6.7l-7-6.2C161,33.2,158.3,34.6,155.4,34.6 M193.7,9.6c-3.5,0-6.8,1.2-9.5,3.4V0.3H174v42.8h10.3V21.4
				c1.4-1.7,3.5-2.7,5.7-2.7c4,0,5.5,2,5.5,7.6v16.8h10.3V23.3C205.9,13.6,202.4,9.6,193.7,9.6 M233.2,12.8
				c-2.5-2.2-5.8-3.3-9.1-3.2c-9,0-15.1,6.7-15.1,17.2c0,10.4,6,17.1,15.5,17.1c3.3,0.2,6.6-1.1,8.9-3.5v2.7h9.9V0.3h-10.1
				 M233.5,31.2c-1.2,2.4-3.7,3.8-6.3,3.6c-4.7,0-7.5-3.1-7.5-8.2c0-5.3,3-8.1,7.3-8.1c2.6-0.1,5.1,1.2,6.5,3.5L233.5,31.2z
				 M263.9,9.6c-4.6-0.2-9.1,1.5-12.4,4.8c-3.3,3.3-5,7.8-4.7,12.4c0,10.4,6.3,17.1,17.4,17.1c7.9,0,12.8-2.7,15.7-6.8l-6.3-5.3
				c-2.1,2.5-5.2,4-8.5,3.9c-4.5,0-7.1-2.1-8-5.9h23.5c0.1-0.8,0.1-2.3,0.1-2.9C280.7,16.7,275.1,9.6,263.9,9.6 M257.1,23.5
				c0.4-3.4,3.4-6,6.8-5.8c3.4-0.3,6.5,2.2,6.8,5.6c0,0.1,0,0.1,0,0.2H257.1z M300.2,22.8c-5.2-1.3-6.3-1.8-6.3-3.2s1.4-2,3.5-2
				c3.5,0.1,6.9,1,10.1,2.6l3.3-7.9c-4.2-1.7-8.8-2.6-13.3-2.6c-8.2,0-13.5,3.5-13.5,10.7c0,6.4,4.5,8.9,11.3,10.5
				c5.3,1.2,6.4,1.7,6.4,3.2c0,1.7-1.7,2.4-4.6,2.4c-3.7,0-7.3-1-10.4-2.8l-3,7.7c4.4,1.8,9.2,2.8,13.9,2.7c9,0,14.4-3.3,14.4-11.1
				C311.9,27.1,307.5,24.6,300.2,22.8">
    </path>
   </g>
  </g>
  <path class="st0" d="M316.1,0.3v42.8h10.2v-8.3l4.5-4.5l7.5,12.7h11.5l-11.6-19.7l11.4-12.9h-12.4l-11,12.5V0.3H316.1z">
  </path>
 </g>
</svg>