<svg version="1.1" id="Layer_1" xmlns:x="ns_extend;" xmlns:i="ns_ai;" xmlns:graph="ns_graphs;" xmlns="http://www.w3.org/2000/svg" xmlns:xlink="http://www.w3.org/1999/xlink" x="0px" y="0px" viewBox="0 0 330.2 66" style="enable-background:new 0 0 330.2 66;" xml:space="preserve">
 <metadata>
  <sfw xmlns="ns_sfw;">
   <slices>
   </slices>
   <sliceSourceBounds bottomLeftOrigin="true" height="66" width="330.2" x="271.7" y="-280.4">
   </sliceSourceBounds>
  </sfw>
 </metadata>
 <g>
  <path d="M24.4,21.6l0.3,1.2l-1.5,1c-1.2,0.8-1.8,1.8-1.8,3c0,1,0.3,2.1,0.9,3.9l6.3,19.9l5.8-15.7l-1.9-5.1
		c-1.2-3.2-2.4-5.3-4.3-6.9l0.3-1.2c7.6,0.5,14.5,0.5,22.2,0l0.3,1.2l-1.7,1.1c-1.2,0.7-1.6,1.5-1.6,2.7c0,1,0.3,2.1,0.9,3.9
		l6.6,20.1l5.3-13.9c0.7-1.8,0.9-3.1,0.9-4.7c0-3-1.8-5.9-5.7-9.1l0.3-1.2c5.5,0.4,11,0.4,16.5,0l0.3,1.2c-3.6,3.3-5.8,6.7-8.3,13.1
		l-11,28.8c-2.7-0.2-5.5-0.2-8.2,0l-9.1-24.7l-9,24.7c-2.8-0.2-5.8-0.2-8.5,0L5.4,30.1c-1.7-4.4-2.6-5.6-5.4-7.2l0.3-1.2
		C8.5,22.1,16.3,22.1,24.4,21.6z M93.4,66c-14.1,0-23.1-9-23.1-22.8s9.5-22.8,23.3-22.8c12.8,0,21.7,7.5,23,19.9H87
		c0.5,10.3,5.3,14.6,14,14.6c5.1,0,9.9-1.6,13.7-4.5l1.2,0.9C112.4,60.4,103.9,66,93.4,66z M86.9,37.2h14.1
		c-0.7-10.4-3.5-13.6-7.2-13.6C89.5,23.5,87,27.5,86.9,37.2L86.9,37.2z M139.2,21.6l0.3,1.2l-1.5,1c-1.2,0.8-1.8,1.8-1.8,3
		c0,1,0.3,2.1,0.9,3.9l6.3,19.9l5.8-15.7l-1.9-5.1c-1.2-3.2-2.4-5.3-4.3-6.9l0.3-1.2c7.6,0.5,14.5,0.5,22.2,0l0.3,1.2l-1.7,1.1
		c-1.2,0.7-1.6,1.5-1.6,2.7c0,1,0.3,2.1,0.9,3.9l6.6,20.1l5.3-13.9c0.7-1.8,0.9-3.1,0.9-4.7c0-3-1.8-5.9-5.7-9.1l0.3-1.2
		c5.5,0.4,11,0.4,16.5,0l0.3,1.2c-3.6,3.3-5.8,6.7-8.3,13.1l-11,28.8c-2.7-0.2-5.5-0.2-8.2,0L151,39.9l-9,24.7
		c-2.8-0.2-5.8-0.2-8.5,0l-13.2-34.6c-1.7-4.4-2.6-5.6-5.4-7.2l0.3-1.2C123.2,22.1,131,22.1,139.2,21.6L139.2,21.6z M209.7,20.5
		c14.3,0,24.7,9,24.7,22.8S223.8,66,209.5,66s-24.7-9-24.7-22.8S195.4,20.5,209.7,20.5z M202,41.6c0,13.8,2.5,21.2,8,21.2
		c4.4,0,7.2-3.6,7.2-17.9s-2.5-21.2-8-21.2C204.7,23.7,202,27.3,202,41.6L202,41.6z M235.2,64.8l-0.3-1.2l3.2-1.7
		c2.3-1.2,2.9-2.3,2.9-5.1V33c0-3.6-0.4-4.5-2.9-5.8l-3-1.5v-1.2l4.2-0.6c5.8-0.8,11.7-2.1,16.3-3.3l0.4,0.3v11.3
		c2.1-8.1,6.7-11.8,12.1-11.8c4.8,0,7.9,3,7.9,7.2s-2.9,6.8-6.7,6.8c-3.5,0-5.3-1.8-8.1-1.8c-3,0-5.2,1.6-5.2,7.9v16.4
		c0,2.8,0.6,3.9,3,5l3.5,1.7l-0.3,1.2C253.2,64.3,244.1,64.3,235.2,64.8L235.2,64.8z M295.3,42.1l10.6-9c2.1-1.9,3-3,3-4.3
		s-0.7-2.3-3.2-4l-2.8-1.9l0.3-1.2c7.6,0.5,15.6,0.5,23.2,0l0.3,1.2c-4.7,2.1-8.1,4.2-12.3,7.7l-6.3,5.3l16.5,23
		c1.6,2.2,3.2,3.5,5.7,4.7l-0.3,1.2c-8.1-0.5-17.2-0.5-25.2,0l-0.3-1.2c3.1-1.2,3.9-1.9,3.9-3c0-0.7-0.3-1.3-1.2-2.5l-9.5-13.5
		l-2.4,2v10.3c0,2.8,0.6,3.9,3,5.3l2.3,1.4l-0.3,1.2c-8.1-0.5-17.3-0.5-25.3,0l-0.3-1.2l3.2-1.7c2.3-1.2,2.9-2.3,2.9-5.1V12.3
		c0-3.6-0.4-4.5-2.9-5.8l-3-1.5V3.9l4.2-0.6c5.8-0.8,11.6-2.1,16.1-3.3l0.4,0.3L295.3,42.1L295.3,42.1z">
  </path>
 </g>
</svg>