<svg width="1100" height="220" viewBox="0 0 1100 220" fill="none" xmlns="http://www.w3.org/2000/svg" xmlns:xlink="http://www.w3.org/1999/xlink">
 <g clip-path="url(#clip0)">
  <path d="M691.208 191.096V136.359C691.208 103.285 720.298 103.865 735.517 106.379V69.0499C711.243 66.9223 696.795 73.6919 690.245 86.8443H689.475L689.667 69.6302H655.954V191.096H691.208Z" fill="black">
  </path>
  <path d="M838.003 191.096H859.965L896.182 145.256L926.812 191.096H967.653L919.492 120.692L961.681 69.4367H921.033L872.872 130.557H872.101L872.487 8.70374H838.003V191.096Z" fill="black">
  </path>
  <path d="M442.119 191.096H469.282L510.893 112.956L551.156 191.096H578.704L640.543 69.4367H599.51L561.559 146.997L525.534 69.4367H496.06L458.109 147.384L422.084 69.4367H381.051L442.119 191.096Z" fill="black">
  </path>
  <path d="M782.329 52.0292C794.245 52.0292 803.905 42.3305 803.905 30.3665C803.905 18.4025 794.245 8.70374 782.329 8.70374C770.413 8.70374 760.753 18.4025 760.753 30.3665C760.753 42.3305 770.413 52.0292 782.329 52.0292Z" fill="black">
  </path>
  <path d="M799.667 69.4368H764.991V191.096H799.667V69.4368Z" fill="black">
  </path>
  <path d="M1066.09 150.672C1061.86 157.055 1052.99 164.985 1038.16 164.985C1020.82 164.985 1008.49 154.927 1005.8 140.421H1100C1100 137.906 1100 134.232 1100 130.75C1100 95.5481 1074.76 67.3092 1037.39 67.3092C1000.79 67.3092 972.469 95.1612 972.469 130.75C972.469 166.145 1000.21 194.191 1037.39 194.191C1065.13 194.191 1081.89 183.166 1092.68 169.047L1066.09 150.672ZM1035.46 94.581C1051.45 94.581 1062.63 103.478 1066.48 116.244H1004.26C1008.11 103.478 1019.09 94.581 1035.46 94.581Z" fill="black">
  </path>
  <path d="M81.2957 79.8813C98.0558 79.8813 105.954 82.976 118.091 95.1613L183.205 160.536C185.131 162.47 185.516 163.244 185.902 164.405C186.094 164.791 186.094 165.372 186.094 165.759C186.094 166.145 186.094 166.726 185.902 167.112C185.516 168.273 185.131 169.047 183.205 170.981L138.704 215.854C136.777 217.788 136.007 218.175 134.851 218.561C134.466 218.755 133.888 218.755 133.502 218.755C133.117 218.755 132.539 218.755 132.154 218.561C130.998 218.175 130.227 217.788 128.301 215.854L2.11887 89.1653C-1.54138 85.4904 -0.192869 79.8813 5.97175 79.8813H81.2957Z" fill="#08CF65">
  </path>
  <path d="M265.079 0C248.319 0 240.42 3.09468 228.284 15.28L163.17 80.655C161.243 82.5891 160.858 83.3628 160.473 84.5233C160.28 84.9102 160.28 85.4904 160.28 85.8772C160.28 86.2641 160.28 86.8443 160.473 87.2312C160.858 88.3917 161.243 89.1653 163.17 91.0995L207.671 135.779C209.597 137.713 210.368 138.1 211.523 138.487C211.909 138.68 212.487 138.68 212.872 138.68C213.257 138.68 213.835 138.68 214.22 138.487C215.376 138.1 216.147 137.713 218.073 135.779L344.256 9.09061C347.916 5.41568 346.567 1.47566e-05 340.403 1.47566e-05L265.079 0Z" fill="#08CF65">
  </path>
 </g>
 <defs>
  <clipPath id="clip0">
   <rect width="1100" height="220" fill="white">
   </rect>
  </clipPath>
 </defs>
</svg>