<svg version="1.1" id="Layer_1" xmlns:x="ns_extend;" xmlns:i="ns_ai;" xmlns:graph="ns_graphs;" xmlns="http://www.w3.org/2000/svg" xmlns:xlink="http://www.w3.org/1999/xlink" x="0px" y="0px" viewBox="0 0 228.9 52" style="enable-background:new 0 0 228.9 52;" xml:space="preserve">
 <style type="text/css">
  .st0{fill:#0B5CFF;}
 </style>
 <metadata>
  <sfw xmlns="ns_sfw;">
   <slices>
   </slices>
   <sliceSourceBounds bottomLeftOrigin="true" height="52" width="228.9" x="-58" y="-12.8">
   </sliceSourceBounds>
  </sfw>
 </metadata>
 <g>
  <path class="st0" d="M48,51.2H7.3c-2.7,0-5.2-1.4-6.5-3.8c-1.4-2.8-0.9-6.1,1.3-8.2l28.3-28.3H10.1C4.5,10.9,0,6.3,0,0.8h37.5
		c2.7,0,5.2,1.4,6.5,3.8c1.4,2.8,0.9,6.1-1.3,8.2L14.4,41.1h23.5C43.5,41.1,48,45.7,48,51.2z M209.2,0c-5.8,0-11.1,2.5-14.7,6.6
		c-3.6-4-8.9-6.6-14.7-6.6c-10.8,0-19.7,9.2-19.7,20v31.2c5.6,0,10.1-4.5,10.1-10.1V19.9c0-5.2,4-9.6,9.2-9.8c5.5-0.2,10,4.2,10,9.6
		v21.4c0,5.6,4.5,10.1,10.1,10.1V19.9c0-5.2,4-9.6,9.2-9.8c5.5-0.2,10,4.2,10,9.6v21.4c0,5.6,4.5,10.1,10.1,10.1V20
		C228.9,9.2,220,0,209.2,0z M99,26c0,14.3-11.7,26-26,26c-14.4,0-26-11.7-26-26C47,11.7,58.7,0,73,0C87.3,0,99,11.7,99,26z M88.9,26
		c0-8.8-7.1-15.9-15.9-15.9c-8.8,0-15.9,7.1-15.9,15.9c0,8.8,7.1,15.9,15.9,15.9C81.8,41.9,88.9,34.8,88.9,26z M155.1,26
		c0,14.3-11.7,26-26,26c-14.4,0-26-11.7-26-26c0-14.3,11.7-26,26-26C143.4,0,155.1,11.7,155.1,26z M145,26c0-8.8-7.1-15.9-15.9-15.9
		c-8.8,0-15.9,7.1-15.9,15.9c0,8.8,7.1,15.9,15.9,15.9C137.9,41.9,145,34.8,145,26z">
  </path>
 </g>
</svg>