<svg version="1.1" id="Layer_1" xmlns:x="ns_extend;" xmlns:i="ns_ai;" xmlns:graph="ns_graphs;" xmlns="http://www.w3.org/2000/svg" xmlns:xlink="http://www.w3.org/1999/xlink" x="0px" y="0px" viewBox="0 0 395.1 86" style="enable-background:new 0 0 395.1 86;" xml:space="preserve">
 <style type="text/css">
  .st0{fill:#FFFFFF;}
 </style>
 <metadata>
  <sfw xmlns="ns_sfw;">
   <slices>
   </slices>
   <sliceSourceBounds bottomLeftOrigin="true" height="86" width="395.1" x="2.4" y="-243">
   </sliceSourceBounds>
  </sfw>
 </metadata>
 <g>
  <path class="st0" d="M158.5,49.5L151.7,31c-0.3-0.8-1.4-0.8-1.6,0l-6.9,18.5c-0.2,0.6,0.2,1.2,0.8,1.2h13.8
		C158.3,50.7,158.8,50.1,158.5,49.5 M161.7,59.9H140c-0.4,0-0.7,0.2-0.8,0.6L134.9,72c-0.1,0.3-0.5,0.6-0.8,0.6h-9.4
		c-0.6,0-1-0.6-0.8-1.2l21.7-54.1c0.1-0.3,0.5-0.5,0.8-0.5h9c0.4,0,0.7,0.2,0.8,0.5l21.7,54.1c0.2,0.6-0.2,1.2-0.8,1.2h-9.4
		c-0.4,0-0.7-0.2-0.8-0.6l-4.3-11.5C162.4,60.2,162.1,59.9,161.7,59.9 M182.3,35.8h8.1c0.5,0,0.9,0.4,0.9,0.9v35.1
		c0,0.5-0.4,0.9-0.9,0.9h-8.1c-0.5,0-0.9-0.4-0.9-0.9V36.6C181.4,36.2,181.8,35.8,182.3,35.8 M220.6,44.3c0,0.5-0.4,0.9-0.9,0.9
		h-0.2c-4,0-6.9,1-8.8,2.9c-1.9,1.9-2.8,5.1-2.8,9.5v14.2c0,0.5-0.4,0.9-0.9,0.9h-8c-0.5,0-0.9-0.4-0.9-0.9V36.6
		c0-0.5,0.4-0.9,0.9-0.9h7.9c0.5,0,0.9,0.4,0.9,0.9v6.9h0.2c1-2.9,2.5-5.1,4.5-6.6c2.1-1.5,4.6-2.3,7.7-2.3h0.4V44.3z M242.7,44
		c-0.5,0-0.9,0.4-0.9,0.9v14.6c0,1.5,0.3,2.6,0.9,3.2c0.6,0.6,1.6,1,3,1h0.8c0.5,0,0.9,0.4,0.9,0.9v7.3c0,0.5-0.4,0.9-0.9,0.9h-3.4
		c-3.6,0-6.3-0.9-8.2-2.7c-1.9-1.8-2.9-4.6-2.9-8.2V44.9c0-0.5-0.4-0.9-0.9-0.9h-5c-0.5,0-0.9-0.4-0.9-0.9v-6.5
		c0-0.5,0.4-0.9,0.9-0.9h5c0.5,0,0.9-0.4,0.9-0.9v-13c0-0.5,0.4-0.9,0.9-0.9h8.1c0.5,0,0.9,0.4,0.9,0.9v13c0,0.5,0.4,0.9,0.9,0.9
		h5.8c0.5,0,0.9,0.4,0.9,0.9v6.5c0,0.5-0.4,0.9-0.9,0.9H242.7z M279.6,61.7c1.8-1.9,2.7-4.4,2.7-7.5c0-3.1-0.9-5.6-2.7-7.5
		c-1.8-1.9-4.2-2.9-7.2-2.9c-3,0-5.4,1-7.2,2.9c-1.8,1.9-2.7,4.4-2.7,7.5c0,3.1,0.9,5.6,2.7,7.5c1.8,1.9,4.2,2.9,7.2,2.9
		C275.3,64.6,277.7,63.6,279.6,61.7 M261,71.5c-2.7-1.5-4.8-3.8-6.4-6.7c-1.6-2.9-2.4-6.5-2.4-10.6c0-4.1,0.8-7.6,2.4-10.6
		c1.6-2.9,3.7-5.2,6.4-6.7c2.7-1.5,5.7-2.3,8.9-2.3c2.9,0,5.3,0.6,7.4,1.7c2,1.1,3.7,2.7,4.9,4.7h0.2v-4.3c0-0.5,0.4-0.9,0.9-0.9h8
		c0.5,0,0.9,0.4,0.9,0.9v35.1c0,0.5-0.4,0.9-0.9,0.9h-8c-0.5,0-0.9-0.4-0.9-0.9v-4.3h-0.2c-1.2,2-2.9,3.6-4.9,4.7
		c-2,1.1-4.5,1.7-7.4,1.7C266.6,73.8,263.7,73,261,71.5 M325.2,61.7c1.8-1.9,2.7-4.4,2.7-7.5c0-3.1-0.9-5.6-2.7-7.5
		c-1.8-1.9-4.2-2.9-7.2-2.9c-3,0-5.4,1-7.2,2.9c-1.8,1.9-2.8,4.4-2.8,7.5c0,3.1,0.9,5.6,2.8,7.5c1.8,1.9,4.2,2.9,7.2,2.9
		C321,64.6,323.4,63.6,325.2,61.7 M313.1,72.1c-2-1.1-3.7-2.7-4.9-4.7h-0.2v4.3c0,0.5-0.4,0.9-0.9,0.9h-8.1c-0.5,0-0.9-0.4-0.9-0.9
		V17.7c0-0.5,0.4-0.9,0.9-0.9h8.1c0.5,0,0.9,0.4,0.9,0.9V41h0.2c1.2-2,2.9-3.6,4.9-4.7c2-1.1,4.5-1.7,7.4-1.7c3.2,0,6.2,0.8,8.9,2.3
		c2.7,1.5,4.8,3.8,6.4,6.7c1.6,2.9,2.4,6.5,2.4,10.6c0,4.1-0.8,7.6-2.4,10.6c-1.6,2.9-3.7,5.2-6.4,6.7c-2.7,1.5-5.7,2.3-8.9,2.3
		C317.6,73.8,315.2,73.2,313.1,72.1 M351.8,72.6h-8.1c-0.5,0-0.9-0.4-0.9-0.9V17.7c0-0.5,0.4-0.9,0.9-0.9h8.1c0.5,0,0.9,0.4,0.9,0.9
		v54.1C352.6,72.2,352.3,72.6,351.8,72.6 M370.8,44.3c-1.3,1-2.2,2.5-2.7,4.5c-0.1,0.5,0.3,1.1,0.9,1.1h15.3c0.5,0,1-0.5,0.9-1
		c-0.3-1.9-1.1-3.3-2.4-4.5c-1.5-1.3-3.5-2-5.9-2C374.4,42.5,372.4,43.1,370.8,44.3 M390.4,39.7c3.1,3.4,4.7,8.3,4.7,14.5v1
		c0,0.5-0.4,0.9-0.9,0.9h-25.6c-0.5,0-1,0.5-0.9,1c0.4,2.3,1.4,4.2,3.1,5.5c1.9,1.6,4.3,2.4,7.1,2.4c3.7,0,7.1-1.4,10.3-4.3
		c0.4-0.4,1-0.3,1.3,0.2l3.9,5.6c0.3,0.4,0.2,0.9-0.1,1.2c-1.9,1.7-4,3.1-6.4,4.2c-2.6,1.2-5.6,1.9-9,1.9c-4,0-7.5-0.8-10.4-2.4
		c-3-1.6-5.3-3.9-6.9-6.9c-1.6-2.9-2.5-6.4-2.5-10.2c0-3.9,0.8-7.3,2.4-10.3c1.6-3,3.8-5.3,6.7-6.9c2.9-1.6,6.2-2.5,10-2.5
		C382.9,34.6,387.3,36.3,390.4,39.7 M192.3,22.8c0,3.3-2.7,6-6,6s-6-2.7-6-6s2.7-6,6-6S192.3,19.5,192.3,22.8">
  </path>
  <path class="st0" d="M45.9,1.1L7.6,16.9c-2.1,0.9-2.1,3.9,0,4.8L46.1,37c3.4,1.3,7.1,1.3,10.5,0l38.5-15.3c2.1-0.9,2.2-3.9,0-4.8
		L56.8,1.1C53.3-0.4,49.4-0.4,45.9,1.1">
  </path>
  <path class="st0" d="M54.8,45.3v38.1c0,1.8,1.8,3.1,3.5,2.4l42.9-16.6c1-0.4,1.6-1.3,1.6-2.4V28.7c0-1.8-1.8-3.1-3.5-2.4L56.4,42.9
		C55.4,43.3,54.8,44.2,54.8,45.3">
  </path>
  <path class="st0" d="M0,28.8v35.8c0,1.9,2.2,3.1,3.9,2.3L30.7,54l1.3-0.6L0.8,27.1C0.4,27.5,0,28.1,0,28.8z">
  </path>
  <path class="st0" d="M44.6,42.6L3.8,26.4c-0.8-0.3-1.7-0.2-2.3,0.2c-0.2,0.1-0.5,0.3-0.7,0.5L32,53.4l12.7-6.1
		C46.8,46.3,46.6,43.4,44.6,42.6z">
  </path>
 </g>
</svg>