<svg fill="none" height="24" viewBox="0 0 163 48" width="81" xmlns="http://www.w3.org/2000/svg"><path d="M133.706 29.7211C133.706 22.4541 138.322 17.3432 144.889 17.3432C151.456 17.3432 156.147 22.4511 156.147 29.7211C156.147 36.991 151.457 41.8095 144.889 41.8095C138.321 41.8095 133.706 36.7709 133.706 29.7211ZM126.85 29.7211C126.85 40.4436 134.355 48 144.888 48C155.422 48 163 40.4436 163 29.7211C163 18.9986 155.496 11.1557 144.888 11.1557C134.281 11.1557 126.85 18.8569 126.85 29.7211ZM91.8539 11.5869L105.998 47.5668H112.637L126.78 11.5869H119.636L109.39 39.3641H109.245L98.9983 11.5869H91.8539ZM64.3615 28.4245C64.7938 21.8028 69.196 17.3432 75.1855 17.3432C80.3798 17.3432 84.2771 20.654 84.8545 25.6202H72.8756C68.6185 25.6202 66.3086 26.1238 64.5792 28.4275H64.3615V28.4255V28.4245ZM57.5073 29.504C57.5073 40.2265 65.0841 47.997 75.5453 47.997C82.6172 47.997 88.8213 44.3997 91.491 38.7128L85.7192 35.8332C83.6996 39.5752 79.8023 41.8065 75.5453 41.8065C70.4205 41.8065 65.8037 37.9198 65.8037 34.1777C65.8037 32.2359 67.1028 31.3705 68.9783 31.3705H91.8508V29.4286C91.8508 18.6337 84.9241 11.1497 74.9678 11.1497C65.0115 11.1497 57.5063 18.8508 57.5063 29.501M37.881 47.5628H44.3754V25.4745C44.3754 20.7254 47.3323 17.3422 51.4473 17.3422C53.1797 17.3422 54.9817 17.9181 55.8494 18.7081C56.4995 16.9803 57.5093 15.2556 59.0241 13.5278C57.2916 12.0895 54.3347 11.1517 51.4473 11.1517C43.5107 11.1517 37.881 17.0527 37.881 25.4715V47.5648V47.5628ZM6.4944 23.7487V6.18745H17.1733C20.7803 6.18745 23.1628 8.27406 23.1628 11.4402C23.1628 15.0374 20.0607 17.7723 13.7114 19.859C9.38181 21.2249 7.4347 22.3767 6.71209 23.7457L6.4944 23.7477V23.7487ZM6.4944 41.3793V34.04C6.4944 30.8016 9.23668 27.6355 13.0614 26.4113C16.4537 25.2594 19.2655 24.1075 21.648 22.8863C24.8226 24.7589 26.7698 27.9943 26.7698 31.3775C26.7698 37.1338 21.2852 41.3793 13.8535 41.3793H6.4944ZM0 47.5668H14.431C25.4001 47.5668 33.624 40.7311 33.624 31.664C33.624 26.6977 31.0994 22.238 26.6246 19.3584C28.9346 17.0547 30.017 14.3922 30.017 11.1537C30.017 4.46269 25.1824 0 17.8959 0H0V47.5668Z" fill="#0B996E"></path></svg>