<svg version="1.1" id="Layer_1" xmlns:x="ns_extend;" xmlns:i="ns_ai;" xmlns:graph="ns_graphs;" xmlns="http://www.w3.org/2000/svg" xmlns:xlink="http://www.w3.org/1999/xlink" x="0px" y="0px" viewBox="0 0 123.3 65" style="enable-background:new 0 0 123.3 65;" xml:space="preserve">
 <style type="text/css">
  .st0{fill:#00BCEB;}
 </style>
 <metadata>
  <sfw xmlns="ns_sfw;">
   <slices>
   </slices>
   <sliceSourceBounds bottomLeftOrigin="true" height="65" width="123.3" x="111.6" y="-218.4">
   </sliceSourceBounds>
  </sfw>
 </metadata>
 <g>
  <rect x="34.9" y="43.2" class="st0" width="5.4" height="21.4">
  </rect>
  <path class="st0" d="M83.9,49.3c-0.2-0.1-2-1.1-4.6-1.1c-3.5,0-5.9,2.4-5.9,5.7c0,3.2,2.3,5.7,5.9,5.7c2.5,0,4.3-1,4.6-1.1v5.8
		C83.2,64.4,81.4,65,79,65c-6.1,0-11.4-4.2-11.4-11.1c0-6.4,4.8-11.1,11.4-11.1c2.5,0,4.4,0.6,4.9,0.8V49.3z">
  </path>
  <path class="st0" d="M27.4,49.3c-0.2-0.1-2-1.1-4.5-1.1c-3.5,0-5.9,2.4-5.9,5.7c0,3.2,2.3,5.7,5.9,5.7c2.5,0,4.3-1,4.5-1.1v5.8
		c-0.7,0.2-2.5,0.8-4.9,0.8c-6.1,0-11.4-4.2-11.4-11.1c0-6.4,4.8-11.1,11.4-11.1c2.5,0,4.4,0.6,4.9,0.8V49.3z">
  </path>
  <path class="st0" d="M112.2,53.9c0,6.1-4.7,11.1-11.3,11.1c-6.6,0-11.3-5-11.3-11.1c0-6.1,4.7-11.1,11.3-11.1
		C107.5,42.8,112.2,47.8,112.2,53.9 M100.9,48.3c-3.2,0-5.6,2.5-5.6,5.6c0,3.1,2.4,5.6,5.6,5.6c3.2,0,5.6-2.5,5.6-5.6
		C106.5,50.8,104.1,48.3,100.9,48.3">
  </path>
  <path class="st0" d="M60.8,48.1c-0.1,0-2.4-0.7-4.2-0.7c-2.2,0-3.3,0.7-3.3,1.8c0,1.3,1.6,1.8,2.5,2l1.5,0.5
		c3.5,1.1,5.1,3.5,5.1,6.1c0,5.4-4.7,7.2-8.9,7.2c-2.9,0-5.6-0.5-5.8-0.6v-4.9c0.5,0.1,2.7,0.8,5.1,0.8c2.7,0,3.9-0.8,3.9-2
		c0-1.1-1.1-1.7-2.4-2.1c-0.3-0.1-0.8-0.3-1.2-0.4c-3-1-5.5-2.7-5.5-6.3c0-4,3-6.7,8-6.7c2.6,0,5.1,0.6,5.3,0.7V48.1z">
  </path>
  <path class="st0" d="M5.4,20.2c0-1.5-1.2-2.7-2.7-2.7S0,18.7,0,20.2v5.6c0,1.5,1.2,2.7,2.7,2.7s2.7-1.2,2.7-2.7V20.2z">
  </path>
  <path class="st0" d="M20.1,12.8c0-1.5-1.2-2.7-2.7-2.7c-1.5,0-2.7,1.2-2.7,2.7v13c0,1.5,1.2,2.7,2.7,2.7c1.5,0,2.7-1.2,2.7-2.7
		V12.8z">
  </path>
  <path class="st0" d="M34.9,2.7c0-1.5-1.2-2.7-2.7-2.7c-1.5,0-2.7,1.2-2.7,2.7v28.5c0,1.5,1.2,2.7,2.7,2.7c1.5,0,2.7-1.2,2.7-2.7
		V2.7z">
  </path>
  <path class="st0" d="M49.6,12.8c0-1.5-1.2-2.7-2.7-2.7c-1.5,0-2.7,1.2-2.7,2.7v13c0,1.5,1.2,2.7,2.7,2.7c1.5,0,2.7-1.2,2.7-2.7
		V12.8z">
  </path>
  <path class="st0" d="M64.3,20.2c0-1.5-1.2-2.7-2.7-2.7c-1.5,0-2.7,1.2-2.7,2.7v5.6c0,1.5,1.2,2.7,2.7,2.7c1.5,0,2.7-1.2,2.7-2.7
		V20.2z">
  </path>
  <path class="st0" d="M79.1,12.8c0-1.5-1.2-2.7-2.7-2.7c-1.5,0-2.7,1.2-2.7,2.7v13c0,1.5,1.2,2.7,2.7,2.7c1.5,0,2.7-1.2,2.7-2.7
		V12.8z">
  </path>
  <path class="st0" d="M93.8,2.7c0-1.5-1.2-2.7-2.7-2.7c-1.5,0-2.7,1.2-2.7,2.7v28.5c0,1.5,1.2,2.7,2.7,2.7c1.5,0,2.7-1.2,2.7-2.7
		V2.7z">
  </path>
  <path class="st0" d="M108.6,12.8c0-1.5-1.2-2.7-2.7-2.7c-1.5,0-2.7,1.2-2.7,2.7v13c0,1.5,1.2,2.7,2.7,2.7c1.5,0,2.7-1.2,2.7-2.7
		V12.8z">
  </path>
  <path class="st0" d="M123.3,20.2c0-1.5-1.2-2.7-2.7-2.7c-1.5,0-2.7,1.2-2.7,2.7v5.6c0,1.5,1.2,2.7,2.7,2.7c1.5,0,2.7-1.2,2.7-2.7
		V20.2z">
  </path>
 </g>
</svg>