<svg width="150" height="39" viewBox="0 0 150 39" fill="none" xmlns="http://www.w3.org/2000/svg">
<path fill-rule="evenodd" clip-rule="evenodd" d="M15.9181 12.281H15.8386C13.943 9.817 12.007 8.996 9.39966 8.996C3.5547 8.996 0 13.964 0 19.557C0 25.151 3.83154 30.196 9.4802 30.196C12.0876 30.196 14.4574 29.218 16.0762 26.833H16.1557V29.649H21.607V0.235H15.9191V12.281H15.9181ZM11.0597 25.658C7.70235 25.658 5.9245 22.882 5.9245 19.713C5.9245 16.662 7.62282 13.768 10.9017 13.768C14.4564 13.768 16.1154 16.624 16.1154 19.635C16.1154 22.999 14.2983 25.658 11.0597 25.658ZM32.7886 8.996C26.6658 8.996 22.4003 13.142 22.4003 19.635C22.4003 26.05 26.6668 30.196 32.7886 30.196C37.5685 30.196 41.2812 28.046 42.6634 23.938L37.1336 23.507C36.3433 25.072 34.803 25.893 33.0644 25.893C30.0232 25.893 28.5614 23.547 28.3248 21.2H43.1758V19.636C43.1768 13.142 38.9114 8.996 32.7886 8.996ZM28.3258 17.601C28.6419 15.332 30.1037 13.299 33.0654 13.299C35.7916 13.299 37.2916 15.646 37.4899 17.601H28.3258ZM51.4762 3.755H45.7883V9.544H43.1809V13.847H45.7883V24.642C45.7883 28.984 48.0393 29.883 51.752 29.883C52.6611 29.883 53.5691 29.766 54.4782 29.649V25.229C54.1228 25.307 53.8067 25.346 53.3326 25.346C51.8708 25.346 51.4762 24.916 51.4762 24.016V13.847H54.4782V9.544H51.4762V3.755ZM65.3023 8.996C59.1795 8.996 54.9141 13.142 54.9141 19.635C54.9141 26.05 59.1795 30.196 65.3023 30.196C70.0822 30.196 73.795 28.046 75.1772 23.938L69.6473 23.507C68.857 25.072 67.3168 25.893 65.5792 25.893C62.5379 25.893 61.0762 23.547 60.8396 21.2H75.6906V19.636C75.6906 13.142 71.4252 8.996 65.3023 8.996ZM60.8396 17.601C61.1557 15.332 62.6174 13.299 65.5792 13.299C68.3044 13.299 69.8054 15.646 70.0027 17.601H60.8396ZM86.5178 13.768C88.0188 13.768 89.6789 14.433 89.7966 17.249L95.7211 17.015C95.4453 12.751 92.5611 8.996 86.5178 8.996C80.3567 8.996 76.6419 13.338 76.6419 19.791C76.6419 25.972 80.0003 30.195 86.6366 30.195C92.0869 30.195 94.7728 26.988 95.6416 22.568L90.0725 22.373C89.7574 24.329 88.65 25.658 86.4785 25.658C83.5168 25.658 82.5685 22.685 82.5685 20.026C82.5685 17.445 83.0034 13.768 86.5178 13.768ZM104.376 3.755H98.6879V9.544H96.0805V13.847H98.6879V24.642C98.6879 28.984 100.939 29.883 104.653 29.883C105.561 29.883 106.471 29.766 107.379 29.649V25.229C107.022 25.307 106.706 25.346 106.232 25.346C104.771 25.346 104.376 24.916 104.376 24.016V13.847H107.378V9.544H104.376V3.755ZM108.802 29.648H114.49V9.544H108.802V29.648ZM111.645 0C109.75 0 108.328 1.682 108.328 3.324C108.328 4.889 109.75 6.571 111.645 6.571C113.462 6.571 114.964 4.967 114.964 3.246C114.964 1.447 113.344 0 111.645 0V0ZM118.876 6.923V9.544H115.992V13.847H118.876V29.649H124.562V13.847H127.842V9.544H124.562V6.415C124.562 5.28 125.274 4.771 126.262 4.771H127.842V0H126.735C121.72 0 118.876 1.291 118.876 6.923ZM143.249 9.544L138.944 22.842H138.866L134.56 9.544H128.319L135.942 29.648L132.546 38.41H138.51L149.491 9.544H143.249Z" fill="#252734"/>
</svg>
