<?xml version="1.0" encoding="UTF-8"?>
<svg style="enable-background:new 0 0 352 84" version="1.1" viewBox="0 0 352 84" xml:space="preserve" xmlns="http://www.w3.org/2000/svg" xmlns:dc="http://purl.org/dc/elements/1.1/" xmlns:rdf="http://www.w3.org/1999/02/22-rdf-syntax-ns#"><title>GlobalSign logo</title><desc>A certificate authority based in Belgium that owned by GMO of Japan</desc><metadata><rdf:RDF><dc:format>image/svg+xml</dc:format><dc:type rdf:resource="http://purl.org/dc/dcmitype/StillImage"/><dc:title/></rdf:RDF></metadata>
<style type="text/css">
	.st0{fill:#005BAC;}
	.st1{fill:#0069B5;}
	.st2{fill:#005EAF;}
	.st3{fill:#005FAF;}
	.st4{fill:#0060B0;}
	.st5{fill:#0061B0;}
	.st6{fill:#0061B1;}
	.st7{fill:#0062B1;}
	.st8{fill:#0062B2;}
	.st9{fill:#0063B2;}
	.st10{fill:#0064B2;}
	.st11{fill:#0064B3;}
	.st12{fill:#0065B3;}
	.st13{fill:#0065B4;}
	.st14{fill:#0066B4;}
	.st15{fill:#0067B5;}
	.st16{fill:#0068B6;}
	.st17{fill:#0069B6;}
	.st18{fill:#0069B7;}
	.st19{fill:#006AB7;}
	.st20{fill:#006BB8;}
	.st21{fill:#006CB9;}
	.st22{fill:#006DBA;}
	.st23{fill:#006EBA;}
	.st24{fill:#006EBB;}
	.st25{fill:#006FBB;}
	.st26{fill:#0070BC;}
	.st27{fill:#0071BD;}
	.st28{fill:#0072BD;}
	.st29{fill:#0072BE;}
	.st30{fill:#0073BE;}
	.st31{fill:#0074BF;}
	.st32{fill:#0075BF;}
	.st33{fill:#0075C0;}
	.st34{fill:#0076C0;}
	.st35{fill:#0076C1;}
	.st36{fill:#0077C1;}
	.st37{fill:#0078C2;}
	.st38{fill:#0079C3;}
	.st39{fill:#007AC3;}
	.st40{fill:#007BC4;}
	.st41{fill:#007CC5;}
	.st42{fill:#007DC5;}
	.st43{fill:#007DC6;}
	.st44{fill:#007EC6;}
	.st45{fill:#007EC7;}
	.st46{fill:#007FC7;}
	.st47{fill:#0080C7;}
	.st48{fill:#0080C8;}
	.st49{fill:#0081C8;}
	.st50{fill:#0081C9;}
	.st51{fill:#0082C9;}
	.st52{fill:#0083CA;}
	.st53{fill:#0084CB;}
	.st54{fill:#0085CB;}
	.st55{fill:#0085CC;}
	.st56{fill:#0086CC;}
	.st57{fill:#0087CD;}
	.st58{fill:#0088CE;}
	.st59{fill:#0089CE;}
	.st60{fill:#0089CF;}
	.st61{fill:#008ACF;}
	.st62{fill:#008AD0;}
	.st63{fill:#008BD0;}
	.st64{fill:#008CD0;}
	.st65{fill:#008CD1;}
	.st66{fill:#008DD1;}
	.st67{fill:#008DD2;}
	.st68{fill:#008ED2;}
	.st69{fill:#008FD3;}
	.st70{fill:#0090D3;}
	.st71{fill:#0091D4;}
	.st72{fill:#0092D5;}
	.st73{fill:#0093D6;}
	.st74{fill:#0094D6;}
	.st75{fill:#0095D7;}
	.st76{fill:#0096D8;}
	.st77{fill:#0097D8;}
	.st78{fill:#0097D9;}
	.st79{fill:#0098D9;}
	.st80{fill:#0099DA;}
	.st81{fill:#009ADA;}
	.st82{fill:#009BDB;}
	.st83{fill:#009CDC;}
	.st84{fill:#009DDD;}
	.st85{fill:#009EDD;}
	.st86{fill:#009FDE;}
	.st87{fill:#00A0DF;}
	.st88{fill:#00A1DF;}
	.st89{fill:#00A1E0;}
	.st90{fill:#00A2E0;}
	.st91{fill:#00A3E0;}
	.st92{fill:#00A3E1;}
	.st93{fill:#00A4E1;}
	.st94{fill:#00A4E2;}
	.st95{fill:#00A5E2;}
	.st96{fill:#00A6E3;}
	.st97{fill:#00A7E3;}
	.st98{fill:#00A8E4;}
	.st99{fill:#00A9E5;}
	.st100{fill:#00AAE5;}
	.st101{fill:#00AAE6;}
	.st102{fill:#00ABE6;}
	.st103{fill:#00ACE7;}
	.st104{fill:#00ADE7;}
	.st105{fill:#00ADE8;}
	.st106{fill:#00AEE8;}
	.st107{fill:#00AFE8;}
	.st108{fill:#00AFE9;}
	.st109{fill:#00B0E9;}
	.st110{fill:#00B1EA;}
	.st111{fill:#00B2EB;}
	.st112{fill:#00B3EB;}
	.st113{fill:#00B4EC;}
	.st114{fill:#00BAEF;}
	.st115{fill:#040000;}
	.st116{fill:#FFFFFF;}
</style>

	<path class="st0" d="m162.8 71.34c-0.04 1.19-0.56 2.8-2.15 2.8-0.18 0-1.64 0-2.08-1.72-0.07-0.21-0.15-0.59-0.15-1.15 0-1.93 1.16-2.67 2.13-2.67 1.18-0.01 2.31 0.95 2.25 2.74m-6.49-8.17v12.76h2.15v-0.94c0.47 0.54 1.29 1.21 2.47 1.21 2.15 0 4.1-1.88 4.1-4.82 0-2.87-1.91-4.75-3.95-4.75-1 0-1.9 0.36-2.62 1.03v-4.48h-2.15z"/>
	<path class="st0" d="m173.7 66.89-2.29 7.88-0.51 1.7c-0.62 1.9-1.28 2.57-2.96 2.57-0.71 0-1.05-0.07-1.3-0.11v-1.9c0.2 0.03 0.36 0.05 0.58 0.05 0.16 0 0.63 0 0.98-0.23 0.25-0.16 0.51-0.56 0.51-0.74l-3.27-9.22h2.33l2 6.74 1.72-6.74h2.21z"/>
	<path class="st0" d="m225.1 75.2h1.3c0.06 0 0.14-0.05 0.18-0.11l5.37-8.79 2.92 10.06c0.02 0.06 0.09 0.12 0.16 0.12h5.63c0.07 0 0.1-0.05 0.08-0.12l-5.95-18.82c-0.02-0.06-0.09-0.12-0.15-0.12h-2.12c-0.07 0-0.15 0.05-0.19 0.1l-7.24 11.23-7.24-11.23c-0.04-0.05-0.12-0.1-0.18-0.1h-2.12c-0.07 0-0.14 0.05-0.16 0.12l-5.95 18.82c-0.02 0.06 0.02 0.12 0.08 0.12h5.64c0.07 0 0.14-0.05 0.15-0.12l2.92-10.06 5.37 8.79c0.03 0.06 0.11 0.11 0.18 0.11h1.32z"/>
	<path class="st0" d="m209.7 65.82c-0.01-0.06-0.06-0.1-0.12-0.1h-16.05c-0.85 0-1.54 0.69-1.54 1.54s0.69 1.54 1.54 1.54h9.54c-1.14 3-4.98 5.21-9.54 5.21-5.46 0-9.89-3.16-9.89-7.06s4.43-7.06 9.89-7.06c2.98 0 5.65 0.94 7.47 2.43l0.02 0.02c0.02 0.01 0.04 0.02 0.06 0.02h6.56c0.07 0 0.12-0.06 0.12-0.12 0-0.03-0.01-0.05-0.03-0.08 0 0-0.01 0-0.01-0.01-2.79-2.98-8.1-4.98-14.2-4.98-9 0-16.29 4.38-16.29 9.78s7.29 9.78 16.29 9.78c8.99 0 16.29-4.38 16.29-9.78 0-0.38-0.04-0.76-0.11-1.13"/>
	<path class="st0" d="m256.7 57.17c-8.99 0-16.29 4.38-16.29 9.78s7.29 9.78 16.29 9.78 16.29-4.38 16.29-9.78-7.29-9.78-16.29-9.78m0 16.84c-5.46 0-9.88-3.16-9.88-7.06s4.42-7.06 9.88-7.06 9.89 3.16 9.89 7.06-4.42 7.06-9.89 7.06"/>


	
		
			<path class="st1" d="m79.73 42.05c0 20.1-16.29 36.4-36.39 36.4-20.11 0-36.4-16.3-36.4-36.4s16.3-36.4 36.4-36.4 36.39 16.29 36.39 36.4"/>
			<path class="st2" d="m79.58 42.05c0 20.02-16.23 36.25-36.24 36.25-20.02 0-36.25-16.23-36.25-36.25s16.23-36.25 36.25-36.25c20.01-0.01 36.24 16.22 36.24 36.25"/>
			<path class="st3" d="m79.43 42.05c0 19.93-16.16 36.1-36.09 36.1-19.94 0-36.1-16.17-36.1-36.1 0-19.94 16.16-36.1 36.1-36.1 19.93-0.01 36.09 16.16 36.09 36.1"/>
			<path class="st4" d="M 79.28,42.05 C 79.28,61.9 63.19,78 43.34,78 23.48,78 7.39,61.9 7.39,42.05 7.39,22.19 23.49,6.1 43.34,6.1 63.19,6.09 79.28,22.19 79.28,42.05"/>
			<path class="st4" d="m79.13 42.05c0 19.77-16.02 35.8-35.79 35.8-19.78 0-35.8-16.03-35.8-35.8s16.03-35.8 35.8-35.8c19.77-0.01 35.79 16.02 35.79 35.8"/>
			<path class="st5" d="m78.98 42.05c0 19.69-15.96 35.65-35.64 35.65-19.69 0-35.65-15.97-35.65-35.65 0-19.69 15.96-35.65 35.65-35.65 19.68-0.01 35.64 15.96 35.64 35.65"/>
			<path class="st6" d="m78.83 42.05c0 19.6-15.89 35.5-35.49 35.5-19.61 0-35.51-15.9-35.51-35.5 0-19.61 15.9-35.5 35.51-35.5 19.6-0.01 35.49 15.89 35.49 35.5"/>
			<path class="st7" d="m78.68 42.05c0 19.52-15.82 35.35-35.34 35.35-19.53 0-35.36-15.83-35.36-35.35 0-19.53 15.83-35.35 35.36-35.35 19.52-0.01 35.34 15.82 35.34 35.35"/>
			<path class="st8" d="m78.53 42.05c0 19.44-15.76 35.2-35.19 35.2-19.44 0-35.21-15.76-35.21-35.2s15.76-35.21 35.21-35.21c19.43 0 35.19 15.76 35.19 35.21"/>
			<path class="st9" d="m78.38 42.05c0 19.36-15.69 35.05-35.04 35.05-19.36 0-35.06-15.7-35.06-35.05 0-19.36 15.69-35.05 35.06-35.05 19.35-0.01 35.04 15.69 35.04 35.05"/>
			<path class="st10" d="m78.23 42.05c0 19.27-15.62 34.9-34.89 34.9-19.28 0-34.91-15.63-34.91-34.9 0-19.28 15.63-34.91 34.91-34.91 19.27 0 34.89 15.63 34.89 34.91"/>
			<path class="st11" d="m78.08 42.05c0 19.19-15.56 34.75-34.75 34.75-19.2 0-34.76-15.56-34.76-34.75 0-19.2 15.56-34.76 34.76-34.76s34.75 15.56 34.75 34.76"/>
			<path class="st12" d="m77.93 42.05c0 19.11-15.49 34.6-34.6 34.6-19.12 0-34.61-15.5-34.61-34.6 0-19.11 15.49-34.61 34.61-34.61 19.11 0 34.6 15.49 34.6 34.61"/>
			<path class="st13" d="m77.78 42.05c0 19.02-15.42 34.45-34.45 34.45s-34.46-15.43-34.46-34.45c0-19.03 15.43-34.46 34.46-34.46s34.45 15.43 34.45 34.46"/>
			<path class="st14" d="m77.63 42.04c0 18.94-15.36 34.3-34.3 34.3-18.95 0-34.31-15.36-34.31-34.3 0-18.95 15.36-34.31 34.31-34.31 18.95 0.01 34.3 15.37 34.3 34.31"/>
			<path class="st15" d="m77.48 42.05c0 18.86-15.29 34.16-34.15 34.16-18.87 0-34.16-15.3-34.16-34.16 0-18.87 15.29-34.16 34.16-34.16s34.15 15.29 34.15 34.16"/>
			<path class="st15" d="m77.34 42.05c0 18.78-15.22 34-34 34-18.79 0-34.01-15.23-34.01-34 0-18.78 15.23-34.01 34.01-34.01 18.77 0 34 15.22 34 34.01"/>
			<path class="st16" d="m77.19 42.05c0 18.69-15.16 33.86-33.85 33.86-18.7 0-33.86-15.16-33.86-33.86s15.16-33.86 33.86-33.86c18.69 0 33.85 15.16 33.85 33.86"/>
			<path class="st16" d="m77.04 42.05c0 18.61-15.09 33.71-33.7 33.71-18.62 0-33.71-15.09-33.71-33.71s15.09-33.71 33.71-33.71c18.61 0 33.7 15.09 33.7 33.71"/>
			<path class="st17" d="m76.89 42.04c0 18.53-15.02 33.56-33.55 33.56-18.54 0-33.56-15.03-33.56-33.56s15.02-33.56 33.56-33.56c18.53 0 33.55 15.03 33.55 33.56"/>
			<path class="st18" d="m76.74 42.05c0 18.45-14.95 33.41-33.4 33.41s-33.41-14.96-33.41-33.41 14.96-33.41 33.41-33.41c18.44-0.01 33.4 14.95 33.4 33.41"/>
			<path class="st19" d="m76.59 42.05c0 18.36-14.89 33.26-33.25 33.26-18.37 0-33.26-14.89-33.26-33.26s14.89-33.26 33.26-33.26c18.36-0.01 33.25 14.89 33.25 33.26"/>
			<path class="st20" d="m76.44 42.05c0 18.28-14.82 33.11-33.1 33.11-18.29 0-33.11-14.83-33.11-33.11 0-18.29 14.82-33.11 33.11-33.11 18.28-0.01 33.1 14.82 33.1 33.11"/>
			<path class="st20" d="m76.29 42.05c0 18.19-14.75 32.95-32.95 32.95-18.21 0-32.96-14.76-32.96-32.96s14.76-32.96 32.96-32.96 32.95 14.76 32.95 32.97"/>
			<path class="st21" d="m76.14 42.05c0 18.12-14.69 32.81-32.8 32.81-18.12 0-32.81-14.69-32.81-32.81s14.69-32.81 32.81-32.81c18.11-0.01 32.8 14.68 32.8 32.81"/>
			<path class="st21" d="m75.99 42.05c0 18.03-14.62 32.66-32.65 32.66-18.04 0-32.66-14.63-32.66-32.66 0-18.04 14.62-32.66 32.66-32.66 18.03-0.01 32.65 14.62 32.65 32.66"/>
			<path class="st22" d="m75.84 42.05c0 17.95-14.55 32.51-32.5 32.51-17.96 0-32.51-14.56-32.51-32.51 0-17.96 14.56-32.51 32.51-32.51 17.95-0.01 32.5 14.55 32.5 32.51"/>
			<path class="st23" d="m75.69 42.04c0 17.87-14.49 32.36-32.35 32.36-17.88 0-32.37-14.49-32.37-32.36s14.49-32.36 32.37-32.36c17.87 0 32.35 14.49 32.35 32.36"/>
			<path class="st24" d="m75.54 42.05c0 17.79-14.42 32.21-32.2 32.21-17.79 0-32.22-14.42-32.22-32.21s14.42-32.21 32.22-32.21c17.78-0.01 32.2 14.41 32.2 32.21"/>
			<path class="st25" d="m75.39 42.05c0 17.7-14.35 32.06-32.05 32.06-17.71 0-32.07-14.36-32.07-32.06 0-17.71 14.36-32.07 32.07-32.07 17.7 0 32.05 14.36 32.05 32.07"/>
			<path class="st25" d="m75.24 42.05c0 17.62-14.29 31.91-31.91 31.91-17.63 0-31.92-14.29-31.92-31.91 0-17.63 14.29-31.92 31.92-31.92s31.91 14.29 31.91 31.92"/>
			<path class="st26" d="m75.09 42.05c0 17.54-14.22 31.76-31.76 31.76-17.55 0-31.77-14.23-31.77-31.76 0-17.54 14.22-31.77 31.77-31.77 17.54 0 31.76 14.22 31.76 31.77"/>
			<path class="st26" d="m74.94 42.05c0 17.46-14.15 31.61-31.61 31.61s-31.62-14.16-31.62-31.61c0-17.46 14.15-31.62 31.62-31.62 17.46 0 31.61 14.15 31.61 31.62"/>
			<path class="st27" d="m74.79 42.05c0 17.37-14.09 31.46-31.46 31.46-17.38 0-31.47-14.09-31.47-31.46 0-17.38 14.09-31.47 31.47-31.47s31.46 14.09 31.46 31.47"/>
			<path class="st28" d="m74.64 42.05c0 17.29-14.02 31.32-31.31 31.32-17.3 0-31.32-14.02-31.32-31.32s14.02-31.32 31.32-31.32 31.31 14.02 31.31 31.32"/>
			<path class="st29" d="m74.5 42.05c0 17.21-13.95 31.17-31.16 31.17-17.22 0-31.17-13.96-31.17-31.17s13.95-31.17 31.17-31.17c17.21 0 31.16 13.95 31.16 31.17"/>
			<path class="st30" d="m74.35 42.05c0 17.13-13.89 31.02-31.01 31.02-17.13 0-31.02-13.89-31.02-31.02s13.89-31.02 31.02-31.02c17.12 0 31.01 13.88 31.01 31.02"/>
			<path class="st30" d="m74.2 42.05c0 17.04-13.82 30.87-30.86 30.87-17.05 0-30.87-13.82-30.87-30.87s13.82-30.87 30.87-30.87c17.04 0 30.86 13.82 30.86 30.87"/>
			<path class="st31" d="m74.05 42.05c0 16.96-13.75 30.72-30.71 30.72-16.97 0-30.72-13.76-30.72-30.72 0-16.97 13.76-30.72 30.72-30.72s30.71 13.75 30.71 30.72"/>
			<path class="st32" d="m73.9 42.05c0 16.88-13.68 30.57-30.56 30.57-16.89 0-30.57-13.69-30.57-30.57s13.69-30.57 30.57-30.57c16.87 0 30.56 13.68 30.56 30.57"/>
			<path class="st33" d="m73.75 42.05c0 16.8-13.62 30.42-30.41 30.42-16.8 0-30.42-13.62-30.42-30.42s13.62-30.42 30.42-30.42c16.79-0.01 30.41 13.61 30.41 30.42"/>
			<path class="st34" d="m73.6 42.05c0 16.71-13.55 30.27-30.26 30.27-16.72 0-30.27-13.55-30.27-30.27s13.55-30.27 30.27-30.27c16.71-0.01 30.26 13.55 30.26 30.27"/>
			<path class="st35" d="m73.45 42.05c0 16.63-13.48 30.12-30.11 30.12-16.64 0-30.13-13.49-30.13-30.12 0-16.64 13.49-30.12 30.13-30.12 16.63-0.01 30.11 13.48 30.11 30.12"/>
			<path class="st36" d="m73.3 42.05c0 16.55-13.42 29.97-29.96 29.97-16.55 0-29.98-13.42-29.98-29.97s13.42-29.97 29.98-29.97c16.54-0.01 29.96 13.41 29.96 29.97"/>
			<path class="st37" d="m73.15 42.05c0 16.47-13.35 29.82-29.81 29.82-16.47 0-29.82-13.35-29.82-29.82s13.35-29.82 29.82-29.82c16.46-0.01 29.81 13.35 29.81 29.82"/>
			<path class="st37" d="m73 42.05c0 16.38-13.28 29.67-29.66 29.67-16.39 0-29.68-13.29-29.68-29.67 0-16.39 13.29-29.67 29.68-29.67 16.38-0.01 29.66 13.28 29.66 29.67"/>
			<path class="st38" d="m72.85 42.05c0 16.3-13.22 29.52-29.51 29.52-16.31 0-29.53-13.22-29.53-29.52s13.22-29.52 29.53-29.52c16.3-0.01 29.51 13.21 29.51 29.52"/>
			<path class="st39" d="m72.7 42.05c0 16.22-13.15 29.37-29.36 29.37-16.23 0-29.38-13.15-29.38-29.37s13.15-29.37 29.38-29.37c16.21-0.01 29.36 13.14 29.36 29.37"/>
			<path class="st39" d="m72.55 42.05c0 16.14-13.08 29.22-29.21 29.22-16.14 0-29.23-13.09-29.23-29.22 0-16.14 13.08-29.22 29.23-29.22 16.13-0.01 29.21 13.08 29.21 29.22"/>
			<path class="st40" d="m72.4 42.05c0 16.05-13.01 29.07-29.07 29.07s-29.08-13.02-29.08-29.07c0-16.06 13.02-29.07 29.08-29.07 16.06-0.01 29.07 13.01 29.07 29.07"/>
			<path class="st40" d="m72.25 42.05c0 15.97-12.95 28.92-28.92 28.92-15.98 0-28.93-12.95-28.93-28.92s12.95-28.93 28.93-28.93 28.92 12.95 28.92 28.93"/>
			<path class="st41" d="m72.1 42.05c0 15.89-12.88 28.77-28.77 28.77-15.9 0-28.78-12.89-28.78-28.77 0-15.89 12.88-28.78 28.78-28.78 15.89 0 28.77 12.88 28.77 28.78"/>
			<path class="st42" d="m71.95 42.05c0 15.81-12.81 28.62-28.62 28.62s-28.63-12.82-28.63-28.62c0-15.81 12.82-28.63 28.63-28.63s28.62 12.82 28.62 28.63"/>
			<path class="st43" d="m71.81 42.05c0 15.72-12.75 28.48-28.47 28.48-15.73 0-28.48-12.75-28.48-28.48s12.75-28.48 28.48-28.48c15.72 0 28.47 12.75 28.47 28.48"/>
			<path class="st44" d="m71.66 42.05c0 15.64-12.68 28.33-28.32 28.33-15.65 0-28.33-12.69-28.33-28.33s12.68-28.33 28.33-28.33c15.64 0 28.32 12.68 28.32 28.33"/>
			<path class="st45" d="m71.51 42.05c0 15.56-12.61 28.18-28.17 28.18-15.57 0-28.18-12.62-28.18-28.18s12.62-28.18 28.18-28.18c15.55 0 28.17 12.61 28.17 28.18"/>
			<path class="st46" d="m71.36 42.05c0 15.48-12.55 28.03-28.02 28.03-15.48 0-28.03-12.55-28.03-28.03s12.55-28.03 28.03-28.03c15.47 0 28.02 12.55 28.02 28.03"/>
			<path class="st47" d="m71.21 42.05c0 15.39-12.48 27.88-27.87 27.88-15.4 0-27.88-12.48-27.88-27.88s12.48-27.88 27.88-27.88c15.39 0 27.87 12.48 27.87 27.88"/>
			<path class="st48" d="m71.06 42.05c0 15.31-12.41 27.73-27.72 27.73-15.32 0-27.73-12.42-27.73-27.73s12.41-27.73 27.73-27.73c15.31 0 27.72 12.41 27.72 27.73"/>
			<path class="st49" d="m70.91 42.05c0 15.23-12.35 27.58-27.57 27.58-15.23 0-27.58-12.35-27.58-27.58s12.35-27.58 27.58-27.58c15.22 0 27.57 12.34 27.57 27.58"/>
			<path class="st50" d="m70.76 42.05c0 15.15-12.28 27.43-27.42 27.43-15.15 0-27.43-12.28-27.43-27.43s12.28-27.43 27.43-27.43c15.14-0.01 27.42 12.28 27.42 27.43"/>
			<path class="st51" d="m70.61 42.05c0 15.06-12.21 27.28-27.27 27.28-15.07 0-27.28-12.22-27.28-27.28 0-15.07 12.22-27.28 27.28-27.28 15.06-0.01 27.27 12.21 27.27 27.28"/>
			<path class="st52" d="m70.46 42.05c0 14.98-12.14 27.13-27.12 27.13-14.99 0-27.14-12.15-27.14-27.13s12.15-27.13 27.14-27.13c14.98-0.01 27.12 12.14 27.12 27.13"/>
			<path class="st52" d="m70.31 42.05c0 14.9-12.08 26.98-26.97 26.98-14.9 0-26.99-12.08-26.99-26.98s12.08-26.98 26.99-26.98c14.89-0.01 26.97 12.07 26.97 26.98"/>
			<path class="st53" d="m70.16 42.05c0 14.82-12.01 26.83-26.82 26.83-14.82 0-26.84-12.01-26.84-26.83s12.02-26.83 26.84-26.83c14.81-0.01 26.82 12.01 26.82 26.83"/>
			<path class="st53" d="m70.01 42.05c0 14.73-11.94 26.68-26.67 26.68-14.74 0-26.69-11.95-26.69-26.68 0-14.74 11.95-26.68 26.69-26.68 14.73-0.01 26.67 11.94 26.67 26.68"/>
			<path class="st54" d="m69.86 42.05c0 14.65-11.88 26.53-26.52 26.53-14.66 0-26.54-11.88-26.54-26.53s11.88-26.53 26.54-26.53c14.64-0.01 26.52 11.87 26.52 26.53"/>
			<path class="st55" d="m69.71 42.05c0 14.57-11.81 26.38-26.38 26.38s-26.39-11.81-26.39-26.38 11.81-26.38 26.39-26.38c14.57-0.01 26.38 11.8 26.38 26.38"/>
			<path class="st56" d="m69.56 42.05c0 14.49-11.74 26.23-26.23 26.23s-26.24-11.75-26.24-26.23c0-14.49 11.75-26.23 26.24-26.23 14.49-0.01 26.23 11.74 26.23 26.23"/>
			<path class="st57" d="m69.41 42.05c0 14.4-11.68 26.08-26.08 26.08-14.41 0-26.09-11.68-26.09-26.08 0-14.41 11.68-26.09 26.09-26.09s26.08 11.68 26.08 26.09"/>
			<path class="st57" d="m69.26 42.05c0 14.32-11.61 25.93-25.93 25.93-14.33 0-25.94-11.61-25.94-25.93s11.61-25.94 25.94-25.94c14.32 0 25.93 11.61 25.93 25.94"/>
			<path class="st58" d="m69.11 42.05c0 14.24-11.54 25.78-25.78 25.78s-25.79-11.54-25.79-25.78 11.55-25.79 25.79-25.79 25.78 11.54 25.78 25.79"/>
			<path class="st59" d="m68.97 42.05c0 14.16-11.48 25.63-25.63 25.63-14.16 0-25.64-11.48-25.64-25.63 0-14.16 11.48-25.64 25.64-25.64 14.15 0 25.63 11.48 25.63 25.64"/>
			<path class="st60" d="m68.82 42.05c0 14.07-11.41 25.49-25.48 25.49-14.08 0-25.49-11.41-25.49-25.49s11.41-25.49 25.49-25.49c14.07 0 25.48 11.41 25.48 25.49"/>
			<path class="st61" d="m68.67 42.05c0 13.99-11.34 25.34-25.33 25.34-14 0-25.34-11.34-25.34-25.34 0-13.99 11.34-25.34 25.34-25.34 13.98 0 25.33 11.34 25.33 25.34"/>
			<path class="st62" d="m68.52 42.05c0 13.91-11.28 25.19-25.18 25.19-13.91 0-25.19-11.28-25.19-25.19s11.28-25.19 25.19-25.19c13.9 0 25.18 11.27 25.18 25.19"/>
			<path class="st63" d="m68.37 42.05c0 13.83-11.21 25.04-25.03 25.04-13.83 0-25.04-11.21-25.04-25.04s11.21-25.04 25.04-25.04c13.82 0 25.03 11.21 25.03 25.04"/>
			<path class="st64" d="m68.22 42.05c0 13.74-11.14 24.89-24.88 24.89-13.75 0-24.89-11.14-24.89-24.89 0-13.74 11.15-24.89 24.89-24.89s24.88 11.14 24.88 24.89"/>
			<path class="st65" d="m68.07 42.05c0 13.66-11.08 24.74-24.73 24.74-13.66 0-24.74-11.08-24.74-24.74s11.08-24.74 24.74-24.74c13.65 0 24.73 11.07 24.73 24.74"/>
			<path class="st66" d="m67.92 42.05c0 13.58-11.01 24.59-24.58 24.59-13.58 0-24.59-11.01-24.59-24.59s11.01-24.59 24.59-24.59c13.57 0 24.58 11 24.58 24.59"/>
			<path class="st67" d="m67.77 42.05c0 13.5-10.94 24.44-24.43 24.44-13.5 0-24.44-10.94-24.44-24.44s10.94-24.44 24.44-24.44c13.49-0.01 24.43 10.94 24.43 24.44"/>
			<path class="st68" d="m67.62 42.05c0 13.41-10.87 24.29-24.28 24.29-13.42 0-24.29-10.88-24.29-24.29s10.88-24.29 24.29-24.29c13.41-0.01 24.28 10.87 24.28 24.29"/>
			<path class="st69" d="m67.47 42.05c0 13.33-10.81 24.14-24.13 24.14-13.33 0-24.15-10.81-24.15-24.14 0-13.34 10.81-24.15 24.15-24.15 13.32 0 24.13 10.81 24.13 24.15"/>
			<path class="st69" d="m67.32 42.05c0 13.25-10.74 23.99-23.98 23.99-13.25 0-24-10.74-24-23.99s10.74-23.99 24-23.99c13.24-0.01 23.98 10.74 23.98 23.99"/>
			<path class="st70" d="m67.17 42.05c0 13.16-10.67 23.84-23.83 23.84-13.17 0-23.85-10.68-23.85-23.84 0-13.17 10.68-23.84 23.85-23.84 13.16-0.01 23.83 10.67 23.83 23.84"/>
			<path class="st71" d="m67.02 42.05c0 13.08-10.61 23.69-23.69 23.69-13.09 0-23.7-10.61-23.7-23.69s10.61-23.69 23.7-23.69c13.09-0.01 23.69 10.6 23.69 23.69"/>
			<path class="st71" d="m66.87 42.05c0 13-10.54 23.54-23.54 23.54s-23.55-10.54-23.55-23.54 10.54-23.54 23.55-23.54c13-0.01 23.54 10.53 23.54 23.54"/>
			<path class="st72" d="m66.72 42.05c0 12.92-10.47 23.39-23.39 23.39s-23.4-10.47-23.4-23.39 10.48-23.39 23.4-23.39c12.92-0.01 23.39 10.46 23.39 23.39"/>
			<path class="st72" d="m66.57 42.05c0 12.84-10.41 23.24-23.24 23.24-12.84 0-23.25-10.41-23.25-23.24 0-12.84 10.41-23.24 23.25-23.24 12.84-0.01 23.24 10.4 23.24 23.24"/>
			<path class="st73" d="m66.42 42.05c0 12.75-10.34 23.09-23.09 23.09-12.76 0-23.1-10.34-23.1-23.09 0-12.76 10.34-23.1 23.1-23.1s23.09 10.34 23.09 23.1"/>
			<path class="st74" d="m66.27 42.05c0 12.67-10.27 22.94-22.94 22.94s-22.95-10.27-22.95-22.94 10.27-22.95 22.95-22.95c12.67 0 22.94 10.27 22.94 22.95"/>
			<path class="st74" d="m66.13 42.05c0 12.59-10.21 22.79-22.79 22.79-12.59 0-22.8-10.21-22.8-22.79 0-12.59 10.21-22.8 22.8-22.8 12.58 0 22.79 10.2 22.79 22.8"/>
			<path class="st75" d="m65.98 42.05c0 12.51-10.14 22.64-22.64 22.64-12.51 0-22.65-10.14-22.65-22.64 0-12.51 10.14-22.65 22.65-22.65 12.5 0 22.64 10.14 22.64 22.65"/>
			<path class="st75" d="m65.83 42.05c0 12.42-10.07 22.5-22.49 22.5-12.43 0-22.5-10.07-22.5-22.5s10.07-22.5 22.5-22.5c12.42 0 22.49 10.07 22.49 22.5"/>
			<path class="st76" d="m65.68 42.05c0 12.34-10.01 22.35-22.34 22.35-12.34 0-22.35-10.01-22.35-22.35s10.01-22.35 22.35-22.35c12.33 0 22.34 10 22.34 22.35"/>
			<path class="st77" d="m65.53 42.05c0 12.26-9.94 22.2-22.19 22.2-12.26 0-22.2-9.94-22.2-22.2s9.94-22.2 22.2-22.2c12.25 0 22.19 9.94 22.19 22.2"/>
			<path class="st78" d="m65.38 42.05c0 12.18-9.87 22.05-22.04 22.05-12.18 0-22.05-9.87-22.05-22.05-0.01-12.18 9.87-22.05 22.05-22.05 12.17 0 22.04 9.87 22.04 22.05"/>
			<path class="st79" d="m65.23 42.05c0 12.09-9.8 21.9-21.89 21.9-12.1 0-21.9-9.81-21.9-21.9s9.81-21.9 21.9-21.9c12.08 0 21.89 9.8 21.89 21.9"/>
			<path class="st80" d="m65.08 42.05c0 12.01-9.74 21.75-21.74 21.75-12.01 0-21.75-9.74-21.75-21.75s9.74-21.75 21.75-21.75c12-0.01 21.74 9.73 21.74 21.75"/>
			<path class="st80" d="m64.93 42.05c0 11.93-9.67 21.6-21.59 21.6-11.93 0-21.61-9.67-21.61-21.6s9.67-21.6 21.61-21.6c11.92 0 21.59 9.67 21.59 21.6"/>
			<path class="st81" d="m64.78 42.05c0 11.85-9.6 21.45-21.44 21.45-11.85 0-21.46-9.6-21.46-21.45s9.61-21.45 21.46-21.45c11.84-0.01 21.44 9.6 21.44 21.45"/>
			<path class="st82" d="m64.63 42.05c0 11.76-9.54 21.3-21.29 21.3-11.77 0-21.31-9.54-21.31-21.3s9.54-21.3 21.31-21.3c11.75-0.01 21.29 9.53 21.29 21.3"/>
			<path class="st82" d="m64.48 42.05c0 11.68-9.47 21.15-21.14 21.15-11.68 0-21.16-9.47-21.16-21.15s9.47-21.15 21.16-21.15c11.67-0.01 21.14 9.46 21.14 21.15"/>
			<path class="st83" d="m64.33 42.05c0 11.6-9.4 21-20.99 21-11.6 0-21.01-9.4-21.01-21s9.41-21 21.01-21c11.59-0.01 20.99 9.4 20.99 21"/>
			<path class="st83" d="m64.18 42.05c0 11.51-9.34 20.85-20.84 20.85-11.52 0-20.86-9.34-20.86-20.85 0-11.52 9.34-20.85 20.86-20.85 11.51-0.01 20.84 9.33 20.84 20.85"/>
			<path class="st84" d="m64.03 42.05c0 11.43-9.27 20.7-20.7 20.7-11.44 0-20.71-9.27-20.71-20.7s9.27-20.7 20.71-20.7c11.43-0.01 20.7 9.26 20.7 20.7"/>
			<path class="st85" d="m63.88 42.05c0 11.35-9.2 20.55-20.55 20.55s-20.56-9.2-20.56-20.55 9.2-20.55 20.56-20.55c11.35-0.01 20.55 9.19 20.55 20.55"/>
			<path class="st85" d="m63.73 42.05c0 11.27-9.13 20.4-20.4 20.4s-20.41-9.13-20.41-20.4 9.14-20.4 20.41-20.4c11.27-0.01 20.4 9.13 20.4 20.4"/>
			<path class="st86" d="m63.58 42.05c0 11.19-9.07 20.25-20.25 20.25-11.19 0-20.26-9.07-20.26-20.25s9.07-20.26 20.26-20.26 20.25 9.07 20.25 20.26"/>
			<path class="st86" d="m63.44 42.05c0 11.1-9 20.1-20.1 20.1-11.11 0-20.11-9-20.11-20.1s9-20.11 20.11-20.11c11.09 0 20.1 9 20.1 20.11"/>
			<path class="st87" d="m63.29 42.05c0 11.02-8.94 19.95-19.95 19.95-11.02 0-19.96-8.93-19.96-19.95s8.94-19.96 19.96-19.96c11.01 0 19.95 8.93 19.95 19.96"/>
			<path class="st88" d="m63.14 42.05c0 10.94-8.87 19.8-19.8 19.8-10.94 0-19.81-8.87-19.81-19.8 0-10.94 8.87-19.81 19.81-19.81 10.93 0 19.8 8.87 19.8 19.81"/>
			<path class="st89" d="m62.99 42.05c0 10.86-8.8 19.66-19.65 19.66-10.86 0-19.66-8.8-19.66-19.66s8.8-19.66 19.66-19.66c10.85 0 19.65 8.8 19.65 19.66"/>
			<path class="st90" d="m62.84 42.05c0 10.77-8.73 19.51-19.5 19.51-10.78 0-19.51-8.73-19.51-19.51 0-10.77 8.74-19.51 19.51-19.51 10.76 0 19.5 8.73 19.5 19.51"/>
			<path class="st91" d="m62.69 42.05c0 10.69-8.67 19.36-19.35 19.36-10.69 0-19.36-8.67-19.36-19.36s8.67-19.36 19.36-19.36c10.68 0 19.35 8.66 19.35 19.36"/>
			<path class="st92" d="m62.54 42.05c0 10.61-8.6 19.21-19.2 19.21-10.61 0-19.21-8.6-19.21-19.21s8.6-19.21 19.21-19.21c10.6 0 19.2 8.6 19.2 19.21"/>
			<path class="st93" d="m62.39 42.05c0 10.53-8.53 19.06-19.05 19.06-10.53 0-19.06-8.53-19.06-19.06s8.53-19.06 19.06-19.06c10.52 0 19.05 8.53 19.05 19.06"/>
			<path class="st94" d="m62.24 42.05c0 10.44-8.47 18.91-18.9 18.91-10.44 0-18.91-8.47-18.91-18.91s8.47-18.91 18.91-18.91c10.43 0 18.9 8.46 18.9 18.91"/>
			<path class="st95" d="m62.09 42.05c0 10.36-8.4 18.76-18.75 18.76-10.36 0-18.76-8.4-18.76-18.76s8.4-18.76 18.76-18.76c10.35 0 18.75 8.39 18.75 18.76"/>
			<path class="st96" d="m61.94 42.05c0 10.28-8.33 18.61-18.6 18.61-10.28 0-18.62-8.33-18.62-18.61s8.34-18.61 18.62-18.61c10.27-0.01 18.6 8.33 18.6 18.61"/>
			<path class="st96" d="m61.79 42.05c0 10.2-8.26 18.46-18.45 18.46-10.2 0-18.47-8.26-18.47-18.46s8.27-18.46 18.47-18.46c10.19-0.01 18.45 8.26 18.45 18.46"/>
			<path class="st97" d="m61.64 42.05c0 10.11-8.2 18.31-18.3 18.31-10.11 0-18.32-8.2-18.32-18.31s8.2-18.31 18.32-18.31c10.1-0.01 18.3 8.19 18.3 18.31"/>
			<path class="st98" d="m61.49 42.05c0 10.03-8.13 18.16-18.16 18.16s-18.17-8.13-18.17-18.16 8.13-18.16 18.17-18.16c10.03-0.01 18.16 8.13 18.16 18.16"/>
			<path class="st98" d="m61.34 42.05c0 9.95-8.06 18.01-18.01 18.01s-18.02-8.06-18.02-18.01 8.07-18.01 18.02-18.01c9.95-0.01 18.01 8.06 18.01 18.01"/>
			<path class="st99" d="m61.19 42.05c0 9.86-8 17.86-17.85 17.86-9.87 0-17.87-8-17.87-17.86s8-17.86 17.87-17.86c9.86-0.01 17.85 7.99 17.85 17.86"/>
			<path class="st100" d="m61.04 42.05c0 9.78-7.93 17.71-17.71 17.71s-17.72-7.93-17.72-17.71 7.93-17.71 17.72-17.71c9.78-0.01 17.71 7.92 17.71 17.71"/>
			<path class="st101" d="m60.89 42.05c0 9.7-7.86 17.56-17.56 17.56s-17.57-7.86-17.57-17.56 7.87-17.56 17.57-17.56c9.7-0.01 17.56 7.86 17.56 17.56"/>
			<path class="st102" d="m60.74 42.05c0 9.62-7.8 17.41-17.41 17.41-9.62 0-17.42-7.8-17.42-17.41 0-9.62 7.8-17.42 17.42-17.42s17.41 7.8 17.41 17.42"/>
			<path class="st102" d="m60.59 42.05c0 9.53-7.73 17.26-17.26 17.26-9.54 0-17.27-7.73-17.27-17.26s7.73-17.26 17.27-17.26c9.53-0.01 17.26 7.72 17.26 17.26"/>
			<path class="st103" d="m60.45 42.05c0 9.45-7.66 17.11-17.11 17.11s-17.12-7.66-17.12-17.11 7.67-17.11 17.12-17.11c9.44-0.01 17.11 7.65 17.11 17.11"/>
			<path class="st104" d="m60.3 42.05c0 9.37-7.6 16.96-16.96 16.96-9.37 0-16.97-7.59-16.97-16.96s7.6-16.97 16.97-16.97c9.36 0 16.96 7.59 16.96 16.97"/>
			<path class="st105" d="m60.15 42.05c0 9.29-7.53 16.82-16.81 16.82-9.29 0-16.82-7.53-16.82-16.82s7.53-16.82 16.82-16.82c9.28 0 16.81 7.53 16.81 16.82"/>
			<path class="st106" d="m60 42.05c0 9.2-7.46 16.67-16.66 16.67-9.21 0-16.67-7.46-16.67-16.67s7.47-16.67 16.67-16.67 16.66 7.46 16.66 16.67"/>
			<path class="st107" d="m59.85 42.05c0 9.12-7.4 16.52-16.51 16.52-9.13 0-16.52-7.39-16.52-16.52s7.4-16.52 16.52-16.52c9.11 0 16.51 7.39 16.51 16.52"/>
			<path class="st108" d="m59.7 42.05c0 9.04-7.33 16.37-16.36 16.37-9.04 0-16.37-7.33-16.37-16.37s7.33-16.37 16.37-16.37c9.03 0 16.36 7.32 16.36 16.37"/>
			<path class="st109" d="m59.55 42.05c0 8.96-7.26 16.22-16.21 16.22-8.96 0-16.22-7.26-16.22-16.22s7.26-16.22 16.22-16.22c8.95 0 16.21 7.26 16.21 16.22"/>
			<path class="st110" d="m59.4 42.05c0 8.87-7.2 16.07-16.06 16.07-8.88 0-16.07-7.19-16.07-16.07s7.2-16.07 16.07-16.07c8.86 0 16.06 7.19 16.06 16.07"/>
			<path class="st110" d="m59.25 42.05c0 8.79-7.13 15.92-15.91 15.92-8.79 0-15.92-7.13-15.92-15.92s7.13-15.92 15.92-15.92c8.78 0 15.91 7.12 15.91 15.92"/>
			<path class="st111" d="m59.1 42.05c0 8.71-7.06 15.77-15.76 15.77-8.71 0-15.78-7.06-15.78-15.77s7.06-15.77 15.78-15.77c8.7 0 15.76 7.06 15.76 15.77"/>
			<path class="st111" d="m58.95 42.05c0 8.63-6.99 15.62-15.61 15.62-8.63 0-15.63-6.99-15.63-15.62s7-15.62 15.63-15.62c8.62-0.01 15.61 6.99 15.61 15.62"/>
			<path class="st112" d="m58.8 42.05c0 8.54-6.93 15.47-15.46 15.47-8.55 0-15.48-6.93-15.48-15.47s6.93-15.47 15.48-15.47c8.53-0.01 15.46 6.92 15.46 15.47"/>
			<path class="st113" d="m58.65 42.05c0 8.46-6.86 15.32-15.31 15.32-8.46 0-15.33-6.86-15.33-15.32s6.86-15.32 15.33-15.32c8.45-0.01 15.31 6.85 15.31 15.32"/>
			<path class="st113" d="m58.5 42.05c0 8.38-6.79 15.17-15.17 15.17s-15.18-6.79-15.18-15.17 6.8-15.17 15.18-15.17c8.38-0.01 15.17 6.79 15.17 15.17"/>
			<path class="st114" d="m58.35 42.05c0 8.3-6.73 15.02-15.02 15.02-8.3 0-15.03-6.72-15.03-15.02s6.73-15.02 15.03-15.02c8.3-0.01 15.02 6.72 15.02 15.02"/>
			<path class="st115" d="m62.14 42.05c0 10.38-8.42 18.81-18.81 18.81s-18.81-8.42-18.81-18.81 8.42-18.81 18.81-18.81 18.81 8.42 18.81 18.81"/>
			<path class="st116" d="m39.08 24.2c0 4.57-3.71 8.27-8.28 8.27s-8.27-3.7-8.27-8.27 3.7-8.27 8.27-8.27 8.28 3.7 8.28 8.27"/>
		
	


	
		
			<path class="st1" d="m126.7 44.79c-2.49 0.84-7.09 1.99-11.87 1.99-6.49 0-11.11-1.58-14.29-4.61-2.96-2.77-4.59-6.7-4.59-11.07 0-10.16 8.02-16.54 19.57-16.54 4.63 0 8.22 0.87 9.98 1.7l-1.64 5.86c-2.03-0.86-4.46-1.55-8.58-1.55-6.55 0-11.47 3.5-11.47 9.92 0 6.16 4.5 10.33 11.34 10.33 1.97 0 3.57-0.23 4.24-0.54v-6.31h-5.56v-5.75h12.87v16.57z"/>
			<rect class="st1" x="132.7" y="12.93" width="6.02" height="33.52"/>
			<path class="st1" d="m156.4 42.71c-3.7 0-6.4-3.05-6.4-7.62 0-3.97 2.03-7.7 6.54-7.7 4.44 0 6.36 3.92 6.36 7.6 0 4.97-2.87 7.72-6.44 7.72h-0.06zm-0.05 4.3c6.57 0 12.84-4.13 12.84-12.24 0-6.71-4.97-11.68-12.42-11.68-7.74 0-12.96 4.94-12.96 12.17 0 7.19 5.53 11.75 12.5 11.75h0.04z"/>
			<path class="st1" d="m180.3 33.78c0-0.58 0.08-1.05 0.19-1.5 0.72-2.89 3.23-4.62 5.92-4.62 4.26 0 6.51 3.33 6.51 7.27 0 4.61-2.6 7.38-6.6 7.38-3.03 0-5.3-2.1-5.89-4.41-0.09-0.43-0.13-0.88-0.13-1.33v-2.79zm-6.02 6.2c0 2.49-0.08 4.99-0.19 6.47h5.14l0.25-3.63h0.09c1.83 3.05 4.86 4.2 8.08 4.2 5.57 0 11.4-4.06 11.4-12.29 0.05-7.02-4.48-11.63-10.55-11.63-3.83 0-6.63 1.59-8.11 3.92h-0.09v-14.09h-6.02v27.05z"/>
			<path class="st1" d="m217.2 38.15c0 0.4-0.04 0.87-0.17 1.28-0.61 1.64-2.41 3.34-5.06 3.34-2.06 0-3.56-1.09-3.56-3.21 0-3.31 4.01-4.27 8.79-4.19v2.78zm5.84-5.2c0-5.05-2.28-9.86-10.08-9.86-3.86 0-6.99 1-8.92 2.15l1.2 3.85c1.66-1.04 4.32-1.85 6.76-1.85 4.56-0.02 5.04 2.75 5.04 3.95v0.3c-9.47-0.06-14.66 3-14.66 8.71 0 3.31 2.6 6.79 7.68 6.79 3.27 0 5.88-1.36 7.35-3.18h0.15l0.43 2.61h5.43c-0.25-1.37-0.37-3.42-0.37-5.59v-7.88z"/>
			<rect class="st1" x="229.7" y="12.93" width="6.02" height="33.52"/>
			<path class="st1" d="m242.9 38.73c2.1 1.11 5.32 2.24 8.82 2.24 3.4 0 5.23-1.32 5.23-3.39 0-1.83-1.53-2.97-5.68-4.17-5.58-1.61-9.62-4.33-9.62-9.52 0-5.48 4.91-9.54 12.6-9.54 4.1 0 6.91 0.76 9.08 1.74l-1.77 5.87c-1.37-0.61-3.94-1.64-7.45-1.64-3.26 0-4.82 1.39-4.82 2.98 0 2.04 2.01 2.89 6.34 4.27 6.05 1.94 9 4.75 9 9.59 0 5.09-3.96 9.86-13.49 9.86-3.92 0-7.88-1.08-9.87-2.19l1.63-6.1z"/>
			<path class="st1" d="m270 23.66h6.03v22.79h-6.03v-22.79zm2.97-3.53c-2.14 0-3.48-1.51-3.48-3.32s1.38-3.3 3.55-3.3 3.5 1.47 3.52 3.3c0 1.8-1.34 3.32-3.55 3.32h-0.04z"/>
			<path class="st1" d="m299.2 35.96c0 0.65-0.08 1.46-0.26 2.06-0.68 2.15-2.78 3.86-5.35 3.86-4.17 0-6.29-3.4-6.29-6.91 0-4.77 2.84-7.42 6.3-7.42 2.77 0 4.73 1.67 5.43 4.08 0.12 0.46 0.16 0.97 0.16 1.52v2.81zm6.02-5.96c0-3.13 0.07-4.91 0.19-6.34h-5.25l-0.19 3.24h-0.1c-1.19-1.99-3.45-3.8-7.43-3.8-5.98 0-11.26 4.7-11.26 12.08 0 6.57 4.6 11.12 10.58 11.12 3.42 0 5.98-1.51 7.46-3.64h0.09v2c0 5.13-3.25 7.13-7.25 7.13-3.06 0-5.82-1.01-7.43-2.02l-1.32 4.57c2.12 1.34 5.59 2.04 8.77 2.04 3.2 0 6.83-0.57 9.5-2.87 2.64-2.3 3.65-5.99 3.65-10.57v-12.94z"/>
			<path class="st1" d="m311.9 30.55c0-2.65-0.08-4.94-0.19-6.9h5.27l0.29 3.67h0.15c0.98-1.75 3.64-4.23 7.88-4.23 4.04 0 8.86 2.43 8.86 10.28v13.07h-6.02v-12.32c0-3.6-1.44-6.18-4.9-6.18-2.65 0-4.4 1.84-5.05 3.58-0.2 0.46-0.28 1.15-0.28 1.75v13.19h-6.02v-15.91z"/>
			<path class="st115" d="m340.5 41.97c0 3.39 3.92 5.87 7.46 3.15 2.72-3.54 0.23-7.46-3.15-7.46-2.38 0-4.31 1.94-4.31 4.31m0.49 0c0-3 3.47-5.2 6.61-2.8 2.41 3.14 0.21 6.62-2.79 6.62-2.11 0-3.82-1.71-3.82-3.82"/>
			<path class="st115" d="m343.6 40.03h1.57c0.37 0 0.64 0.07 0.81 0.23s0.25 0.35 0.25 0.59c0 0.16-0.04 0.31-0.13 0.45s-0.22 0.24-0.38 0.3c-0.17 0.07-0.41 0.1-0.71 0.1h-1.41v-1.67zm0 4.43v-2.21h0.76c0.17 0 0.29 0.01 0.37 0.02 0.1 0.03 0.2 0.07 0.3 0.13 0.1 0.07 0.2 0.18 0.33 0.34 0.12 0.16 0.28 0.39 0.47 0.68l0.65 1.03h0.82l-0.86-1.35c-0.17-0.26-0.35-0.48-0.54-0.66-0.09-0.08-0.23-0.16-0.4-0.25 0.48-0.07 0.83-0.22 1.05-0.47 0.23-0.24 0.34-0.54 0.34-0.9 0-0.28-0.07-0.53-0.21-0.76-0.13-0.23-0.32-0.38-0.55-0.48-0.23-0.09-0.57-0.13-1.01-0.13h-2.21v4.99h0.69z"/>
		
	

</svg>
