<svg version="1.1" id="Layer_1" xmlns:x="ns_extend;" xmlns:i="ns_ai;" xmlns:graph="ns_graphs;" xmlns="http://www.w3.org/2000/svg" xmlns:xlink="http://www.w3.org/1999/xlink" x="0px" y="0px" viewBox="0 0 200.1 55.1" style="enable-background:new 0 0 200.1 55.1;" xml:space="preserve">
 <style type="text/css">
  .st0{fill:#676767;}
	.st1{fill:#F16823;}
 </style>
 <metadata>
  <sfw xmlns="ns_sfw;">
   <slices>
   </slices>
   <sliceSourceBounds bottomLeftOrigin="true" height="55.1" width="200.1" x="0" y="0.1">
   </sliceSourceBounds>
  </sfw>
 </metadata>
 <g>
  <g>
   <path class="st0" d="M23.8,39.7c0.1,0,0.2,0,0.3,0c0.1,0,0.2,0,0.3,0c0.1,0,0.2,0,0.3,0c0.1,0,0.2,0,0.3,0v4.9h6.2v-4.9
			c0.1,0,0.2,0,0.3,0c0.1,0,0.2,0,0.3,0c0.1,0,0.2,0,0.3,0c0.1,0,0.2,0,0.3,0v11.6c-0.1,0-0.2,0-0.3,0c-0.1,0-0.2,0-0.3,0
			c-0.1,0-0.2,0-0.3,0c-0.1,0-0.2,0-0.3,0v-5.7H25v5.7c-0.1,0-0.2,0-0.3,0c-0.1,0-0.2,0-0.3,0c-0.1,0-0.2,0-0.3,0
			c-0.1,0-0.2,0-0.3,0C23.8,51.3,23.8,39.7,23.8,39.7z">
   </path>
   <path class="st0" d="M34.9,43c0.1,0,0.2,0,0.3,0c0.1,0,0.2,0,0.3,0c0.1,0,0.2,0,0.3,0s0.2,0,0.3,0v4.6c0,0.6,0.1,1.1,0.2,1.4
			c0.1,0.4,0.3,0.7,0.6,0.9s0.6,0.4,0.9,0.4c0.4,0.1,0.8,0.1,1.2,0.1c0.4,0,0.7,0,1-0.1c0.3,0,0.6-0.1,0.8-0.2V43c0.1,0,0.2,0,0.3,0
			c0.1,0,0.2,0,0.3,0c0.1,0,0.2,0,0.3,0c0.1,0,0.2,0,0.3,0v8c-0.4,0.1-0.9,0.2-1.4,0.3c-0.5,0.1-1.1,0.1-1.6,0.1
			c-0.5,0-1.1-0.1-1.5-0.1c-0.5-0.1-0.9-0.3-1.3-0.6c-0.4-0.3-0.6-0.7-0.8-1.1c-0.2-0.5-0.3-1.1-0.3-1.9L34.9,43L34.9,43L34.9,43z">
   </path>
   <path class="st0" d="M44.3,43c0.1,0,0.2,0,0.3,0c0.1,0,0.2,0,0.3,0c0.1,0,0.2,0,0.3,0c0.1,0,0.2,0,0.3,0c0,0.2,0,0.4,0.1,0.7
			c0,0.3,0,0.5,0,0.7c0.1-0.2,0.2-0.4,0.4-0.6c0.2-0.2,0.4-0.4,0.6-0.5c0.2-0.2,0.5-0.3,0.8-0.4c0.3-0.1,0.6-0.1,1-0.1
			c0.3,0,0.6,0,0.9,0.1c0.2,0.1,0.5,0.2,0.6,0.3c0.2,0.1,0.3,0.3,0.5,0.5c0.1,0.2,0.2,0.4,0.3,0.6c0.1-0.2,0.3-0.3,0.4-0.5
			c0.2-0.2,0.3-0.3,0.6-0.5c0.2-0.1,0.5-0.3,0.7-0.4c0.3-0.1,0.6-0.1,0.9-0.1c1,0,1.8,0.3,2.2,0.8C55.7,44.2,56,45,56,46v5.3
			c-0.1,0-0.2,0-0.3,0c-0.1,0-0.2,0-0.3,0c-0.1,0-0.2,0-0.3,0c-0.1,0-0.2,0-0.3,0v-4.9c0-0.9-0.2-1.5-0.5-1.9
			C54,44,53.6,43.8,53,43.8c-0.4,0-0.7,0.1-1,0.2c-0.3,0.1-0.5,0.3-0.7,0.6c-0.2,0.2-0.3,0.5-0.4,0.8c-0.1,0.3-0.2,0.7-0.2,1v4.8
			c-0.1,0-0.2,0-0.3,0c-0.1,0-0.2,0-0.3,0c-0.1,0-0.2,0-0.3,0c-0.1,0-0.2,0-0.3,0v-5.1c0-0.8-0.1-1.4-0.4-1.8s-0.7-0.6-1.2-0.6
			c-0.4,0-0.7,0.1-1,0.2s-0.6,0.4-0.8,0.7c-0.2,0.3-0.4,0.7-0.5,1.1c-0.1,0.4-0.2,0.9-0.2,1.4v4.1c-0.1,0-0.2,0-0.3,0
			c-0.1,0-0.2,0-0.3,0c-0.1,0-0.2,0-0.3,0c-0.1,0-0.2,0-0.3,0L44.3,43L44.3,43L44.3,43z">
   </path>
   <path class="st0" d="M63,45.8c0-0.7-0.2-1.2-0.5-1.6c-0.4-0.3-0.9-0.5-1.6-0.5c-0.5,0-0.9,0-1.3,0.1c-0.4,0.1-0.7,0.1-1,0.2
			c-0.1-0.1-0.1-0.2-0.2-0.4c0-0.2-0.1-0.4-0.1-0.5c0.3-0.1,0.7-0.2,1.1-0.2c0.4-0.1,0.9-0.1,1.4-0.1c1.1,0,2,0.2,2.5,0.7
			c0.5,0.5,0.8,1.2,0.8,2.2v5.5c-0.4,0.1-0.9,0.2-1.5,0.2c-0.6,0.1-1.1,0.1-1.7,0.1c-1.1,0-1.9-0.2-2.6-0.6c-0.6-0.4-0.9-1-0.9-1.9
			c0-0.4,0.1-0.8,0.3-1.2s0.4-0.6,0.8-0.9c0.3-0.2,0.7-0.4,1.2-0.5s0.9-0.2,1.5-0.2c0.4,0,0.8,0,1.1,0s0.6,0.1,0.8,0.1L63,45.8
			L63,45.8z M63,47.3c-0.2,0-0.4,0-0.7-0.1s-0.6,0-0.8,0c-0.9,0-1.6,0.2-2,0.5c-0.5,0.3-0.7,0.7-0.7,1.3c0,0.4,0.1,0.6,0.2,0.9
			c0.1,0.2,0.3,0.4,0.6,0.5c0.2,0.1,0.5,0.2,0.8,0.2s0.6,0.1,0.8,0.1c0.4,0,0.7,0,1-0.1c0.3,0,0.6-0.1,0.9-0.1L63,47.3L63,47.3z">
   </path>
   <path class="st0" d="M66.3,43c0.1,0,0.2,0,0.3,0c0.1,0,0.2,0,0.3,0c0.1,0,0.2,0,0.3,0s0.2,0,0.3,0c0,0.2,0,0.4,0.1,0.7
			c0,0.3,0,0.5,0,0.8c0.1-0.2,0.3-0.4,0.5-0.6c0.2-0.2,0.4-0.4,0.7-0.5c0.2-0.2,0.5-0.3,0.9-0.4c0.3-0.1,0.7-0.2,1.1-0.2
			c1,0,1.8,0.3,2.2,0.8c0.5,0.6,0.7,1.4,0.7,2.4v5.2c-0.1,0-0.2,0-0.3,0c-0.1,0-0.2,0-0.3,0c-0.1,0-0.2,0-0.3,0c-0.1,0-0.2,0-0.3,0
			v-4.9c0-0.9-0.2-1.6-0.5-2c-0.3-0.4-0.8-0.6-1.4-0.6c-0.4,0-0.8,0.1-1.2,0.2c-0.4,0.1-0.7,0.4-0.9,0.7c-0.3,0.3-0.5,0.6-0.6,1.1
			c-0.2,0.4-0.2,0.9-0.2,1.4v4.1c-0.1,0-0.2,0-0.3,0c-0.1,0-0.2,0-0.3,0c-0.1,0-0.2,0-0.3,0c-0.1,0-0.2,0-0.3,0L66.3,43
			C66.3,43,66.3,43,66.3,43z">
   </path>
   <path class="st0" d="M79.9,47.3c0,1.1,0.3,1.9,0.8,2.4c0.5,0.5,1.4,0.8,2.5,0.8c0.4,0,0.9,0,1.2-0.1c0.4-0.1,0.8-0.2,1.1-0.3
			c0.1,0.1,0.1,0.3,0.1,0.4c0,0.2,0.1,0.3,0.1,0.5c-0.3,0.1-0.7,0.2-1.2,0.3c-0.5,0.1-0.9,0.1-1.5,0.1c-0.8,0-1.4-0.1-2-0.3
			c-0.6-0.2-1-0.5-1.4-0.9s-0.6-0.8-0.8-1.4c-0.2-0.5-0.3-1.1-0.3-1.7c0-0.6,0.1-1.2,0.2-1.7s0.4-1,0.7-1.4s0.7-0.7,1.2-0.9
			c0.5-0.2,1.1-0.3,1.8-0.3c0.6,0,1.1,0.1,1.6,0.3c0.5,0.2,0.8,0.4,1.1,0.8c0.3,0.3,0.5,0.7,0.7,1.2c0.2,0.5,0.2,1,0.2,1.5
			c0,0.1,0,0.2,0,0.4c0,0.2,0,0.3,0,0.4C86.3,47.3,79.9,47.3,79.9,47.3z M85.2,46.4c0-0.3,0-0.7-0.1-1s-0.2-0.6-0.4-0.8
			s-0.5-0.4-0.8-0.6c-0.3-0.2-0.7-0.2-1.1-0.2c-0.8,0-1.5,0.2-1.9,0.7c-0.5,0.5-0.7,1.1-0.8,2L85.2,46.4L85.2,46.4z">
   </path>
   <path class="st0" d="M88.1,43c0.1,0,0.2,0,0.3,0c0.1,0,0.2,0,0.3,0c0.1,0,0.2,0,0.3,0c0.1,0,0.2,0,0.3,0c0,0.2,0,0.4,0.1,0.7
			c0,0.3,0,0.5,0,0.7c0.2-0.4,0.6-0.7,1-1c0.4-0.3,1-0.4,1.7-0.4c0.1,0,0.1,0,0.2,0c0.1,0,0.1,0,0.2,0c0,0.2,0.1,0.4,0.1,0.5
			c0,0.2,0,0.3-0.1,0.5c-0.1,0-0.2,0-0.2,0s-0.1,0-0.2,0c-0.8,0-1.4,0.2-1.9,0.7s-0.7,1.2-0.7,2.3v4.2c-0.1,0-0.2,0-0.3,0
			c-0.1,0-0.2,0-0.3,0c-0.1,0-0.2,0-0.3,0c-0.1,0-0.2,0-0.3,0L88.1,43L88.1,43z">
   </path>
   <path class="st0" d="M93.5,43c0.1,0,0.2,0,0.3,0c0.1,0,0.2,0,0.3,0c0.1,0,0.2,0,0.3,0s0.2,0,0.3,0c0,0.2,0,0.4,0.1,0.7
			c0,0.3,0,0.5,0,0.7c0.2-0.4,0.6-0.7,1-1c0.4-0.3,1-0.4,1.7-0.4c0.1,0,0.1,0,0.2,0c0.1,0,0.1,0,0.2,0c0,0.2,0.1,0.4,0.1,0.5
			c0,0.2,0,0.3-0.1,0.5c-0.1,0-0.2,0-0.2,0c-0.1,0-0.1,0-0.2,0c-0.8,0-1.4,0.2-1.9,0.7s-0.7,1.2-0.7,2.3v4.2c-0.1,0-0.2,0-0.3,0
			c-0.1,0-0.2,0-0.3,0c-0.1,0-0.2,0-0.3,0c-0.1,0-0.2,0-0.3,0L93.5,43L93.5,43z">
   </path>
   <path class="st0" d="M102.3,51.5c-0.7,0-1.2-0.1-1.7-0.3c-0.5-0.2-0.9-0.5-1.3-0.9s-0.6-0.8-0.7-1.4c-0.2-0.5-0.2-1.1-0.2-1.7
			s0.1-1.2,0.2-1.7c0.2-0.5,0.4-1,0.7-1.4s0.7-0.7,1.3-0.9c0.5-0.2,1.1-0.3,1.7-0.3s1.2,0.1,1.7,0.3c0.5,0.2,0.9,0.5,1.2,0.9
			c0.3,0.4,0.6,0.8,0.8,1.4c0.2,0.5,0.3,1.1,0.3,1.7s-0.1,1.2-0.3,1.7c-0.2,0.5-0.4,1-0.8,1.4c-0.3,0.4-0.7,0.7-1.2,0.9
			C103.5,51.4,103,51.5,102.3,51.5z M102.3,50.5c0.9,0,1.6-0.3,2.1-0.9c0.5-0.6,0.7-1.4,0.7-2.5c0-1-0.2-1.9-0.7-2.5
			c-0.5-0.6-1.2-0.9-2.1-0.9c-0.9,0-1.6,0.3-2.1,0.9c-0.5,0.6-0.7,1.4-0.7,2.5s0.2,1.9,0.7,2.5C100.7,50.2,101.4,50.5,102.3,50.5z">
   </path>
   <path class="st0" d="M108.1,43c0.1,0,0.2,0,0.3,0c0.1,0,0.2,0,0.3,0c0.1,0,0.2,0,0.3,0c0.1,0,0.2,0,0.3,0c0,0.2,0,0.4,0.1,0.7
			s0,0.5,0,0.7c0.2-0.4,0.6-0.7,1-1c0.4-0.3,1-0.4,1.7-0.4c0.1,0,0.1,0,0.2,0s0.1,0,0.2,0c0,0.2,0.1,0.4,0.1,0.5
			c0,0.2,0,0.3-0.1,0.5c-0.1,0-0.2,0-0.2,0s-0.1,0-0.2,0c-0.8,0-1.4,0.2-1.9,0.7c-0.5,0.5-0.7,1.2-0.7,2.3v4.2c-0.1,0-0.2,0-0.3,0
			c-0.1,0-0.2,0-0.3,0c-0.1,0-0.2,0-0.3,0c-0.1,0-0.2,0-0.3,0L108.1,43L108.1,43z">
   </path>
   <path class="st0" d="M113,51.3c0-0.2-0.1-0.5-0.1-0.7c0-0.2,0-0.5,0.1-0.7c0.2,0,0.5-0.1,0.7-0.1c0.3,0,0.5,0,0.8,0.1
			c0,0.2,0.1,0.5,0.1,0.7c0,0.2,0,0.5-0.1,0.7c-0.2,0-0.5,0.1-0.7,0.1C113.5,51.3,113.2,51.3,113,51.3z">
   </path>
   <path class="st0" d="M128,50c0.1,0.2,0.2,0.3,0.2,0.5c0.1,0.2,0.1,0.3,0.2,0.5c-0.4,0.2-0.9,0.3-1.4,0.4c-0.5,0.1-1.1,0.2-1.7,0.2
			c-0.8,0-1.6-0.1-2.3-0.4c-0.7-0.3-1.3-0.6-1.8-1.1c-0.5-0.5-0.9-1.1-1.2-1.8c-0.3-0.7-0.4-1.6-0.4-2.5c0-1,0.1-1.8,0.4-2.6
			c0.3-0.8,0.7-1.4,1.2-1.9s1.1-0.9,1.8-1.2s1.5-0.4,2.4-0.4c0.7,0,1.3,0,1.8,0.1c0.5,0.1,0.8,0.2,1.1,0.2c0,0.2-0.1,0.4-0.1,0.5
			c0,0.1-0.1,0.3-0.2,0.5c-0.2,0-0.3-0.1-0.5-0.1s-0.3-0.1-0.5-0.1c-0.2,0-0.4-0.1-0.7-0.1c-0.3,0-0.6,0-0.9,0
			c-0.7,0-1.3,0.1-1.9,0.3c-0.5,0.2-1,0.6-1.4,1c-0.4,0.4-0.7,1-0.9,1.6c-0.2,0.6-0.3,1.4-0.3,2.2c0,0.8,0.1,1.6,0.3,2.2
			s0.6,1.1,1,1.5c0.4,0.4,0.9,0.7,1.5,0.9s1.2,0.3,1.8,0.3c0.5,0,1,0,1.5-0.1C127.3,50.2,127.7,50.1,128,50z">
   </path>
   <path class="st0" d="M132.6,51.5c-0.7,0-1.2-0.1-1.7-0.3c-0.5-0.2-0.9-0.5-1.3-0.9c-0.3-0.4-0.6-0.8-0.7-1.4
			c-0.2-0.5-0.2-1.1-0.2-1.7s0.1-1.2,0.2-1.7c0.2-0.5,0.4-1,0.7-1.4c0.3-0.4,0.7-0.7,1.3-0.9c0.5-0.2,1.1-0.3,1.7-0.3
			s1.2,0.1,1.7,0.3c0.5,0.2,0.9,0.5,1.2,0.9c0.3,0.4,0.6,0.8,0.8,1.4c0.2,0.5,0.3,1.1,0.3,1.7s-0.1,1.2-0.3,1.7
			c-0.2,0.5-0.4,1-0.8,1.4c-0.3,0.4-0.7,0.7-1.2,0.9C133.8,51.4,133.3,51.5,132.6,51.5z M132.6,50.5c0.9,0,1.6-0.3,2.1-0.9
			c0.5-0.6,0.7-1.4,0.7-2.5c0-1-0.2-1.9-0.7-2.5c-0.5-0.6-1.2-0.9-2.1-0.9s-1.6,0.3-2.1,0.9c-0.5,0.6-0.7,1.4-0.7,2.5
			s0.2,1.9,0.7,2.5C131,50.2,131.7,50.5,132.6,50.5z">
   </path>
   <path class="st0" d="M138.4,43c0.1,0,0.2,0,0.3,0c0.1,0,0.2,0,0.3,0c0.1,0,0.2,0,0.3,0c0.1,0,0.2,0,0.3,0c0,0.2,0,0.4,0.1,0.7
			s0,0.5,0,0.8c0.1-0.2,0.3-0.4,0.5-0.6s0.4-0.4,0.7-0.5c0.2-0.2,0.5-0.3,0.9-0.4c0.3-0.1,0.7-0.2,1.1-0.2c1,0,1.8,0.3,2.2,0.8
			c0.5,0.6,0.7,1.4,0.7,2.4v5.2c-0.1,0-0.2,0-0.3,0c-0.1,0-0.2,0-0.3,0c-0.1,0-0.2,0-0.3,0c-0.1,0-0.2,0-0.3,0v-4.9
			c0-0.9-0.2-1.6-0.5-2c-0.3-0.4-0.8-0.6-1.4-0.6c-0.4,0-0.8,0.1-1.2,0.2c-0.4,0.1-0.7,0.4-0.9,0.7c-0.3,0.3-0.5,0.6-0.6,1.1
			c-0.2,0.4-0.2,0.9-0.2,1.4v4.1c-0.1,0-0.2,0-0.3,0c-0.1,0-0.2,0-0.3,0c-0.1,0-0.2,0-0.3,0c-0.1,0-0.2,0-0.3,0L138.4,43
			C138.4,43,138.4,43,138.4,43z">
   </path>
   <path class="st0" d="M153.6,51.2c-0.3,0.1-0.6,0.1-0.9,0.2c-0.3,0-0.7,0.1-1,0.1c-0.6,0-1.2-0.1-1.7-0.2c-0.5-0.1-1-0.4-1.4-0.7
			c-0.4-0.3-0.7-0.7-1-1.3c-0.2-0.5-0.4-1.2-0.4-1.9c0-0.7,0.1-1.3,0.3-1.9c0.2-0.6,0.5-1,1-1.4c0.4-0.4,0.9-0.7,1.5-0.9
			c0.6-0.2,1.2-0.3,1.9-0.3c0.3,0,0.6,0,0.9,0c0.3,0,0.5,0,0.7,0.1c0.2,0,0.4,0.1,0.7,0.1c0.2,0,0.4,0.1,0.6,0.2v11.9
			c-0.1,0-0.2,0-0.3,0c-0.1,0-0.2,0-0.3,0c-0.1,0-0.2,0-0.3,0c-0.1,0-0.2,0-0.3,0L153.6,51.2L153.6,51.2z M153.6,43.9
			c-0.4-0.1-0.6-0.1-0.9-0.1c-0.2,0-0.5,0-0.8,0c-0.6,0-1.1,0.1-1.6,0.3c-0.4,0.2-0.8,0.4-1.1,0.8c-0.3,0.3-0.5,0.7-0.7,1.2
			c-0.1,0.5-0.2,1-0.2,1.5c0,0.5,0.1,1,0.2,1.4c0.2,0.4,0.4,0.7,0.7,0.9c0.3,0.2,0.6,0.4,1,0.6c0.4,0.1,0.8,0.2,1.3,0.2
			c0.4,0,0.8,0,1.1-0.1c0.4-0.1,0.7-0.1,0.9-0.2L153.6,43.9C153.6,43.9,153.6,43.9,153.6,43.9z">
   </path>
   <path class="st0" d="M157,43c0.1,0,0.2,0,0.3,0c0.1,0,0.2,0,0.3,0c0.1,0,0.2,0,0.3,0s0.2,0,0.3,0v4.6c0,0.6,0.1,1.1,0.2,1.4
			c0.1,0.4,0.3,0.7,0.6,0.9s0.6,0.4,0.9,0.4c0.4,0.1,0.8,0.1,1.2,0.1c0.4,0,0.7,0,1-0.1c0.3,0,0.6-0.1,0.8-0.2V43c0.1,0,0.2,0,0.3,0
			c0.1,0,0.2,0,0.3,0c0.1,0,0.2,0,0.3,0c0.1,0,0.2,0,0.3,0v8c-0.4,0.1-0.9,0.2-1.4,0.3c-0.5,0.1-1.1,0.1-1.6,0.1
			c-0.5,0-1.1-0.1-1.5-0.1c-0.5-0.1-0.9-0.3-1.3-0.6c-0.4-0.3-0.6-0.7-0.8-1.1c-0.2-0.5-0.3-1.1-0.3-1.9L157,43L157,43L157,43z">
   </path>
   <path class="st0" d="M167.1,47.3c0,1.1,0.3,1.9,0.8,2.4c0.5,0.5,1.4,0.8,2.5,0.8c0.4,0,0.9,0,1.2-0.1c0.4-0.1,0.7-0.2,1.1-0.3
			c0.1,0.1,0.1,0.3,0.1,0.4c0,0.2,0.1,0.3,0.1,0.5c-0.3,0.1-0.7,0.2-1.2,0.3c-0.5,0.1-0.9,0.1-1.5,0.1c-0.8,0-1.4-0.1-2-0.3
			c-0.6-0.2-1-0.5-1.4-0.9c-0.4-0.4-0.6-0.8-0.8-1.4s-0.3-1.1-0.3-1.7c0-0.6,0.1-1.2,0.2-1.7s0.4-1,0.7-1.4s0.7-0.7,1.2-0.9
			s1.1-0.3,1.8-0.3c0.6,0,1.1,0.1,1.6,0.3c0.5,0.2,0.8,0.4,1.1,0.8c0.3,0.3,0.5,0.7,0.7,1.2c0.2,0.5,0.2,1,0.2,1.5
			c0,0.1,0,0.2,0,0.4c0,0.2,0,0.3,0,0.4C173.5,47.3,167.1,47.3,167.1,47.3z M172.4,46.4c0-0.3,0-0.7-0.1-1s-0.2-0.6-0.4-0.8
			s-0.5-0.4-0.8-0.6c-0.3-0.2-0.7-0.2-1.1-0.2c-0.8,0-1.5,0.2-1.9,0.7c-0.5,0.5-0.7,1.1-0.8,2L172.4,46.4L172.4,46.4z">
   </path>
   <path class="st0" d="M175.3,43c0.1,0,0.2,0,0.3,0c0.1,0,0.2,0,0.3,0c0.1,0,0.2,0,0.3,0c0.1,0,0.2,0,0.3,0c0,0.2,0,0.4,0.1,0.7
			c0,0.3,0,0.5,0,0.7c0.2-0.4,0.6-0.7,1-1c0.4-0.3,1-0.4,1.7-0.4c0.1,0,0.1,0,0.2,0s0.1,0,0.2,0c0,0.2,0.1,0.4,0.1,0.5
			c0,0.2,0,0.3-0.1,0.5c-0.1,0-0.2,0-0.2,0c-0.1,0-0.1,0-0.2,0c-0.8,0-1.4,0.2-1.9,0.7c-0.5,0.5-0.7,1.2-0.7,2.3v4.2
			c-0.1,0-0.2,0-0.3,0c-0.1,0-0.2,0-0.3,0c-0.1,0-0.2,0-0.3,0c-0.1,0-0.2,0-0.3,0L175.3,43L175.3,43z">
   </path>
   <path class="st0" d="M181.4,47.3c0,1.1,0.3,1.9,0.8,2.4c0.5,0.5,1.4,0.8,2.5,0.8c0.4,0,0.9,0,1.2-0.1c0.4-0.1,0.8-0.2,1.1-0.3
			c0.1,0.1,0.1,0.3,0.1,0.4s0.1,0.3,0.1,0.5c-0.3,0.1-0.7,0.2-1.2,0.3c-0.5,0.1-0.9,0.1-1.5,0.1c-0.8,0-1.4-0.1-2-0.3
			c-0.6-0.2-1-0.5-1.4-0.9c-0.4-0.4-0.6-0.8-0.8-1.4s-0.3-1.1-0.3-1.7c0-0.6,0.1-1.2,0.2-1.7s0.4-1,0.7-1.4c0.3-0.4,0.7-0.7,1.2-0.9
			c0.5-0.2,1.1-0.3,1.8-0.3c0.6,0,1.1,0.1,1.6,0.3c0.5,0.2,0.8,0.4,1.1,0.8c0.3,0.3,0.5,0.7,0.7,1.2c0.2,0.5,0.2,1,0.2,1.5
			c0,0.1,0,0.2,0,0.4c0,0.2,0,0.3,0,0.4C187.8,47.3,181.4,47.3,181.4,47.3z M186.6,46.4c0-0.3,0-0.7-0.1-1s-0.2-0.6-0.4-0.8
			s-0.5-0.4-0.8-0.6c-0.3-0.2-0.7-0.2-1.1-0.2c-0.8,0-1.5,0.2-1.9,0.7c-0.5,0.5-0.7,1.1-0.8,2L186.6,46.4L186.6,46.4z">
   </path>
   <path class="st0" d="M195.6,39.4c0.1,0,0.2,0,0.3,0c0.1,0,0.2,0,0.3,0c0.1,0,0.2,0,0.3,0c0.1,0,0.2,0,0.3,0v11.7
			c-0.4,0.1-0.8,0.2-1.3,0.3s-1.1,0.1-1.7,0.1c-0.6,0-1.2-0.1-1.8-0.2s-1-0.4-1.5-0.7c-0.4-0.3-0.7-0.8-1-1.3s-0.4-1.2-0.4-2
			c0-0.7,0.1-1.3,0.3-1.9s0.5-1,0.9-1.4c0.4-0.4,0.8-0.7,1.4-0.9c0.5-0.2,1.1-0.3,1.8-0.3c0.4,0,0.8,0,1.1,0.1
			c0.4,0.1,0.7,0.1,0.9,0.2L195.6,39.4C195.6,39.4,195.6,39.4,195.6,39.4z M195.6,44.1c-0.2-0.1-0.5-0.2-0.9-0.2
			c-0.4-0.1-0.7-0.1-1.1-0.1c-0.5,0-1,0.1-1.4,0.3c-0.4,0.2-0.7,0.4-1,0.7s-0.5,0.7-0.6,1.1c-0.1,0.4-0.2,0.9-0.2,1.4
			c0,1.1,0.3,1.9,0.9,2.5s1.4,0.8,2.5,0.8c0.4,0,0.8,0,1.1-0.1c0.4,0,0.6-0.1,0.8-0.1V44.1L195.6,44.1z">
   </path>
   <path class="st0" d="M198.6,51.3c0-0.2-0.1-0.5-0.1-0.7c0-0.2,0-0.5,0.1-0.7c0.2,0,0.5-0.1,0.7-0.1c0.3,0,0.5,0,0.8,0.1
			c0,0.2,0.1,0.5,0.1,0.7c0,0.2,0,0.5-0.1,0.7c-0.2,0-0.5,0.1-0.7,0.1C199.1,51.3,198.8,51.3,198.6,51.3z">
   </path>
  </g>
  <path class="st1" d="M0,0.5c0.2,0,0.5-0.1,0.9-0.1c0.4,0,0.7,0,1,0c0.3,0,0.6,0,1,0c0.3,0,0.6,0,0.8,0.1v35.3
		c-0.2,0-0.5,0.1-0.8,0.1c-0.3,0-0.6,0-1,0c-0.3,0-0.7,0-1,0c-0.3,0-0.6,0-0.8-0.1L0,0.5L0,0.5z">
  </path>
  <path class="st1" d="M28.2,10.8c0.3,0,0.6-0.1,0.8-0.1c0.3,0,0.5,0,0.8,0c0.3,0,0.5,0,0.8,0c0.2,0,0.5,0,0.8,0.1
		c0.1,0.6,0.1,1.3,0.2,2.2c0,0.9,0,1.7,0,2.3c0.4-0.6,0.8-1.2,1.4-1.8c0.6-0.6,1.2-1.2,2-1.7c0.8-0.5,1.6-0.9,2.6-1.2
		c1-0.3,2.1-0.5,3.2-0.5c3.1,0,5.4,0.9,6.8,2.6c1.4,1.7,2.1,4.1,2.1,7.2v15.8c-0.2,0-0.5,0.1-0.9,0.1c-0.4,0-0.7,0-0.9,0
		c-0.2,0-0.5,0-0.8,0c-0.4,0-0.7,0-0.9-0.1V21c0-2.8-0.5-4.8-1.4-6c-0.9-1.2-2.3-1.8-4.2-1.8c-1.2,0-2.4,0.2-3.5,0.7
		c-1.1,0.5-2,1.1-2.8,2c-0.8,0.9-1.4,1.9-1.9,3.2c-0.5,1.3-0.7,2.7-0.7,4.4v12.4c-0.2,0-0.5,0.1-0.9,0.1c-0.4,0-0.7,0-0.9,0
		c-0.2,0-0.5,0-0.9,0c-0.4,0-0.7,0-0.9-0.1L28.2,10.8L28.2,10.8z">
  </path>
  <path class="st1" d="M80.9,10.8c0.2,0,0.5-0.1,0.8-0.1c0.3,0,0.7,0,1,0c0.3,0,0.6,0,1,0c0.4,0,0.7,0,0.9,0.1l6,21.3l6.7-21.3
		c0.3,0,0.6-0.1,0.9-0.1c0.3,0,0.7,0,1.1,0c0.3,0,0.6,0,0.9,0c0.3,0,0.6,0,0.9,0.1l6.7,21l6-21c0.2,0,0.5-0.1,0.8-0.1
		c0.3,0,0.6,0,0.9,0s0.6,0,1,0c0.3,0,0.6,0,0.8,0.1l-7.8,25.1c-0.6,0.1-1.3,0.1-1.9,0.1c-0.7,0-1.3-0.1-1.9-0.1l-6.5-20.7l-6.8,20.7
		C91.8,36,91.1,36,90.5,36c-0.7,0-1.3-0.1-1.9-0.1L80.9,10.8z">
  </path>
  <path class="st1" d="M121.8,0.5c0.4,0,0.9-0.1,1.5-0.1c0.7-0.1,1.4-0.1,2.1-0.2c0.7-0.1,1.5-0.1,2.3-0.1c0.8,0,1.4,0,2,0
		c4.2,0,7.4,0.7,9.6,2.2c2.2,1.5,3.3,3.8,3.3,6.9c0,1-0.2,1.9-0.5,2.8c-0.3,0.8-0.8,1.6-1.4,2.3c-0.6,0.7-1.2,1.2-2,1.7
		c-0.8,0.5-1.5,0.8-2.4,1c1.1,0.1,2.2,0.4,3.2,0.8c1,0.4,1.9,1,2.7,1.7c0.8,0.7,1.4,1.7,1.9,2.8c0.5,1.1,0.7,2.4,0.7,4
		c0,1.8-0.4,3.3-1.1,4.6c-0.8,1.3-1.8,2.3-3.2,3.2c-1.4,0.9-3,1.5-4.8,1.9c-1.9,0.4-3.9,0.6-6.1,0.6c-0.6,0-1.2,0-1.9,0
		c-0.7,0-1.4-0.1-2.2-0.1c-0.7,0-1.4-0.1-2.1-0.2c-0.7-0.1-1.3-0.2-1.8-0.2L121.8,0.5L121.8,0.5z M130.5,15.6c2.9,0,5-0.6,6.3-1.8
		c1.3-1.2,2-2.7,2-4.6c0-1.8-0.7-3.2-2.1-4.4c-1.4-1.2-3.6-1.8-6.6-1.8c-0.9,0-1.8,0-2.6,0.1c-0.8,0.1-1.5,0.1-2,0.2v12.3
		C125.5,15.6,130.5,15.6,130.5,15.6z M125.5,33.1c0.5,0.1,1.2,0.1,2,0.2c0.8,0,1.7,0.1,2.6,0.1c1.4,0,2.7-0.1,4.1-0.3
		c1.3-0.2,2.5-0.6,3.5-1.2c1-0.6,1.8-1.3,2.5-2.2c0.6-0.9,0.9-2.1,0.9-3.4c0-1.4-0.3-2.5-0.8-3.5c-0.5-0.9-1.3-1.7-2.2-2.3
		c-0.9-0.6-2-1-3.2-1.3c-1.2-0.3-2.6-0.4-4-0.4h-5.4L125.5,33.1L125.5,33.1L125.5,33.1z">
  </path>
  <path class="st1" d="M152.7,23.8c0,3.3,0.8,5.8,2.5,7.4c1.7,1.6,4.2,2.4,7.5,2.4c1.3,0,2.6-0.1,3.7-0.3c1.2-0.2,2.3-0.5,3.4-0.9
		c0.2,0.4,0.3,0.8,0.4,1.3c0.1,0.5,0.2,1,0.2,1.4c-1,0.4-2.2,0.8-3.6,1c-1.4,0.2-2.9,0.3-4.5,0.3c-2.3,0-4.3-0.3-6-1
		c-1.7-0.6-3.1-1.5-4.1-2.7c-1.1-1.2-1.9-2.5-2.4-4.1c-0.5-1.6-0.8-3.3-0.8-5.2c0-1.8,0.2-3.6,0.7-5.2c0.5-1.6,1.2-3,2.2-4.2
		c1-1.2,2.2-2.2,3.7-2.9c1.5-0.7,3.3-1,5.5-1c1.8,0,3.3,0.3,4.7,0.8c1.4,0.6,2.5,1.3,3.5,2.3c0.9,1,1.6,2.2,2.1,3.6
		c0.5,1.4,0.7,2.9,0.7,4.5c0,0.3,0,0.7,0,1.1c0,0.5,0,0.8-0.1,1.2L152.7,23.8L152.7,23.8L152.7,23.8z M168.6,21.1c0-1-0.1-2-0.4-3
		c-0.3-1-0.7-1.8-1.3-2.6c-0.6-0.7-1.4-1.3-2.3-1.8c-0.9-0.5-2.1-0.7-3.4-0.7c-2.5,0-4.4,0.7-5.8,2.1c-1.4,1.4-2.2,3.4-2.5,5.9
		L168.6,21.1L168.6,21.1z">
  </path>
  <path class="st1" d="M6.2,17.8L19.6,0.5c0.3,0,0.6-0.1,0.9-0.1c0.3,0,0.6,0,0.9,0c0.4,0,0.8,0,1.1,0c0.4,0,0.7,0,1.1,0.1L10.5,17.4
		l15.1,18.4c-0.4,0-0.8,0.1-1.2,0.1c-0.4,0-0.8,0-1.2,0c-0.3,0-0.6,0-1,0c-0.3,0-0.7,0-1-0.1L6.2,17.8z">
  </path>
  <path class="st1" d="M67,36.3c-7.4,0-13.3-6-13.3-13.3c0-7.4,6-13.3,13.3-13.3c7.4,0,13.3,6,13.3,13.3C80.4,30.4,74.4,36.3,67,36.3
		z M74.7,16.1c-1.8-2-4.2-3.2-6.9-3.3c-2.7-0.2-5.2,0.7-7.2,2.5c-1.8,1.6-2.9,3.7-3.2,6l-1.8-0.1l2.6,4.6l3.3-4.4l-2-0.1
		c0.3-1.8,1.2-3.4,2.5-4.6c1.6-1.4,3.6-2.1,5.8-2c2.1,0.1,4.1,1.1,5.5,2.7c1.4,1.6,2.1,3.6,2,5.8c-0.1,2.1-1.1,4.1-2.7,5.5l1.4,1.5
		c2-1.8,3.2-4.2,3.3-6.9C77.4,20.7,76.5,18.1,74.7,16.1z">
  </path>
  <path class="st1" d="M173.5,28.2l-0.4-0.5L189,0.6c0.7-0.2,1.2-0.3,1.7-0.3c1.1,0,1.4,0.1,1.8,0.3l-14.4,24.8h12.6V14.6
		c0.6-0.1,1.2-0.1,1.8-0.1c0.6,0,1.2,0,1.8,0.1v10.7h5.7c0.1,0.6,0.2,0.8,0.2,1.3c0,0.5-0.1,1-0.2,1.5h-5.7V36
		c-0.3,0.1-0.6,0.1-0.9,0.1c-0.3,0-0.6,0-0.9,0c-0.3,0-0.6,0-0.9,0c-0.3,0-0.6,0-0.9-0.1v-7.8H173.5z">
  </path>
 </g>
</svg>