<svg version="1.1" id="Logo" xmlns="http://www.w3.org/2000/svg" xmlns:xlink="http://www.w3.org/1999/xlink" x="0px" y="0px" viewBox="0 0 344.61 107.93" style="enable-background:new 0 0 344.61 107.93;" xml:space="preserve">
 <style type="text/css">
  .st0{fill:#FFFFFF;}
	.st1{fill:none;}
 </style>
 <g>
  <g>
   <g>
    <path class="st0" d="M28.3,69.19L48.75,28.3h7.86L36.1,69.19H28.3z">
    </path>
    <path class="st0" d="M68.43,62.08h19.81v7.13H60.55V28.3h7.88V62.08z">
    </path>
    <path class="st0" d="M92.99,35.37V28.3h7.82v7.07H92.99z M93.05,69.21V39.2h7.76v30.01H93.05z">
    </path>
    <path class="st0" d="M125.15,39.2h8.34L122.6,69.21h-7.65L104.29,39.2h8.57l6.08,19.12L125.15,39.2z">
    </path>
    <path class="st0" d="M163.21,56.46h-21.26c0.35,4.34,3.01,6.95,7.13,6.95c3.53,0,5.79-1.85,6.78-4.69l6.78,2.2
				c-1.85,5.68-7.13,8.92-13.73,8.92c-8.98,0-14.77-5.97-14.77-15.53c0-9.44,5.39-15.76,15.01-15.76
				C158.81,38.56,164.02,45.22,163.21,56.46z M142.06,50.78h13.5c-0.46-3.82-2.66-5.97-6.55-5.97
				C145.02,44.82,142.59,47.13,142.06,50.78z">
    </path>
   </g>
   <g>
    <path class="st0" d="M191.72,69.2l-7.94-16.05H177V69.2h-7.88v-40.9h15.41c10.08,0,15.06,4.75,15.06,12.28
				c0,5.56-2.78,9.21-7.76,11.18l8.98,17.44H191.72z M177,35.42v10.66h7.76c4.69,0,6.78-2.09,6.78-5.5c0-3.48-1.97-5.16-6.72-5.16
				H177z">
    </path>
    <path class="st0" d="M224.83,69.2c-0.35-0.52-0.7-1.51-0.93-2.78c-2.09,2.32-5.27,3.42-8.81,3.42c-8,0-13.38-5.62-13.38-15.53
				c0-10.25,5.79-15.76,13.56-15.76c3.36,0,6.08,1.04,8.11,3.3v-2.67h7.59v21.26c0,2.95,0.35,6.2,0.93,8.75H224.83z M223.38,54.25
				c0-6.03-2.84-9.27-6.95-9.27c-4.69,0-7.18,3.88-7.18,9.33c0,5.79,2.72,9.1,7.24,9.1C220.83,63.4,223.38,60.04,223.38,54.25z">
    </path>
    <path class="st0" d="M280.79,53.09V69.2h-7.76V53.15c0-2.95,0-7.82-4.52-7.82c-3.48,0-5.45,2.72-5.45,7.88V69.2h-7.76V53.15
				c0-3.01,0-7.82-4.58-7.82c-3.36,0-5.39,2.72-5.39,7.76V69.2h-7.76V39.18h7.76v2.43c2.26-2.14,4.58-3.07,7.47-3.07
				c3.94,0,6.84,1.56,8.52,4.17c2.14-2.49,5.04-4.11,9.39-4.11C280.79,38.6,280.79,47.18,280.79,53.09z">
    </path>
    <path class="st0" d="M316.3,54.02c0,9.96-5.5,15.82-13.09,15.82c-3.3,0-6.2-1.1-8.17-2.95v12.75h-7.76V39.18h7.76v3.07
				c1.97-2.32,4.81-3.71,8.28-3.71C311.32,38.55,316.3,44.8,316.3,54.02z M308.77,54.13c0-5.74-2.61-9.15-6.89-9.15
				c-4.35,0-7.01,3.48-7.01,9.27c0,5.74,2.66,9.15,6.95,9.15C306.16,63.4,308.77,59.81,308.77,54.13z">
    </path>
   </g>
  </g>
  <rect x="0" y="0" class="st1" width="344.61" height="107.93">
  </rect>
 </g>
</svg>