<?xml version="1.0" encoding="utf-8"?>
<!-- Generator: Adobe Illustrator 17.0.0, SVG Export Plug-In . SVG Version: 6.00 Build 0)  -->
<!DOCTYPE svg PUBLIC "-//W3C//DTD SVG 1.1//EN" "http://www.w3.org/Graphics/SVG/1.1/DTD/svg11.dtd">
<svg version="1.1" id="Layer_1" xmlns="http://www.w3.org/2000/svg" xmlns:xlink="http://www.w3.org/1999/xlink" x="0px" y="0px"
	 width="197.709px" height="53.031px" viewBox="0 0 197.709 53.031" enable-background="new 0 0 197.709 53.031"
	 xml:space="preserve">
<g>
	<path fill="#273745" d="M0,51.938V0.025h6.264v46.44H23.04v5.472H0z"/>
	<path fill="#273745" d="M22.248,34.693c0-5.338,1.775-9.739,5.328-13.202c3.552-3.463,8.04-5.194,13.464-5.194
		c5.423,0,9.923,1.744,13.5,5.23c3.575,3.487,5.364,7.876,5.364,13.166c0,5.291-1.776,9.667-5.328,13.13
		c-3.553,3.463-8.064,5.194-13.536,5.194c-5.425,0-9.913-1.731-13.464-5.194C24.023,44.361,22.248,39.984,22.248,34.693z
		 M41.04,21.625c-3.6,0-6.613,1.236-9.036,3.708c-2.424,2.473-3.636,5.58-3.636,9.324c0,3.697,1.199,6.768,3.6,9.216
		c2.4,2.448,5.424,3.672,9.072,3.672c3.695,0,6.743-1.224,9.144-3.672c2.399-2.448,3.6-5.519,3.6-9.216c0-3.696-1.2-6.792-3.6-9.288
		C47.783,22.874,44.735,21.625,41.04,21.625z"/>
	<path fill="#273745" d="M92.015,22.706v-5.544h6.048v34.776h-6.048v-5.04c-2.928,4.081-7.008,6.12-12.24,6.12
		c-4.993,0-9.144-1.749-12.456-5.246c-3.312-3.497-4.968-7.88-4.968-13.15c0-5.174,1.656-9.533,4.968-13.078
		s7.368-5.318,12.168-5.318c4.079,0,7.607,1.368,10.584,4.104C90.695,20.954,91.343,21.746,92.015,22.706z M68.615,34.622v0.575
		c0,3.591,1.152,6.583,3.456,8.975c2.304,2.394,5.136,3.59,8.496,3.59c3.408,0,6.228-1.257,8.46-3.77s3.348-5.685,3.348-9.514
		c0-3.686-1.141-6.76-3.42-9.226c-2.281-2.465-5.148-3.698-8.604-3.698c-3.312,0-6.097,1.245-8.352,3.734
		C69.743,27.777,68.615,30.889,68.615,34.622z"/>
	<path fill="#273745" d="M131.327,22.489V0.025h5.76v51.912h-5.76v-5.616c-2.701,4.464-6.969,6.696-12.805,6.696
		c-5.065,0-9.214-1.68-12.445-5.04c-3.231-3.359-4.846-7.728-4.846-13.104c0-5.424,1.664-9.888,4.991-13.392
		c3.328-3.503,7.62-5.256,12.878-5.256c2.653,0,4.907,0.48,6.765,1.44C127.721,18.626,129.542,20.234,131.327,22.489z
		 M119.447,21.697c-3.36,0-6.145,1.228-8.352,3.682c-2.208,2.455-3.312,5.583-3.312,9.386c0,3.707,1.104,6.763,3.312,9.17
		c2.208,2.407,5.015,3.61,8.424,3.61c3.552,0,6.408-1.203,8.568-3.61c2.16-2.407,3.24-5.607,3.24-9.603
		c0-3.706-1.104-6.738-3.312-9.097C125.806,22.877,122.95,21.697,119.447,21.697z"/>
	<path fill="#273745" d="M174.958,37.394h-28.584c0.479,3.22,1.752,5.752,3.816,7.598c2.063,1.847,4.632,2.77,7.704,2.77
		c4.704,0,8.304-2.352,10.8-7.056l5.472,3.06c-2.016,3.227-4.309,5.575-6.876,7.046c-2.568,1.47-5.7,2.206-9.396,2.206
		c-5.328,0-9.648-1.676-12.96-5.03c-3.312-3.354-4.968-7.762-4.968-13.222c0-5.414,1.667-9.856,5.004-13.33
		c3.335-3.473,7.596-5.21,12.78-5.21c5.04,0,9.18,1.722,12.42,5.166c3.24,3.443,4.86,7.862,4.86,13.257L174.958,37.394z
		 M157.75,21.41c-2.977,0-5.484,0.955-7.524,2.863c-2.041,1.909-3.324,4.531-3.852,7.865h21.96c0-3.189-0.984-5.775-2.952-7.756
		C163.414,22.4,160.87,21.41,157.75,21.41z"/>
	<path fill="#273745" d="M177.91,51.938V17.162h6.048v6.696c2.112-5.04,5.496-7.56,10.152-7.56c1.104,0,2.304,0.216,3.6,0.648
		l-1.656,6.408c-1.105-0.432-2.208-0.648-3.312-0.648c-2.689,0-4.944,1.08-6.768,3.24c-0.769,0.961-1.296,1.944-1.584,2.952
		s-0.432,2.353-0.432,4.032v19.008H177.91z"/>
</g>
</svg>
