<svg version="1.1" id="Layer_1" xmlns:x="ns_extend;" xmlns:i="ns_ai;" xmlns:graph="ns_graphs;" xmlns="http://www.w3.org/2000/svg" xmlns:xlink="http://www.w3.org/1999/xlink" x="0px" y="0px" viewBox="0 0 205.7 62" style="enable-background:new 0 0 205.7 62;" xml:space="preserve">
 <style type="text/css">
  .st0{fill:#FFFFFF;}
 </style>
 <metadata>
  <sfw xmlns="ns_sfw;">
   <slices>
   </slices>
   <sliceSourceBounds bottomLeftOrigin="true" height="62" width="205.7" x="211.7" y="64.2">
   </sliceSourceBounds>
  </sfw>
 </metadata>
 <g>
  <path class="st0" d="M78.8,53.7V8.3h8.3v45.4H78.8z">
  </path>
  <path class="st0" d="M158.7,22.9h8v3.8c1.7-3,5.6-4.6,9-4.6c4.2,0,7.6,1.8,9.1,5.1c2.4-3.8,5.7-5.1,9.8-5.1
		c5.7,0,11.1,3.4,11.1,11.7v20h-8.1V35.4c0-3.3-1.6-5.8-5.4-5.8c-3.6,0-5.7,2.8-5.7,6.1v18h-8.3V35.4c0-3.3-1.7-5.8-5.4-5.8
		c-3.6,0-5.8,2.7-5.8,6.1v18h-8.3V22.9z">
  </path>
  <path class="st0" d="M105.9,54.6c-9.4,0-16.2-7-16.2-16.3c0-9.2,6.8-16.3,16.2-16.3c9.4,0,16.2,7.2,16.2,16.3
		C122.1,47.5,115.3,54.6,105.9,54.6z M105.9,29.5c-4.8,0-8.8,3.9-8.8,8.8c0,4.8,3.9,8.8,8.8,8.8c4.8,0,8.8-3.9,8.8-8.8
		C114.7,33.4,110.8,29.5,105.9,29.5z">
  </path>
  <path class="st0" d="M139.9,54.6c-9.4,0-16.2-7-16.2-16.3c0-9.2,6.8-16.3,16.2-16.3c9.4,0,16.2,7.2,16.2,16.3
		C156.1,47.5,149.3,54.6,139.9,54.6z M139.9,29.4c-4.9,0-8.9,4-8.9,8.9c0,4.9,4,8.9,8.9,8.9c4.9,0,8.9-4,8.9-8.9
		C148.8,33.4,144.8,29.4,139.9,29.4z">
  </path>
  <path class="st0" d="M62,27.6H43.9l15.7-9.1l-3.4-6l-15.7,9.1l9.1-15.7l-6-3.5l-9.1,15.7V0h-6.9v18.1L18.5,2.4l-6,3.4l9.1,15.7
		L5.9,12.5l-3.4,6l15.7,9.1H0v6.9h18.1L2.4,43.5l3.4,6l15.7-9.1l-9.1,15.7l6,3.4l9.1-15.7V62h6.9V43.9l9.1,15.7l6-3.4l-9.1-15.7
		l15.7,9.1l3.4-6l-15.7-9.1H62L62,27.6L62,27.6z M31,40.4c-5.2,0-9.4-4.2-9.4-9.4c0-5.2,4.2-9.4,9.4-9.4c5.2,0,9.4,4.2,9.4,9.4
		C40.4,36.2,36.2,40.4,31,40.4z">
  </path>
 </g>
</svg>