<svg version="1.1" id="Layer_1" xmlns:x="ns_extend;" xmlns:i="ns_ai;" xmlns:graph="ns_graphs;" xmlns="http://www.w3.org/2000/svg" xmlns:xlink="http://www.w3.org/1999/xlink" x="0px" y="0px" viewBox="0 0 407.8 72" style="enable-background:new 0 0 407.8 72;" xml:space="preserve">
 <style type="text/css">
  .st0{fill:#55A05E;}
 </style>
 <metadata>
  <sfw xmlns="ns_sfw;">
   <slices>
   </slices>
   <sliceSourceBounds bottomLeftOrigin="true" height="72" width="407.8" x="-249.8" y="11.1">
   </sliceSourceBounds>
  </sfw>
 </metadata>
 <g id="Artboard">
  <g id="OT-wordmark-green-1200px" transform="translate(0.131557, 11.052632)">
   <path id="Shape" class="st0" d="M12.7,31.8c0,13.3,6.1,21.4,15.4,21.4s15.1-8.1,15.1-21.4c0-14.2-5.8-21.5-15.1-21.5
			S12.7,17.6,12.7,31.8z M56.1,31.8C56.1,49,43.8,60.9,28,60.9S-0.1,49-0.1,31.8S12.5,2.7,28,2.7S56.1,14.7,56.1,31.8L56.1,31.8z">
   </path>
   <path id="Path" class="st0" d="M333.7,18.5c0-4.1,3.9-6.8,9.7-6.8c6.8,0,10.6,3,11.1,7.8h11.4c-0.2-10-8.6-16.8-22.5-16.8
			c-12.2,0-20.7,5.9-20.7,16.3c0,20.9,33.2,11.8,33.2,25.4c0,4.6-4.4,7.5-11,7.5c-7.4,0-11.8-3.2-12.6-8.1h-11.5
			c0.7,10.3,10.1,17.1,24.1,17.1c12.5,0,21.9-5.9,21.9-17C366.9,23,333.7,32.1,333.7,18.5L333.7,18.5z">
   </path>
   <path id="Path_1_" class="st0" d="M63.2,59.9V3.8h10.6v17.4c3.2-12.1,9.9-18.5,21-18.5c10,0,17.8,6.2,17.8,18.7v38.5H101V25.7
			c0-7.5-3.9-13.3-11.7-13.3c-10.3,0-14.6,9-14.6,15.4v32.1L63.2,59.9L63.2,59.9z">
   </path>
   <path id="Path_2_" class="st0" d="M312.7,3.8v56h-11V42.5c-2.6,12.1-9.2,18.5-20,18.5c-9.7,0-17.4-6.2-17.4-18.7V3.8h11.5V38
			c0,7.5,3.6,13.3,11.1,13.3c10,0,14.2-9,14.2-15.4V3.8H312.7L312.7,3.8z">
   </path>
   <path id="Shape_1_" class="st0" d="M147.9,52.7c-9.8,0-15-7.6-15-20.2v-1H174c-0.3-17.7-9.4-28.8-26.6-28.8
			c-16.1,0-27.4,11.8-27.4,29.6c0,16.2,9.5,28.7,27.8,28.7c17.3,0,25.4-11.2,25.9-21.2h-11.9C161,47.8,157.7,52.7,147.9,52.7
			L147.9,52.7z M147.6,10.9c9.2,0,13.3,7,13.7,14.4h-27.8C134.9,15.9,139.8,10.9,147.6,10.9L147.6,10.9z">
   </path>
   <path id="Path_3_" class="st0" d="M256.8,3.8V14l0,1.3c-3.9-0.2-5.4-0.3-6.7-0.3c-8.2,0-13.5,3.5-15.2,13.7
			c-0.3,1.9-0.5,3.9-0.5,5.8v25.3h-11.5V3.8h10.5v17.6c0,0,0,0,0,0l0,0c0.1-0.3,2.2-7.1,3.9-10.1l0,0c2.2-4.5,6.4-7.5,11.5-7.5
			H256.8L256.8,3.8z">
   </path>
   <path id="Path_4_" class="st0" d="M393.2,47.4c0,3.7,1.3,5,5,5l9.5,0.1v7.4h-13.5c-7.8,0-12.3-4.5-12.3-12.3V20.9h0v-9.1h-11.2
			V5.3c0.7,0,0.5,0,1.5,0c1.8,0,3.2-0.1,4.1-0.2c2.4-0.1,3.9-0.6,4.7-1.4c0.8-0.8,1.3-2.4,1.6-4.8c0.2-1.3,0.4-3,0.5-5
			c0.1-2,0.2-4.6,0.2-5h10V3.8h14.5v8h-14.5V47.4L393.2,47.4z">
   </path>
   <path id="Path_5_" class="st0" d="M198.8,47.4c0,3.7,1.3,5,5,5l9.5,0.1v7.4h-13.5c-7.8,0-12.3-4.5-12.3-12.3V20.9h0v-9.1h-11.2
			V5.3c0.7,0,0.5,0,1.5,0c1.8,0,3.2-0.1,4.1-0.2c2.4-0.1,3.9-0.6,4.7-1.4c0.8-0.8,1.3-2.4,1.6-4.8c0.2-1.3,0.4-3,0.5-5
			c0.1-2,0.2-4.6,0.2-5h10V3.8h14.5v8h-14.5V47.4L198.8,47.4z">
   </path>
  </g>
 </g>
</svg>