<svg class="icon logo" height="50" version="1.1" viewBox="0 0 280 50" width="280" xmlns="http://www.w3.org/2000/svg"><g class="icon"><path d="M13.8 21.6c-.5-.5-.8-1-1.1-1.6-.3-.6-.4-1.3-.4-1.9 0-.7.1-1.3.4-1.9.3-.6.6-1.2 1.1-1.6l3.6-3.6-8.7-8.8c-.5-.5-1-.8-1.6-1.1C6.5.9 5.8.7 5.2.7c-.7 0-1.3.1-1.9.4-.7.3-1.2.7-1.7 1.1l-.1.1C.5 3.3 0 4.6 0 5.9c0 1.3.5 2.6 1.5 3.6l12.3 12.3c.5.5 1 .9 1.7 1.1.6.3 1.3.4 2 .4-1.3 0-2.6-.5-3.5-1.5l-.2-.2z" fill="#58e3d0"></path><path d="M33.1 2.3c-.5-.5-1-.8-1.6-1.1-.6-.3-1.3-.4-1.9-.4s-1.3.1-1.9.4c-.6.3-1.2.6-1.6 1.1l-8.6 8.6-3.6 3.6c-.5.5-.8 1-1.1 1.6-.3.6-.4 1.3-.4 1.9s.1 1.3.4 1.9c.3.6.6 1.2 1.1 1.6l.1.1c.9.9 2.2 1.5 3.5 1.5-1.3 0-2.6-.5-3.5-1.5l-.1-.1c-.5-.5-.8-1-1.1-1.6-.3-.6-.4-1.3-.4-1.9s.1-1.3.4-1.9c.3-.6.6-1.2 1.1-1.6l3.6-3.6 3.6 3.6c.9.9 1.5 2.2 1.5 3.6 0 1.3-.5 2.6-1.5 3.6l-.1.1c-.5.5-1 .8-1.6 1.1s-1.2.4-1.9.4c.7 0 1.3-.1 2-.4.6-.3 1.2-.6 1.7-1.1l12-12.3c.9-.9 1.5-2.2 1.5-3.6 0-1.3-.5-2.6-1.5-3.6h-.1z" fill="#70d955"></path><path d="M21 21.6c.9-.9 1.5-2.2 1.5-3.6 0-1.3-.5-2.6-1.5-3.6l-3.6-3.6-3.6 3.6c-.5.5-.8 1-1.1 1.6-.3.6-.4 1.3-.4 1.9s.1 1.3.4 1.9c.3.6.6 1.2 1.1 1.6l.1.1c.9.9 2.2 1.5 3.5 1.5.7 0 1.3-.1 1.9-.4s1.1-.6 1.6-1.1l.1.1z" fill="#52c41a"></path></g><g class="wordmark"><path d="M55.4 10.8c-1.6-.3-3.1-.8-4.5-1.5-.4-.3-.7-.7-.9-1.2-.2-.5-.2-1-.2-1.5 0-2.4 1.6-3.6 4.8-3.6 2.1.1 4.2.3 6.3.5l.2-2.1-1.1-.2C58.2.9 56.3.7 54.4.7c-4.7 0-7.1 2-7.1 5.9-.1.8 0 1.6.3 2.3.3.7.7 1.4 1.3 1.9 1.6 1.1 3.4 1.8 5.3 2.1 1.4.2 2.7.6 3.9 1.3.4.3.7.7.8 1.2.2.4.3.9.2 1.4 0 3-1.6 4.4-4.7 4.4-2.2-.1-4.4-.2-6.6-.6l-.3 2 1.2.2c1.9.3 3.9.5 5.8.5 4.7 0 7-2.3 7-6.8.1-.7 0-1.4-.3-2.1-.2-.7-.6-1.3-1.1-1.8-1.3-.9-3-1.5-4.7-1.8z" fill="#fff"></path><path d="M67.8 7.3h-2.4v16h2.4v-16z" fill="#fff"></path><path d="M67.8.9h-2.4v2.8h2.4V.9z" fill="#fff"></path><path d="M80.7 7.3c-1-.2-1.9-.3-2.9-.3-4 0-5.9 1.8-5.9 5.5 0 2.5.8 4 2.5 4.8l-.3.5c-.4.6-.7 1.3-.8 2 0 .4 0 .8.2 1.2.2.4.4.7.7 1-.7.5-1.4 1.1-2 1.8-.4.6-.6 1.4-.6 2.1 0 1.8.5 3.1 1.5 3.8 1 .7 2.8 1.1 5.3 1.1 4.7 0 7.1-1.7 7.1-5.1 0-1.9-.4-3.1-1.3-3.7-1.3-.8-2.9-1.1-4.4-1-1.2.1-2.5 0-3.7-.2-.4-.2-.6-.6-.6-1.2.1-.6.2-1.2.5-1.8.5.1 1 .1 1.6.1 1.6.1 3.3-.3 4.7-1.2 1-.8 1.5-2.2 1.5-4.2 0-.6 0-1.1-.2-1.7-.2-.5-.5-1-.8-1.5l3 .1v-2l-4.7.1-.4-.2zm-4.9 15.6 3.4.2c1.1-.1 2.2.1 3.2.5.5.3.8 1.1.8 2.1 0 .4 0 .9-.2 1.3s-.5.8-.8 1c-1.1.6-2.4.8-3.6.7-1.2.1-2.4-.1-3.5-.7-.5-.5-.8-1.1-.9-1.8-.1-.7 0-1.4.3-2 .4-.5.8-.9 1.3-1.3zm4.9-7.8c-.8.6-1.8.9-2.8.8-1 .1-2-.2-2.8-.8-.3-.4-.6-.8-.7-1.3-.1-.5-.2-.9-.1-1.4 0-.5 0-1 .1-1.4.1-.5.4-.9.7-1.3.8-.5 1.8-.8 2.8-.8 1 0 1.9.3 2.8.8.3.4.5.8.7 1.3.1.5.2.9.1 1.4.1.5 0 1-.1 1.4s-.4.9-.7 1.3z" fill="#fff"></path><path d="M96.1 7c-1.7 0-3.4.5-4.9 1.4V7.3h-2.3v16h2.4v-13l.6-.3c.6-.2 1.1-.4 1.7-.6.7-.2 1.4-.3 2.1-.3 1.4 0 2.4.4 2.8 1.2.5 1.5.8 3 .7 4.6v8.4h2.4v-8.5c0-2.9-.4-5-1.1-6.1-.9-1.2-2.3-1.7-4.4-1.7z" fill="#fff"></path><path d="M115.8 1.2h-2.5v22.1h2.5V1.2z" fill="#fff"></path><path d="M128.1 7c-1.7 0-3.4.5-4.9 1.4V7.3h-2.4v16h2.4v-13l.6-.3c.6-.2 1.1-.4 1.7-.6.7-.2 1.4-.3 2.1-.3.5-.1 1.1 0 1.6.2s.9.6 1.2 1c.5 1.5.8 3 .7 4.6v8.4h2.4v-8.5c0-2.9-.4-5-1.1-6.1-.8-1.2-2.2-1.7-4.3-1.7z" fill="#fff"></path><path d="M145.3 23.2h13.4V21h-11v-8h9.1v-2.1h-9.1V3.3h11V1.2h-13.4v22z" fill="#fff"></path><path d="M169.9 7c-1.7 0-3.5.5-5 1.4V7.3h-2.4v16h2.4v-13l.6-.3c.6-.2 1.1-.4 1.7-.6.7-.2 1.4-.3 2.1-.3 1.4 0 2.4.4 2.8 1.2.5 1.5.8 3 .7 4.6v8.4h2.4v-8.5c0-2.9-.4-5-1.1-6.1-.7-1.2-2.1-1.7-4.2-1.7z" fill="#fff"></path><path d="M185.1 21.4c-1.1 0-1.6-.3-1.9-.9-.3-1.2-.5-2.4-.4-3.6V9.3h5.1V7.2h-5.1V2.4h-2.4v4.9h-2.3v2.1h2.3v8.4c0 2.3.3 3.8 1 4.6.4.4 1 .8 1.6 1 .6.2 1.2.3 1.9.2 1.1 0 2.2-.2 3.3-.4l-.2-2-2.9.2z" fill="#fff"></path><path d="M196.8 7c-4.4 0-6.7 2.8-6.7 8.4 0 2.8.5 4.9 1.4 6.2 1 1.3 2.6 2 4.9 2 2.1 0 4.2-.2 6.2-.5l-.1-1.9-.9.1c-1.6.1-3.3.2-4.8.2-.6.1-1.2 0-1.8-.2-.6-.2-1.1-.6-1.5-1-.7-1.2-1.1-2.5-1-3.9h10.6l.1-1.8c0-2.6-.5-4.5-1.6-5.7-.6-.6-1.4-1.1-2.2-1.4-.9-.5-1.7-.6-2.6-.5zm-4.3 7.4c-.1-1.4.2-2.9 1.1-4.1.4-.4.9-.8 1.4-1 .5-.2 1.1-.3 1.7-.3.6-.1 1.1 0 1.7.2.5.2 1 .5 1.4 1 .7 1.2 1.1 2.7.9 4.1h-8.2z" fill="#fff"></path><path d="M209.3 7.3h-2.4v16h2.4V11.5l.8-.4c.7-.4 1.5-.7 2.2-1 .9-.3 1.8-.6 2.8-.8V6.9c-2.1.4-4.1 1.3-5.8 2.5V7.3z" fill="#fff"></path><path d="M225.1 7c-1.7 0-3.4.5-4.8 1.5V7.3h-2.4v23h2.4v-7.1c1.2.3 2.4.4 3.6.4 2.5 0 4.2-.6 5.3-1.9 1.1-1.3 1.6-3.4 1.6-6.3s-.5-5.1-1.4-6.3c-.5-.7-1.2-1.2-1.9-1.5-.7-.5-1.6-.7-2.4-.6zm2.3 13c-.4.5-1 .9-1.6 1.2-.6.3-1.3.4-2 .3-1.2 0-2.3-.2-3.4-.3V10.4l.6-.3c.6-.3 1.1-.5 1.7-.6.7-.2 1.4-.3 2.1-.3.5 0 1.1.1 1.6.3.5.2.9.6 1.2 1.1.7 1.5 1.1 3.1.9 4.7.1 1.6-.3 3.2-1.1 4.7z" fill="#fff"></path><path d="M237.1 7.3h-2.4v16h2.4V11.5l.8-.4c.7-.4 1.5-.7 2.2-1 .9-.3 1.8-.6 2.8-.8V6.9c-2.1.4-4.1 1.3-5.8 2.5V7.3z" fill="#fff"></path><path d="M248.2 7.3h-2.4v16h2.4v-16z" fill="#fff"></path><path d="M248.2.9h-2.4v2.8h2.4V.9z" fill="#fff"></path><path d="M258.8 14c-1.2-.1-2.5-.5-3.6-1-.3-.2-.5-.4-.6-.7-.1-.3-.2-.6-.2-.9 0-1.6 1.2-2.4 3.5-2.4 1.9 0 3.7.2 5.6.5l.1-2-.9-.2c-1.6-.3-3.2-.4-4.9-.4-1.4-.1-2.9.3-4.1 1.1-.5.4-1 .9-1.3 1.5-.3.6-.4 1.3-.4 1.9-.1.6 0 1.2.2 1.7.2.6.5 1 1 1.4 1.2.7 2.6 1.2 4 1.3 1.3.1 2.5.4 3.6.9.3.2.5.5.7.8.1.3.2.7.2 1.1 0 .4 0 .8-.2 1.1-.2.3-.4.6-.8.8-.9.5-1.8.7-2.8.6-1.8-.1-3.7-.2-5.5-.5l-.1 2.1 1 .2c1.5.3 3.1.4 4.7.5 1.6.1 3.2-.3 4.6-1.2.5-.4 1-1 1.2-1.6.3-.6.4-1.3.3-2 0-1.6-.4-2.8-1.2-3.4-1.3-.5-2.7-1-4.1-1.2z" fill="#fff"></path><path d="M280 14.4c0-2.6-.5-4.5-1.6-5.7-.6-.6-1.4-1.1-2.2-1.4-.8-.3-1.7-.4-2.6-.4-4.4 0-6.7 2.8-6.7 8.4 0 2.8.5 4.9 1.4 6.2 1 1.3 2.6 2 4.9 2 2.1 0 4.2-.2 6.2-.5l-.1-1.9-.9.1c-1.6.1-3.3.2-4.8.2-.6.1-1.2 0-1.8-.2-.6-.2-1.1-.6-1.5-1-.7-1.2-1.1-2.5-1-3.9h10.6l.1-1.9zm-10.7-.1c-.1-1.4.3-2.9 1.1-4.1.4-.4.9-.8 1.4-1s1.1-.3 1.7-.3c.6-.1 1.1 0 1.7.2.5.2 1 .5 1.4 1 .7 1.2 1.1 2.7.9 4.1h-8.2z" fill="#fff"></path><path d="M52.6 34.3v-1.5c-2.6-.2-3.9 1.2-3.9 3.6v.3h-1.4v1.5h1.4v7.5h1.6v-7.5h2.4v-1.5h-2.4v-.3c0-1.6.8-2.2 2.3-2.1zm5 11.6c2.6 0 4.8-2.1 4.8-4.7 0-2.7-2.1-4.7-4.8-4.7-2.6 0-4.7 2.1-4.7 4.7-.1 2.6 2 4.7 4.7 4.7zm0-1.5c-1.8 0-3.2-1.4-3.2-3.2 0-1.8 1.4-3.2 3.2-3.2 1.8 0 3.2 1.4 3.2 3.2 0 1.8-1.4 3.2-3.2 3.2zm8.1-6.2v-1.5h-1.6v9h1.6v-4.8c0-2.1 1.5-2.8 2.8-2.8v-1.6c-1.1 0-2.2.4-2.8 1.7zm14.1-1.8c-1.2 0-2.2.5-2.8 1.5-.5-1-1.4-1.5-2.6-1.5-1.1 0-2 .4-2.7 1.4v-1.2h-1.6v9h1.6v-5c0-1.9 1.1-2.7 2.3-2.7 1.2 0 1.9.8 1.9 2.2v5.5h1.6v-5c0-1.9 1-2.7 2.2-2.7 1.2 0 2 .8 2 2.2v5.5h1.6V40c-.1-2.2-1.5-3.6-3.5-3.6zm6.7 5.5H94c0-.2.1-.5.1-.7 0-2.5-1.8-4.8-4.5-4.8-2.8 0-4.7 2.1-4.7 4.7 0 2.7 1.9 4.7 4.8 4.7 1.8 0 3.2-.8 4-2l-1.3-.8c-.5.7-1.4 1.3-2.6 1.3-1.8.1-3-.8-3.3-2.4zm3.1-4c1.4 0 2.6.8 2.9 2.6h-6c.2-1.6 1.4-2.6 3.1-2.6zm7.8.3v-1.5h-1.6v9h1.6v-4.8c0-2.1 1.5-2.8 2.8-2.8v-1.6c-1.1 0-2.2.4-2.8 1.7zm4.4 7.5h1.6V32.5h-1.6v13.2zm10.2-9.1-2.6 7.1-3.1-7.1h-1.7l3.9 9-.2.3c-.5 1.2-1.2 1.9-2.4 1.8v1.5c1.8.1 3.2-1 4-3l3.7-9.6H112zm15.7-3.6h-9.1v1.6h3.7v11h1.7v-11h3.7V33zm1.8 5.2v-1.5H128v9h1.6v-4.8c0-2.1 1.5-2.8 2.8-2.8v-1.6c-1.2 0-2.3.4-2.9 1.7zm11.4-1.6v1.5c-.7-1.1-1.9-1.8-3.4-1.8-2.5 0-4.6 2.1-4.6 4.7 0 2.7 2.1 4.7 4.6 4.7 1.5 0 2.7-.7 3.4-1.8v1.5h1.6v-9h-1.6zm-3.3 7.8c-1.8 0-3.2-1.4-3.2-3.2 0-1.8 1.4-3.2 3.2-3.2 1.8 0 3.2 1.4 3.2 3.2.1 1.8-1.3 3.2-3.2 3.2zm11.4 1.5c1.8 0 3.3-.9 4.1-2.3l-1.3-.8c-.5.9-1.5 1.6-2.7 1.6-1.8 0-3.2-1.4-3.2-3.2 0-1.8 1.4-3.2 3.2-3.2 1.2 0 2.2.6 2.7 1.6l1.3-.8c-.7-1.4-2.2-2.4-4-2.4-2.7 0-4.7 2.1-4.7 4.7-.1 2.7 1.9 4.8 4.6 4.8zm10.5-7.7v-1.5h-2.4v-2.5l-1.6.5v2.1h-1.8v1.5h1.8V43c0 2.3 1.3 3 4 2.6v-1.4c-1.6.1-2.4.2-2.4-1.2v-4.9h2.4zm2.7-3.2c.6 0 1-.5 1-1 0-.6-.5-1.1-1-1.1-.6 0-1.1.5-1.1 1.1 0 .5.5 1 1.1 1zm-.8 10.7h1.6v-9h-1.6v9zm8.2.2c2.6 0 4.8-2.1 4.8-4.7 0-2.7-2.1-4.7-4.8-4.7s-4.7 2.1-4.7 4.7c-.1 2.6 2 4.7 4.7 4.7zm0-1.5c-1.8 0-3.2-1.4-3.2-3.2 0-1.8 1.4-3.2 3.2-3.2 1.8 0 3.2 1.4 3.2 3.2-.1 1.8-1.4 3.2-3.2 3.2zm11-8c-1.3 0-2.3.5-2.9 1.5v-1.3h-1.6v9h1.6v-4.8c0-2.1 1.2-3 2.6-3 1.4 0 2.2.8 2.2 2.3v5.4h1.6V40c0-2.2-1.3-3.6-3.5-3.6zm22.5 3h-6.3v1.5h4.6c-.3 1.9-1.9 3.3-4.5 3.3-3 0-5-2.2-5-4.9 0-2.8 2-4.9 4.9-4.9 1.8 0 3.3.9 4 2.3l1.4-.8c-1-1.8-3.1-3-5.5-3-3.8 0-6.6 2.9-6.6 6.5s2.8 6.5 6.6 6.5 6.2-2.5 6.2-5.7v-.8zm8.2-2.8v4.8c0 2.1-1.2 3-2.6 3-1.4 0-2.2-.8-2.2-2.3v-5.4h-1.6v5.5c0 2.3 1.4 3.7 3.5 3.7 1.3 0 2.3-.5 2.9-1.5v1.3h1.6v-9h-1.6zm5.1 5.3h7.5c0-.2.1-.5.1-.7 0-2.5-1.8-4.8-4.5-4.8-2.8 0-4.7 2.1-4.7 4.7 0 2.7 1.9 4.7 4.8 4.7 1.8 0 3.2-.8 4-2l-1.3-.8c-.4.7-1.4 1.3-2.6 1.3-1.7.1-3-.8-3.3-2.4zm3.1-4c1.4 0 2.6.8 2.9 2.6h-6c.2-1.6 1.4-2.6 3.1-2.6zm7.3 1.2c0-.8.8-1.2 1.6-1.2s1.6.3 1.9 1.2l1.3-.7c-.6-1.2-1.8-1.9-3.2-1.9-1.8 0-3.2 1.1-3.2 2.7 0 3.3 5 2.2 5 4.1 0 .9-.8 1.2-1.8 1.2-1.1 0-1.9-.5-2.2-1.4l-1.3.8c.5 1.2 1.8 2.1 3.6 2.1 1.9 0 3.4-1 3.4-2.7-.1-3.4-5.1-2.3-5.1-4.2zm11.4-.9v-1.5h-2.4v-2.5l-1.6.5v2.1h-1.8v1.5h1.8V43c0 2.3 1.3 3 4 2.6v-1.4c-1.6.1-2.4.2-2.4-1.2v-4.9h2.4z" fill="#fff"></path></g></svg>