<svg version="1.1" id="Layer_1" xmlns:x="ns_extend;" xmlns:i="ns_ai;" xmlns:graph="ns_graphs;" xmlns="http://www.w3.org/2000/svg" xmlns:xlink="http://www.w3.org/1999/xlink" x="0px" y="0px" viewBox="0 0 191.3 64" style="enable-background:new 0 0 191.3 64;" xml:space="preserve">
 <style type="text/css">
  .st0{fill:#39AC37;}
 </style>
 <metadata>
  <sfw xmlns="ns_sfw;">
   <slices>
   </slices>
   <sliceSourceBounds bottomLeftOrigin="true" height="64" width="191.3" x="1721.4" y="0">
   </sliceSourceBounds>
  </sfw>
 </metadata>
 <g>
  <path class="st0" d="M82.7,7.2c0,4-3.2,7.2-7.2,7.2c-4,0-7.2-3.2-7.2-7.2S71.4,0,75.5,0S82.7,3.2,82.7,7.2z M49.6,2.1H60v60.6H49.6
		V2.1z M124.7,2.1h10.4v60.6h-10.4v-5.3c-3.8,4.3-9.2,6.6-14.6,6.6C99.6,64,89,55.7,89,41.1c0-14.8,10.6-22.9,21.1-22.9
		c5.4,0,10.8,2.3,14.6,6.5V2.1z M41.2,49.9c0,8-8.6,14.1-20.3,14.1C9.2,64,0,57.9,0,48.2h10.4c0,3.8,4.5,6.9,10.6,6.9
		c5.6,0,9.3-2.4,9.3-5.2c0-7.2-30-0.1-30-17.6c0-7.7,8.2-14.2,19.9-14.2c11.8,0,20.1,6.7,20.1,16.4H29.9c0-3.7-3.6-7.4-9.7-7.4
		c-5.7,0-9.3,2.2-9.3,5.2C10.8,39.9,41.2,32.9,41.2,49.9L41.2,49.9z M191.3,41.1c0,12.6-10.1,22.9-23.9,22.9
		c-13.8,0-24-10.3-24-22.9c0-13.5,10.1-22.9,24-22.9C181.2,18.2,191.3,27.6,191.3,41.1L191.3,41.1z M70.2,19.4h10.4v43.3H70.2V19.4z
		 M180.7,41.1c0-8.1-6-13.5-13.3-13.5c-7.5,0-13.4,5.3-13.4,13.5c0,7.9,5.9,13.4,13.4,13.4C174.7,54.5,180.7,49,180.7,41.1
		L180.7,41.1z M124.7,41.1c0-8.3-6.1-13.4-12.7-13.4c-6.6,0-12.7,5-12.7,13.4c0,8.3,6.1,13.3,12.7,13.3
		C118.6,54.4,124.7,49.3,124.7,41.1L124.7,41.1z">
  </path>
 </g>
</svg>