<?xml version="1.0" encoding="UTF-8"?>
<svg xmlns="http://www.w3.org/2000/svg" id="Layer_2" viewBox="0 0 351.35 80.25">
  <defs>
    <style>.cls-1,.cls-2,.cls-3,.cls-4,.cls-5{stroke-width:0px;}.cls-2{fill:#1996ff;}.cls-3{fill:#1951c4;}.cls-4{fill:#43c462;}.cls-5{fill:#071b2b;}</style>
  </defs>
  <g id="Layer_1-2">
    <path class="cls-2" d="m68.81.04h0l-19.78,34.27c-3.21,5.56-3.21,12.41,0,17.97l5.16,8.94,24.97-43.25C83.76,10,78.01.04,68.81.04Z"></path>
    <path class="cls-4" d="m56.75,8.99L61.91.04H11.97c-9.2,0-14.95,9.96-10.35,17.93h0s39.57,0,39.57,0c6.42,0,12.35-3.43,15.56-8.99Z"></path>
    <path class="cls-3" d="m50.74,67.19l-19.78-34.27c-3.21-5.56-9.14-8.99-15.56-8.99H5.07s24.97,43.25,24.97,43.25c4.6,7.97,16.1,7.97,20.7,0h0Z"></path>
    <path class="cls-5" d="m97.7,22.72h7.15c.23,0,.44.14.53.36l11.3,28.89,10.82-28.88c.08-.22.3-.37.53-.37h6.51c.4,0,.68.4.53.78l-14.54,37.05c-.09.22-.3.36-.53.36h-7.21c-.23,0-.44-.14-.53-.35l-15.09-37.05c-.15-.37.12-.78.53-.78Z"></path>
    <path class="cls-5" d="m139.39,27.82c-.22-.23-.21-.61.03-.82,1.94-1.68,4.15-2.96,6.65-3.84,2.69-.94,5.37-1.41,8.06-1.41s5.2.35,7.21,1.05c2.01.7,3.67,1.64,4.96,2.82,1.29,1.18,2.24,2.54,2.86,4.07.62,1.53.93,3.13.93,4.79v19.5c0,1.34.03,2.58.08,3.71.04.9.1,1.77.18,2.6.03.33-.23.62-.56.62h-5.29c-.3,0-.55-.23-.57-.53-.14-1.76-.28-3.52-.28-5.27h0c-1.61,2.47-3.6,4.22-5.8,5.24-2.2,1.02-4.75,1.53-7.65,1.53-1.77,0-3.46-.24-5.08-.73-1.61-.48-3.02-1.21-4.23-2.18s-2.16-2.16-2.86-3.59c-.7-1.42-1.05-3.07-1.05-4.96,0-2.47.55-4.54,1.65-6.2,1.1-1.66,2.6-3.02,4.51-4.07,1.91-1.05,4.14-1.8,6.69-2.26,2.55-.46,5.28-.68,8.18-.68h5.32v-1.61c0-.97-.19-1.93-.56-2.9-.38-.97-.94-1.84-1.69-2.62-.75-.78-1.69-1.4-2.82-1.85-1.13-.46-2.47-.68-4.03-.68-1.4,0-2.62.13-3.67.4-1.05.27-2,.6-2.86,1.01-.86.4-1.64.87-2.34,1.41-.55.43-1.09.84-1.61,1.23l-.75-.06-3.59-3.72Zm20.05,14.72c-1.72,0-3.48.09-5.28.28-1.8.19-3.44.55-4.91,1.09-1.48.54-2.69,1.29-3.63,2.26-.94.97-1.41,2.2-1.41,3.71,0,2.2.74,3.79,2.22,4.75,1.48.97,3.48,1.45,6,1.45,1.99,0,3.68-.33,5.08-1.01,1.4-.67,2.52-1.54,3.38-2.62.86-1.07,1.48-2.27,1.85-3.59.38-1.32.56-2.62.56-3.91v-2.42h-3.87Z"></path>
    <path class="cls-5" d="m177.8,0h6.11c.31,0,.57.25.57.57v59.77c0,.31-.25.57-.57.57h-6.11c-.31,0-.57-.25-.57-.57V.57c0-.31.25-.57.57-.57Z"></path>
    <path class="cls-5" d="m250.37,9.02c0-1.34.49-2.5,1.46-3.47s2.13-1.46,3.47-1.46,2.5.49,3.47,1.46,1.46,2.13,1.46,3.47-.49,2.5-1.46,3.47-2.13,1.46-3.47,1.46-2.5-.49-3.47-1.46-1.46-2.13-1.46-3.47Zm1.87,13.7h6.11c.31,0,.57.25.57.57v37.05c0,.31-.25.57-.57.57h-6.11c-.31,0-.57-.25-.57-.57V23.29c0-.31.25-.57.57-.57Z"></path>
    <path class="cls-5" d="m190.5,9.02c0-1.34.49-2.5,1.46-3.47s2.13-1.46,3.47-1.46,2.5.49,3.47,1.46,1.46,2.13,1.46,3.47-.49,2.5-1.46,3.47-2.13,1.46-3.47,1.46-2.5-.49-3.47-1.46-1.46-2.13-1.46-3.47Zm1.87,13.7h6.11c.31,0,.57.25.57.57v37.05c0,.31-.25.57-.57.57h-6.11c-.31,0-.57-.25-.57-.57V23.29c0-.31.25-.57.57-.57Z"></path>
    <path class="cls-5" d="m243.96,60.91h-6.17c-.31,0-.57-.25-.57-.57v-4.91h0c-1.4,2.04-3.42,3.63-5.87,4.75-2.44,1.13-4.95,1.69-7.53,1.69-2.95,0-5.63-.51-8.02-1.53-2.39-1.02-4.43-2.44-6.12-4.27-1.69-1.83-2.99-3.95-3.91-6.36-.91-2.42-1.37-5.05-1.37-7.9s.46-5.49,1.37-7.94c.91-2.44,2.22-4.56,3.91-6.36,1.69-1.8,3.73-3.21,6.12-4.23,2.39-1.02,5.06-1.53,8.02-1.53,2.74,0,5.32.58,7.73,1.73,2.42,1.16,4.38,2.73,5.67,4.71h0V.57c0-.31.25-.57.57-.57h6.17c.31,0,.57.25.57.57v59.77c0,.31-.25.57-.57.57Zm-19.25-5.8c1.93,0,3.68-.33,5.24-1.01,1.56-.67,2.87-1.58,3.95-2.74,1.07-1.15,1.91-2.55,2.5-4.19.59-1.64.89-3.42.89-5.36s-.3-3.72-.89-5.36c-.59-1.64-1.42-3.03-2.5-4.19-1.08-1.15-2.39-2.07-3.95-2.74-1.56-.67-3.3-1.01-5.24-1.01s-3.68.34-5.24,1.01c-1.56.67-2.87,1.58-3.95,2.74-1.08,1.16-1.91,2.55-2.5,4.19-.59,1.64-.89,3.42-.89,5.36s.29,3.72.89,5.36c.59,1.64,1.42,3.04,2.5,4.19,1.07,1.16,2.39,2.07,3.95,2.74,1.56.67,3.3,1.01,5.24,1.01Z"></path>
    <path class="cls-5" d="m289.46,29h-9.83v17.32c0,1.08.03,2.14.08,3.18.05,1.05.25,1.99.6,2.82.35.83.89,1.5,1.61,2.01.72.51,1.79.77,3.18.77.86,0,1.74-.08,2.66-.24.61-.11,1.18-.27,1.71-.5.37-.16.78.12.78.52v5.35c-.12.19-.21.33-.33.52-.81.39-1.81.67-3.01.83-1.37.19-2.43.28-3.18.28-2.79,0-4.96-.39-6.49-1.17-1.53-.78-2.66-1.79-3.38-3.02-.73-1.24-1.16-2.62-1.29-4.15-.13-1.53-.2-3.07-.2-4.63v-19.9h-7.26c-.31,0-.57-.25-.57-.57v-5.15c0-.31.25-.57.57-.57h7.26v-10.15c0-.31.25-.57.57-.57h6.11c.31,0,.57.25.57.57v10.15h9.83c.31,0,.57.25.57.57v5.15c0,.31-.25.57-.57.57Z"></path>
    <path class="cls-5" d="m295.15,22.72h7.14c.24,0,.45.15.53.37l11.25,29.45,10.79-29.44c.08-.22.3-.37.53-.37h6.51c.4,0,.67.4.53.77l-17.83,45.63c-.64,1.66-1.31,3.18-2.01,4.55-.69,1.37-1.52,2.54-2.49,3.5-.96.97-2.13,1.72-3.49,2.26-1.36.54-3.04.81-5.01.81-1.07,0-2.15-.07-3.25-.2-.95-.12-1.87-.34-2.76-.68l-.35-.6.73-5.46c.05-.36.41-.58.75-.46,1.22.43,2.45.64,3.67.64,1.12,0,2.07-.15,2.84-.44.77-.3,1.44-.73,2-1.29.56-.56,1.03-1.22,1.4-1.97.37-.75.75-1.61,1.12-2.58l2.35-6.04-15.48-37.65c-.15-.37.12-.78.53-.78Z"></path>
    <path class="cls-1" d="m351.35,6.46c0,3.66-2.88,6.54-6.62,6.54s-6.66-2.88-6.66-6.54,2.95-6.46,6.66-6.46,6.62,2.88,6.62,6.46Zm-11.62,0c0,2.88,2.13,5.16,5.04,5.16s4.92-2.29,4.92-5.12-2.09-5.2-4.96-5.2-5,2.32-5,5.16Zm3.98,3.39h-1.5V3.39c.59-.12,1.42-.2,2.48-.2,1.22,0,1.77.2,2.25.47.35.28.63.79.63,1.42,0,.71-.55,1.26-1.34,1.5v.08c.63.24.98.71,1.18,1.58.2.98.32,1.38.47,1.62h-1.62c-.2-.24-.32-.83-.51-1.58-.12-.71-.51-1.02-1.34-1.02h-.71v2.6Zm.04-3.66h.71c.83,0,1.5-.28,1.5-.95,0-.59-.43-.98-1.38-.98-.39,0-.67.04-.83.08v1.85Z"></path>
  </g>
</svg>
