<svg width="149" height="24" viewBox="0 0 149 24" fill="none" xmlns="http://www.w3.org/2000/svg">
<path fill-rule="evenodd" clip-rule="evenodd" d="M12.5293 3.50155C12.2823 3.25452 11.8818 3.25452 11.6347 3.50155L3.58358 11.5527C3.33655 11.7997 3.33655 12.2003 3.58358 12.4473L11.6347 20.4984C11.8818 20.7455 12.2823 20.7455 12.5293 20.4984L20.5805 12.4473C20.8275 12.2003 20.8275 11.7997 20.5805 11.5527L12.5293 3.50155ZM12.9766 0.370544C12.4825 -0.123515 11.6815 -0.123515 11.1875 0.370545L0.452575 11.1054C-0.0414834 11.5995 -0.0414836 12.4005 0.452576 12.8946L11.1875 23.6295C11.6815 24.1235 12.4825 24.1235 12.9766 23.6295L23.7115 12.8946C24.2055 12.4005 24.2055 11.5995 23.7115 11.1054L12.9766 0.370544Z" fill="#9187F6"/>
<mask id="mask0_785_46801" style="mask-type:alpha" maskUnits="userSpaceOnUse" x="0" y="0" width="25" height="24">
<path fill-rule="evenodd" clip-rule="evenodd" d="M12.5293 3.50155C12.2823 3.25452 11.8818 3.25452 11.6347 3.50155L3.58358 11.5527C3.33655 11.7997 3.33655 12.2003 3.58358 12.4473L11.6347 20.4984C11.8818 20.7455 12.2823 20.7455 12.5293 20.4984L20.5805 12.4473C20.8275 12.2003 20.8275 11.7997 20.5805 11.5527L12.5293 3.50155ZM12.9766 0.370544C12.4825 -0.123515 11.6815 -0.123515 11.1875 0.370545L0.452575 11.1054C-0.0414834 11.5995 -0.0414836 12.4005 0.452576 12.8946L11.1875 23.6295C11.6815 24.1235 12.4825 24.1235 12.9766 23.6295L23.7115 12.8946C24.2055 12.4005 24.2055 11.5995 23.7115 11.1054L12.9766 0.370544Z" fill="white"/>
</mask>
<g mask="url(#mask0_785_46801)">
<g filter="url(#filter0_d_785_46801)">
<path d="M20.1875 0.370545C20.6815 -0.123515 21.4825 -0.123515 21.9766 0.370544L32.7115 11.1054C33.2055 11.5995 33.2055 12.4005 32.7115 12.8946L21.9766 23.6295C21.4825 24.1235 20.6815 24.1235 20.1875 23.6295L9.45258 12.8946C8.95852 12.4005 8.95852 11.5995 9.45258 11.1054L20.1875 0.370545Z" fill="black" fill-opacity="0.01"/>
</g>
</g>
<path d="M20.1875 0.370545C20.6815 -0.123515 21.4825 -0.123515 21.9766 0.370544L32.7115 11.1054C33.2055 11.5995 33.2055 12.4005 32.7115 12.8946L21.9766 23.6295C21.4825 24.1235 20.6815 24.1235 20.1875 23.6295L9.45258 12.8946C8.95852 12.4005 8.95852 11.5995 9.45258 11.1054L20.1875 0.370545Z" fill="#8313DD"/>
<mask id="mask1_785_46801" style="mask-type:alpha" maskUnits="userSpaceOnUse" x="37" y="2" width="22" height="20">
<path fill-rule="evenodd" clip-rule="evenodd" d="M37.7969 2.67188H58.7882V21.007H37.7969V2.67188Z" fill="white"/>
</mask>
<g mask="url(#mask1_785_46801)">
<path fill-rule="evenodd" clip-rule="evenodd" d="M54.776 19.3592C54.6166 19.9613 54.404 20.3864 54.1383 20.6346C53.8726 20.8827 53.5272 21.007 53.102 21.007C52.6769 21.007 52.3314 20.878 52.0657 20.6213C51.8 20.365 51.5874 19.9437 51.428 19.3592L48.3192 8.2523H48.266L45.1572 19.3592C44.9977 19.9437 44.7852 20.365 44.5194 20.6213C44.2537 20.878 43.9083 21.007 43.4832 21.007C43.058 21.007 42.7169 20.8827 42.4602 20.6346C42.2034 20.3864 41.9862 19.9613 41.8092 19.3592L37.8766 4.77145C37.8234 4.55888 37.7969 4.3553 37.7969 4.1603C37.7969 3.73516 37.9297 3.38116 38.1954 3.09745C38.4612 2.81459 38.8332 2.67188 39.3114 2.67188C39.701 2.67188 40.0199 2.77859 40.268 2.99116C40.5162 3.20373 40.7107 3.56673 40.8526 4.08102L43.616 15.2672H43.6692L46.7514 4.08102C47.0172 3.14159 47.5306 2.67188 48.2926 2.67188C49.0542 2.67188 49.568 3.14159 49.8337 4.08102L52.9957 15.2672H53.0489L55.7592 4.08102C55.883 3.56673 56.0733 3.20373 56.3304 2.99116C56.5872 2.77859 56.9017 2.67188 57.2737 2.67188C57.752 2.67188 58.124 2.81459 58.3897 3.09745C58.6554 3.38116 58.7883 3.73516 58.7883 4.1603C58.7883 4.3553 58.7617 4.55888 58.7086 4.77145L54.776 19.3592Z" fill="#0F171F"/>
</g>
<path fill-rule="evenodd" clip-rule="evenodd" d="M70.0258 21.0066C69.5826 21.0066 69.2239 20.8694 68.9496 20.5947C68.6749 20.32 68.5378 19.9347 68.5378 19.4389V13.2212C68.5378 12.3884 68.3385 11.7152 67.9399 11.2013C67.5414 10.6883 66.9345 10.4307 66.1198 10.4307C65.3226 10.4307 64.7154 10.6883 64.2996 11.2013C63.8831 11.7152 63.6752 12.3884 63.6752 13.2212V19.4389C63.6752 19.9347 63.5376 20.32 63.2634 20.5947C62.9886 20.8694 62.6299 21.0066 62.1872 21.0066C61.7441 21.0066 61.3854 20.8694 61.1111 20.5947C60.8364 20.32 60.6992 19.9347 60.6992 19.4389V4.23959C60.6992 3.74416 60.8364 3.35887 61.1111 3.08416C61.3854 2.80945 61.7441 2.67188 62.1872 2.67188C62.6299 2.67188 62.9886 2.80945 63.2634 3.08416C63.5376 3.35887 63.6752 3.74416 63.6752 4.23959V9.26202H63.7018C64.0382 8.8013 64.4942 8.4383 65.0702 8.17216C65.6458 7.90687 66.3144 7.77359 67.0764 7.77359C67.7672 7.77359 68.3826 7.89316 68.9231 8.13273C69.4635 8.37187 69.9281 8.70359 70.3181 9.12873C70.7076 9.55387 71.0042 10.0544 71.2082 10.6304C71.4114 11.2064 71.5138 11.839 71.5138 12.5303V19.4389C71.5138 19.9347 71.3762 20.32 71.1019 20.5947C70.8272 20.8694 70.4685 21.0066 70.0258 21.0066Z" fill="#0F171F"/>
<mask id="mask2_785_46801" style="mask-type:alpha" maskUnits="userSpaceOnUse" x="73" y="2" width="5" height="20">
<path fill-rule="evenodd" clip-rule="evenodd" d="M73.6406 2.57031H77.2012V21.0108H73.6406V2.57031Z" fill="white"/>
</mask>
<g mask="url(#mask2_785_46801)">
<path fill-rule="evenodd" clip-rule="evenodd" d="M75.4205 21.0111C74.9774 21.0111 74.6187 20.8739 74.3444 20.5992C74.0697 20.3245 73.9325 19.9392 73.9325 19.4433V9.5052C73.9325 9.00935 74.0697 8.62449 74.3444 8.34978C74.6187 8.07506 74.9774 7.93792 75.4205 7.93792C75.8633 7.93792 76.222 8.07506 76.4967 8.34978C76.771 8.62449 76.9086 9.00935 76.9086 9.5052V19.4433C76.9086 19.9392 76.771 20.3245 76.4967 20.5992C76.222 20.8739 75.8633 21.0111 75.4205 21.0111ZM73.6406 4.35017C73.6406 3.85474 73.8133 3.43346 74.1588 3.08846C74.5042 2.74303 74.9246 2.57031 75.4209 2.57031C75.9168 2.57031 76.3376 2.74303 76.6831 3.08846C77.0285 3.43346 77.2012 3.85474 77.2012 4.35017C77.2012 4.84646 77.0285 5.26731 76.6831 5.61231C76.3376 5.95817 75.9168 6.13046 75.4209 6.13046C74.9246 6.13046 74.5042 5.95817 74.1588 5.61231C73.8133 5.26731 73.6406 4.84646 73.6406 4.35017Z" fill="#0F171F"/>
</g>
<path fill-rule="evenodd" clip-rule="evenodd" d="M79.4609 9.50839C79.4609 9.01254 79.5981 8.62725 79.8728 8.35296C80.1475 8.07825 80.5058 7.94111 80.9489 7.94111C81.3917 7.94111 81.7328 8.06496 81.9719 8.31268C82.2111 8.56125 82.3658 8.87968 82.4369 9.26925H82.4635C82.7468 8.86168 83.1677 8.51196 83.7257 8.21968C84.2837 7.92782 84.9878 7.78125 85.8381 7.78125C86.5997 7.78125 87.2772 7.92782 87.8708 8.21968C88.4639 8.51196 88.9555 8.93282 89.3455 9.48182H89.3721C89.8679 8.95039 90.4435 8.53468 91.0992 8.23296C91.7545 7.93168 92.5427 7.78125 93.4641 7.78125C94.2081 7.78125 94.8681 7.90082 95.4437 8.14039C96.0192 8.37911 96.5065 8.71125 96.9051 9.13639C97.3037 9.56154 97.6045 10.0621 97.8085 10.6381C98.0121 11.2137 98.1141 11.8467 98.1141 12.5375V19.4461C98.1141 19.9424 97.9769 20.3277 97.7022 20.6024C97.4271 20.8767 97.0684 21.0142 96.6261 21.0142C96.1829 21.0142 95.8242 20.8767 95.5504 20.6024C95.2752 20.3277 95.1385 19.9424 95.1385 19.4461V13.2288C95.1385 12.3957 94.9341 11.7228 94.5269 11.209C94.1194 10.696 93.5172 10.4384 92.7201 10.4384C91.9405 10.4384 91.3384 10.696 90.9132 11.209C90.4881 11.7228 90.2755 12.3957 90.2755 13.2288V19.4461C90.2755 19.9424 90.1384 20.3277 89.8637 20.6024C89.5889 20.8767 89.2302 21.0142 88.7875 21.0142C88.3448 21.0142 87.9861 20.8767 87.7114 20.6024C87.4367 20.3277 87.2995 19.9424 87.2995 19.4461V13.2288C87.2995 12.3957 87.0955 11.7228 86.6884 11.209C86.2808 10.696 85.6787 10.4384 84.8815 10.4384C84.1019 10.4384 83.4998 10.696 83.0747 11.209C82.6495 11.7228 82.4369 12.3957 82.4369 13.2288V19.4461C82.4369 19.9424 82.2998 20.3277 82.0251 20.6024C81.7504 20.8767 81.3917 21.0142 80.9489 21.0142C80.5058 21.0142 80.1475 20.8767 79.8728 20.6024C79.5981 20.3277 79.4609 19.9424 79.4609 19.4461V9.50839Z" fill="#0F171F"/>
<path fill-rule="evenodd" clip-rule="evenodd" d="M105.367 21.1733C104.375 21.1733 103.48 21.0447 102.683 20.7884C101.886 20.5312 101.222 20.2257 100.69 19.8717C100.212 19.5704 99.9727 19.1718 99.9727 18.6755C99.9727 18.3215 100.097 18.0074 100.345 17.7323C100.592 17.458 100.92 17.3204 101.328 17.3204C101.611 17.3204 101.921 17.4181 102.258 17.6127C102.753 17.9144 103.254 18.1625 103.759 18.3567C104.264 18.5521 104.853 18.649 105.526 18.649C106.27 18.649 106.85 18.5165 107.267 18.2504C107.682 17.9851 107.891 17.6127 107.891 17.1344C107.891 16.7452 107.745 16.4345 107.453 16.2044C107.16 15.9742 106.598 15.8152 105.765 15.7265L104.384 15.5933C103.055 15.4518 102.068 15.0618 101.421 14.4241C100.774 13.7864 100.451 12.919 100.451 11.8201C100.451 10.5978 100.876 9.61939 101.726 8.88396C102.577 8.14939 103.808 7.78125 105.42 7.78125C106.164 7.78125 106.868 7.86996 107.532 8.04739C108.197 8.22439 108.785 8.45496 109.299 8.73782C109.6 8.89725 109.826 9.07468 109.977 9.26968C110.127 9.46468 110.203 9.69482 110.203 9.96011C110.203 10.3325 110.087 10.6424 109.857 10.8901C109.627 11.1387 109.326 11.2625 108.954 11.2625C108.706 11.2625 108.396 11.1648 108.024 10.9698C107.616 10.7752 107.174 10.6111 106.695 10.4783C106.217 10.3454 105.739 10.279 105.26 10.279C104.587 10.279 104.095 10.408 103.786 10.6643C103.475 10.9214 103.321 11.236 103.321 11.6075C103.321 11.98 103.467 12.2765 103.759 12.4981C104.051 12.7197 104.605 12.8748 105.42 12.9627L106.802 13.0955C108.165 13.2378 109.166 13.6364 109.804 14.2912C110.442 14.9474 110.761 15.8062 110.761 16.8691C110.761 18.1441 110.3 19.1808 109.379 19.978C108.458 20.7747 107.12 21.1733 105.367 21.1733Z" fill="#0F171F"/>
<mask id="mask3_785_46801" style="mask-type:alpha" maskUnits="userSpaceOnUse" x="112" y="2" width="5" height="20">
<path fill-rule="evenodd" clip-rule="evenodd" d="M112.543 2.57031H116.104V21.0108H112.543V2.57031Z" fill="white"/>
</mask>
<g mask="url(#mask3_785_46801)">
<path fill-rule="evenodd" clip-rule="evenodd" d="M114.323 21.0111C113.88 21.0111 113.521 20.8739 113.247 20.5992C112.972 20.3245 112.835 19.9392 112.835 19.4433V9.5052C112.835 9.00935 112.972 8.62449 113.247 8.34978C113.521 8.07506 113.88 7.93792 114.323 7.93792C114.765 7.93792 115.124 8.07506 115.399 8.34978C115.673 8.62449 115.811 9.00935 115.811 9.5052V19.4433C115.811 19.9392 115.673 20.3245 115.399 20.5992C115.124 20.8739 114.765 21.0111 114.323 21.0111ZM112.543 4.35017C112.543 3.85474 112.716 3.43346 113.061 3.08846C113.407 2.74303 113.827 2.57031 114.323 2.57031C114.819 2.57031 115.24 2.74303 115.585 3.08846C115.931 3.43346 116.104 3.85474 116.104 4.35017C116.104 4.84646 115.931 5.26731 115.585 5.61231C115.24 5.95817 114.819 6.13046 114.323 6.13046C113.827 6.13046 113.407 5.95817 113.061 5.61231C112.716 5.26731 112.543 4.84646 112.543 4.35017Z" fill="#0F171F"/>
</g>
<path fill-rule="evenodd" clip-rule="evenodd" d="M123.73 21.1733C122.437 21.1733 121.329 20.8724 120.409 20.2703C119.488 19.6681 118.841 18.7908 118.469 17.6393C118.203 16.8425 118.07 15.7887 118.07 14.4777C118.07 13.1667 118.203 12.1124 118.469 11.3153C118.841 10.1645 119.488 9.28725 120.409 8.68468C121.329 8.08254 122.437 7.78125 123.73 7.78125C124.633 7.78125 125.431 7.93682 126.121 8.24668C126.812 8.55654 127.361 8.94182 127.769 9.40211C127.963 9.61468 128.101 9.81396 128.181 10.0004C128.26 10.186 128.3 10.3771 128.3 10.5713C128.3 10.9437 128.176 11.2535 127.928 11.5013C127.68 11.7498 127.37 11.8737 126.998 11.8737C126.768 11.8737 126.555 11.8158 126.361 11.7005C126.166 11.5857 125.971 11.431 125.776 11.236C125.527 10.9698 125.245 10.771 124.926 10.6381C124.607 10.5048 124.217 10.4384 123.757 10.4384C123.189 10.4384 122.698 10.576 122.282 10.8507C121.865 11.1254 121.56 11.5458 121.365 12.1124C121.258 12.4317 121.188 12.7814 121.153 13.162C121.117 13.5434 121.099 13.9818 121.099 14.4777C121.099 14.9735 121.117 15.412 121.153 15.7925C121.188 16.1735 121.258 16.5232 121.365 16.8425C121.56 17.4095 121.865 17.83 122.282 18.1047C122.698 18.379 123.189 18.5165 123.757 18.5165C124.217 18.5165 124.607 18.4501 124.926 18.3173C125.245 18.184 125.527 17.9851 125.776 17.719C125.971 17.5244 126.166 17.3697 126.361 17.254C126.555 17.1391 126.768 17.0813 126.998 17.0813C127.37 17.0813 127.68 17.2055 127.928 17.4533C128.176 17.7018 128.3 18.0117 128.3 18.3833C128.3 18.5783 128.26 18.7685 128.181 18.9545C128.101 19.141 127.963 19.3403 127.769 19.5528C127.361 20.0131 126.812 20.3988 126.121 20.7087C125.431 21.0185 124.633 21.1733 123.73 21.1733Z" fill="#0F171F"/>
<mask id="mask4_785_46801" style="mask-type:alpha" maskUnits="userSpaceOnUse" x="130" y="7" width="12" height="15">
<path fill-rule="evenodd" clip-rule="evenodd" d="M130.16 7.77344H141.772V21.1653H130.16V7.77344Z" fill="white"/>
</mask>
<g mask="url(#mask4_785_46801)">
<path fill-rule="evenodd" clip-rule="evenodd" d="M135.236 18.747C136.103 18.747 136.79 18.5786 137.295 18.2417C137.8 17.9057 138.053 17.4009 138.053 16.7276V15.585C138.053 15.4787 137.999 15.4256 137.893 15.4256H135.767C134.775 15.4256 134.067 15.5674 133.642 15.8507C133.217 16.134 133.004 16.5681 133.004 17.1527C133.004 18.2156 133.748 18.747 135.236 18.747ZM141.533 18.7474C141.692 19.0487 141.772 19.3414 141.772 19.6243C141.772 20.0319 141.63 20.364 141.347 20.6207C141.063 20.8774 140.709 21.0064 140.284 21.0064C139.734 21.0064 139.318 20.8029 139.035 20.3949L138.61 19.7572H138.583C138.211 20.2003 137.706 20.5457 137.069 20.7934C136.431 21.0416 135.678 21.1654 134.81 21.1654C133.287 21.1654 132.131 20.8247 131.343 20.1424C130.554 19.4606 130.16 18.5083 130.16 17.286C130.16 15.9043 130.612 14.8774 131.515 14.2033C132.419 13.5304 133.668 13.194 135.262 13.194H137.892C137.999 13.194 138.052 13.1409 138.052 13.0346V12.7157C138.052 11.9717 137.826 11.3919 137.374 10.9749C136.923 10.5592 136.192 10.3509 135.182 10.3509C134.721 10.3509 134.287 10.404 133.88 10.5103C133.473 10.6166 133.127 10.7404 132.844 10.8819C132.578 10.9886 132.321 11.0422 132.073 11.0422C131.719 11.0422 131.426 10.9316 131.196 10.7096C130.966 10.4884 130.851 10.1914 130.851 9.81944C130.851 9.60687 130.908 9.39429 131.024 9.18215C131.139 8.96958 131.329 8.79215 131.595 8.65029C132.002 8.40258 132.534 8.19429 133.19 8.02587C133.845 7.85787 134.615 7.77344 135.501 7.77344C137.325 7.77344 138.676 8.20287 139.553 9.06215C140.43 9.92144 140.869 11.1484 140.869 12.7419V16.7812C140.869 17.118 140.89 17.37 140.935 17.5384C140.979 17.7069 141.045 17.88 141.134 18.0566L141.533 18.7474Z" fill="#0F171F"/>
</g>
<path fill-rule="evenodd" clip-rule="evenodd" d="M147.164 21.0332C145.852 21.0332 144.941 20.7143 144.427 20.077C143.913 19.4389 143.656 18.5089 143.656 17.2866V4.23959C143.656 3.74416 143.793 3.3593 144.068 3.08416C144.342 2.80988 144.702 2.67188 145.144 2.67188C145.569 2.67188 145.923 2.80988 146.207 3.08416C146.49 3.3593 146.632 3.74416 146.632 4.23959V17.0474C146.632 17.5082 146.712 17.8309 146.871 18.0173C147.031 18.2033 147.297 18.3229 147.669 18.376C148.111 18.4292 148.43 18.5753 148.625 18.8144C148.82 19.0536 148.917 19.342 148.917 19.678C148.917 20.0676 148.794 20.3916 148.545 20.6479C148.297 20.9046 147.908 21.0332 147.376 21.0332H147.164Z" fill="#0F171F"/>
<defs>
<filter id="filter0_d_785_46801" x="3.29632" y="-5.78571" width="35.5714" height="35.5714" filterUnits="userSpaceOnUse" color-interpolation-filters="sRGB">
<feFlood flood-opacity="0" result="BackgroundImageFix"/>
<feColorMatrix in="SourceAlpha" type="matrix" values="0 0 0 0 0 0 0 0 0 0 0 0 0 0 0 0 0 0 127 0" result="hardAlpha"/>
<feOffset/>
<feGaussianBlur stdDeviation="2.89286"/>
<feColorMatrix type="matrix" values="0 0 0 0 0 0 0 0 0 0 0 0 0 0 0 0 0 0 0.6 0"/>
<feBlend mode="normal" in2="BackgroundImageFix" result="effect1_dropShadow_785_46801"/>
<feBlend mode="normal" in="SourceGraphic" in2="effect1_dropShadow_785_46801" result="shape"/>
</filter>
</defs>
</svg>
