<svg width="88" height="24" fill="none" xmlns="http://www.w3.org/2000/svg" xmlns:xlink="http://www.w3.org/1999/xlink">
 <path d="M10.301 20.595v-3.498c0-2.638-.32-3.403-1.332-5.6L3.723 0H0l6.733 14.697v5.898H10.3zm2.332-10.638L17.01 0h-3.628L9.005 9.957h3.628zm37.316 10.937c1.653 0 3.01-.776 3.96-2.22l.18 1.921h3.247V0h-3.51v7.438c-.88-1.337-2.188-2.041-3.723-2.041-3.39 0-5.757 2.877-5.757 7.856 0 4.907 2.296 7.64 5.603 7.64zm21.59-1.301v-2.878c-1.095.74-2.927 1.397-4.64 1.397-2.569 0-3.544-1.218-3.687-3.701h8.47v-1.875c0-5.181-2.273-7.14-5.782-7.14-4.282 0-6.316 3.284-6.316 7.797 0 5.182 2.534 7.7 7.03 7.7 2.236 0 3.89-.596 4.925-1.3zM33.71 9.898c.655-.8 1.678-1.48 2.95-1.48 1.238 0 1.797.537 1.797 1.659v10.518h3.509V9.72c0-2.961-1.178-4.263-4.045-4.263-2.093 0-3.33.776-4.044 1.48H33.7l-.084-1.24H30.19v14.9h3.51V9.897h.011zm-6.375.537c0-3.618-1.832-4.979-5.556-4.979-2.307 0-4.163.98-5.222 1.743v3.057c1.119-.92 2.831-1.982 4.818-1.982 1.677 0 2.45.597 2.45 2.197v.943h-.559c-5.376 0-7.767 1.743-7.767 4.86 0 2.877 1.831 4.536 4.544 4.536 2.07 0 2.95-.68 3.628-1.397h.142c.024.383.143.884.262 1.182h3.426a37.483 37.483 0 01-.178-3.641v-6.519h.012zm55.004 10.16h3.96l-4.84-7.677 4.187-7.223h-3.51l-2.533 4.501-2.831-4.5H72.8l4.484 7.139-4.663 7.76h3.569l2.986-5.038 3.164 5.038zM50.983 8.178c1.892 0 2.832 1.517 2.832 4.943 0 3.463-1 4.98-2.986 4.98-1.915 0-2.867-1.481-2.867-4.86.012-3.522 1.011-5.063 3.021-5.063zm14.858 0c1.737 0 2.272 1.457 2.272 3.32v.298h-4.901c.083-2.376.94-3.618 2.629-3.618zm-42.015 8.86c-.44.656-1.272 1.181-2.51 1.181-1.474 0-2.212-.86-2.212-2.16 0-1.72 1.213-2.317 4.223-2.317h.5v3.296z" fill="#fff">
 </path>
</svg>