<?xml version="1.0" standalone="no"?>
<!DOCTYPE svg PUBLIC "-//W3C//DTD SVG 20010904//EN"
 "http://www.w3.org/TR/2001/REC-SVG-20010904/DTD/svg10.dtd">
<svg version="1.0" xmlns="http://www.w3.org/2000/svg"
 width="600.000000pt" height="600.000000pt" viewBox="0 0 600.000000 600.000000"
 preserveAspectRatio="xMidYMid meet">
<metadata>
Created by potrace 1.14, written by Peter Selinger 2001-2017
</metadata>
<g transform="translate(0.000000,600.000000) scale(0.100000,-0.100000)"
fill="#000000" stroke="none">
<path d="M1699 5396 c-2 -2 -30 -6 -62 -10 -174 -18 -371 -97 -537 -214 -65
-46 -222 -197 -250 -241 -8 -13 -20 -29 -26 -35 -6 -6 -23 -33 -39 -61 -16
-27 -32 -52 -35 -55 -14 -11 -91 -205 -109 -275 -17 -65 -33 -161 -34 -202 0
-7 -5 -13 -10 -13 -5 0 -4 -6 2 -13 6 -8 8 -16 6 -19 -6 -6 -7 -2471 -1 -2554
2 -28 6 -64 10 -80 3 -16 8 -45 11 -64 17 -104 86 -278 152 -383 14 -22 19
-36 11 -32 -7 4 -4 -2 8 -12 11 -10 34 -36 49 -58 16 -22 39 -50 50 -62 12
-11 31 -32 41 -45 11 -12 36 -37 56 -55 20 -17 34 -34 31 -37 -4 -3 0 -6 8 -6
13 -1 111 -68 152 -104 9 -9 17 -14 17 -12 0 3 36 -13 79 -34 43 -22 91 -42
105 -46 14 -3 26 -10 26 -15 0 -5 3 -8 8 -8 23 4 52 -2 48 -10 -4 -5 2 -7 12
-4 10 2 31 -1 47 -7 28 -11 49 -14 175 -24 25 -3 45 -5 45 -6 0 -5 2525 -1
2533 4 6 3 13 0 15 -6 4 -10 6 -10 6 0 1 7 5 11 9 8 4 -2 43 2 86 10 43 9 85
13 93 10 8 -3 12 -2 9 2 -3 5 18 14 47 22 29 7 57 15 62 19 6 3 15 6 21 7 47
7 277 143 343 203 19 17 38 28 44 24 6 -3 7 -2 4 4 -4 5 4 19 16 30 12 11 42
42 66 69 25 27 49 48 54 46 4 -1 5 2 2 8 -4 7 2 21 13 33 66 73 168 291 198
422 12 50 26 144 30 190 4 58 4 2517 0 2585 -5 82 -28 194 -58 285 -29 88
-104 247 -120 253 -4 2 -8 8 -8 14 0 19 -128 174 -196 237 -126 116 -352 246
-466 267 -18 4 -40 10 -48 15 -9 4 -36 11 -60 14 -25 4 -56 10 -70 13 -27 6
-2664 14 -2671 8z"/>
<path d="M4756 638 c3 -5 10 -6 15 -3 13 9 11 12 -6 12 -8 0 -12 -4 -9 -9z"/>
<path d="M4515 611 c-3 -5 -2 -12 3 -15 5 -3 9 1 9 9 0 17 -3 19 -12 6z"/>
<path d="M3119 553 c-13 -16 -12 -17 4 -4 16 13 21 21 13 21 -2 0 -10 -8 -17
-17z"/>
</g>
</svg>
