<svg version="1.1" id="Layer_1" xmlns="http://www.w3.org/2000/svg" xmlns:xlink="http://www.w3.org/1999/xlink" x="0px" y="0px" viewBox="0 0 233.7 66" style="enable-background:new 0 0 233.7 66;" xml:space="preserve">
 <style type="text/css">
  .st0{fill:#FFFFFF;}
 </style>
 <g id="Artwork_7_">
  <g>
   <path class="st0" d="M0,32.7c0-5.8,1.6-10.4,4.6-13.9c3.1-3.5,7-5.2,11.9-5.2c1.6,0,3,0.2,4.4,0.6c1.4,0.4,2.4,0.9,3.2,1.5
			s1.5,1.1,2.1,1.7c0.6,0.6,1,1,1.3,1.5l0.3,0.6h0.2c-0.1-0.7-0.2-1.6-0.2-2.4V0.1h7V51h-6.7v-3.5l0.1-2.4H28
			c-0.1,0.2-0.3,0.4-0.4,0.7c-0.2,0.3-0.6,0.9-1.2,1.6c-0.6,0.8-1.4,1.5-2.3,2.1c-0.9,0.6-2,1.1-3.5,1.6c-1.5,0.5-3,0.7-4.7,0.7
			c-4.9,0-8.8-1.7-11.7-5.3C1.5,43,0,38.5,0,32.7z M7.2,32.7c0,4,1,7.1,2.9,9.5c1.9,2.3,4.4,3.5,7.4,3.5c2.9,0,5.5-1.1,7.5-3.3
			c2-2.2,3-5.5,3-9.9c0-3.5-0.9-6.6-2.7-9.1c-1.8-2.6-4.3-3.9-7.6-3.9c-2.9,0-5.5,1.1-7.5,3.5C8.1,25.6,7.2,28.7,7.2,32.7z">
   </path>
   <path class="st0" d="M40.7,7.2V0.1h7.1v7.1L40.7,7.2L40.7,7.2z M40.8,51V14.5h7V51H40.8z">
   </path>
   <path class="st0" d="M58.5,57.6c3,1.6,6.4,2.4,10,2.4c3.5,0,6.2-0.9,8.4-2.5c2.1-1.6,3.2-4.2,3.2-7.8V47l0.1-2.3H80
			c-2.3,3.8-5.9,5.7-10.8,5.7s-8.9-1.7-11.9-5.3c-2.9-3.5-4.4-8-4.4-13.4c0-5.4,1.4-9.8,4.2-13.2c2.9-3.4,6.8-5.1,11.7-5.1
			c1.6,0,3.1,0.2,4.5,0.5s2.5,0.8,3.3,1.4c0.8,0.5,1.5,1.1,2.1,1.6c0.6,0.5,1,1,1.1,1.4l0.4,0.5h0.2c-0.1-0.4-0.1-0.7-0.1-1.1v-3.4
			H87v35c0,2.9-0.5,5.5-1.6,7.6c-1,2.3-2.4,4-4.2,5.2c-1.8,1.3-3.7,2.3-5.8,2.9c-2.1,0.6-4.4,1-6.8,1c-4.4,0-8.6-1-12.5-3L58.5,57.6
			z M70.5,44.5c2.9,0,5.2-1,6.9-2.9c1.8-2,2.7-5.2,2.7-9.6c0-8.1-3.5-12.3-10.3-12.3c-3.1,0-5.5,1-7.4,3.2c-1.7,2.2-2.6,5.1-2.6,8.8
			c0,3.8,1,6.9,2.9,9.3C64.6,43.3,67.2,44.5,70.5,44.5z">
   </path>
   <path class="st0" d="M92.8,7.2V0.1h7.1v7.1L92.8,7.2L92.8,7.2z M92.8,51V14.5h7V51H92.8z">
   </path>
   <path class="st0" d="M105,32.7c0-5.5,1.8-10,5.5-13.6c3.6-3.6,8.3-5.5,14-5.5c2.7,0,5.2,0.4,7.4,1.3c2.3,0.9,3.9,1.8,4.9,2.7
			l1.4,1.3l-3.3,4.9c-0.3-0.3-0.7-0.7-1.3-1.1c-0.5-0.5-1.7-1.1-3.5-1.9c-1.7-0.8-3.5-1.1-5.4-1.1c-3.6,0-6.7,1.2-9.1,3.6
			c-2.4,2.4-3.6,5.5-3.6,9.3s1.2,6.8,3.6,9.4c2.4,2.5,5.5,3.7,9.3,3.7c2,0,4-0.4,5.8-1.2c1.9-0.8,3.2-1.6,4.1-2.4l1.3-1.2l2.8,5.1
			c-0.2,0.2-0.4,0.4-0.6,0.6c-0.3,0.3-0.9,0.7-1.7,1.4c-1,0.7-1.9,1.3-2.9,1.7c-1,0.5-2.4,1-4.1,1.4c-1.6,0.4-3.4,0.6-5.2,0.6
			c-5.7,0-10.4-1.8-14-5.4C106.8,42.9,105,38.3,105,32.7z">
   </path>
   <path class="st0" d="M140,32.7c0-5.7,1.7-10.3,5.2-13.9c3.5-3.5,7.8-5.3,13.1-5.3c4.9,0,8.8,1.6,11.6,4.9
			c2.8,3.2,4.2,7.3,4.2,12.3l-0.2,3h-26.6c0.2,3.8,1.5,6.8,3.9,8.9c2.3,2.1,5.3,3.1,8.7,3.1c1.9,0,3.7-0.4,5.5-1
			c1.8-0.7,3.1-1.4,4-2.1l1.3-1l2.9,5.1c-0.4,0.4-1,0.9-1.7,1.5c-0.8,0.6-2.3,1.4-4.9,2.3c-2.4,1-4.9,1.5-7.5,1.5
			c-5.7,0-10.3-1.8-13.9-5.5C141.8,42.8,140,38.2,140,32.7z M147.4,28.5h19.5c-0.1-3-1-5.4-2.6-6.9s-3.7-2.3-6.1-2.3
			c-2.8,0-5.1,0.8-7,2.4C149.1,23.3,147.8,25.6,147.4,28.5z">
   </path>
   <path class="st0" d="M179,51V14.5h6.8v6.3l-0.2,2.8h0.2c0.9-2.8,2.3-5.1,4.3-6.8c2.1-1.8,4.4-2.7,7.2-2.7l1.8,0.2v6.9
			c-0.6-0.2-1.3-0.2-2-0.2c-2.3,0-4.3,0.8-6.2,2.3s-3.2,3.6-4.1,6.2c-0.6,1.9-0.9,4.1-0.9,6.6V51L179,51L179,51z">
   </path>
   <path class="st0" d="M208.1,37.7V20.6h-4.8V15h4.9V4.4h6.8V15h8.8v5.6h-8.8v16.2c0,1.4,0.2,2.6,0.6,3.6c0.4,1,0.9,1.8,1.4,2.4
			s1.2,1,1.9,1.4c0.8,0.4,1.4,0.5,2,0.6s1.2,0.2,1.8,0.2l1.6-0.2v6.2c-0.7,0.1-1.5,0.2-2.4,0.2c-1.1,0-2.3-0.1-3.3-0.2
			c-1-0.2-2.3-0.5-3.6-1c-1.4-0.6-2.5-1.3-3.5-2.3s-1.8-2.3-2.5-4C208.5,42,208.1,39.9,208.1,37.7z">
   </path>
   <path class="st0" d="M228.5,0c-2.9,0-5.3,2.3-5.3,5.3s2.3,5.3,5.3,5.3s5.3-2.3,5.3-5.3C233.7,2.3,231.4,0,228.5,0 M228.5,9.5
			c-2.3,0-4.2-1.9-4.2-4.2s1.9-4.2,4.2-4.2s4.2,1.9,4.2,4.2S230.8,9.5,228.5,9.5">
   </path>
   <g>
    <path class="st0" d="M226.7,8.1V2.3h1.8c0.5,0,0.9,0.1,1.1,0.2c0.3,0.1,0.5,0.4,0.7,0.6c0.2,0.3,0.3,0.6,0.3,1
				c0,0.4-0.1,0.7-0.3,1c-0.2,0.3-0.4,0.5-0.8,0.6l0,0c0.1,0.1,0.1,0.2,0.2,0.3l1.2,2.3h-1l-1.2-2.3h-1.2v2.3
				C227.5,8.1,226.7,8.1,226.7,8.1z M227.4,5.1h1.2c0.4,0,0.6-0.1,0.8-0.3c0.2-0.2,0.3-0.4,0.3-0.8c0-0.4-0.2-0.7-0.4-0.9
				c-0.2-0.1-0.4-0.2-0.8-0.2h-1L227.4,5.1L227.4,5.1z">
    </path>
   </g>
  </g>
 </g>
</svg>