<svg version="1.1" id="Layer_1" xmlns:x="ns_extend;" xmlns:i="ns_ai;" xmlns:graph="ns_graphs;" xmlns="http://www.w3.org/2000/svg" xmlns:xlink="http://www.w3.org/1999/xlink" x="0px" y="0px" viewBox="0 0 481.5 100" style="enable-background:new 0 0 481.5 100;" xml:space="preserve">
 <style type="text/css">
  .st0{fill:#D5FF00;}
	.st1{fill:#191823;}
	.st2{fill:#FFFFFF;}
 </style>
 <metadata>
  <sfw xmlns="ns_sfw;">
   <slices>
   </slices>
   <sliceSourceBounds bottomLeftOrigin="true" height="100" width="481.5" x="-216.3" y="-213.3">
   </sliceSourceBounds>
  </sfw>
 </metadata>
 <g>
  <path class="st0" d="M100.3,0H0v100h100.3V0z">
  </path>
  <path class="st1" d="M86.4,76.4H13.9v9.7h72.4V76.4z M50.2,70.8l6.9-6.8l21-20.9l-7-7l-16,16V12.5h-9.7v39.6l-16-16l-7,7l21,20.9
		C43.2,64,50.2,70.8,50.2,70.8z">
  </path>
 </g>
 <g>
  <path class="st2" d="M156.2,20.3h-25.4v0v60.1h24.4c7.6,0,13.4-2.1,17.9-5.8c6.3-5.3,9.6-13.9,9.6-23.6
		C182.7,33.2,172.3,20.3,156.2,20.3z M154.4,69.9L154.4,69.9l-11.3,0V30.7h11.6c10.4,0,15.6,8.3,15.6,20.3
		C170.3,62.9,165.8,69.9,154.4,69.9z">
  </path>
  <path class="st2" d="M207.1,36.1c-13.4,0-22.6,9.9-22.6,22.8v0c0,12.9,9.2,22.8,22.6,22.8c13.4,0,22.6-9.9,22.6-22.8
		C229.7,46,220.5,36.1,207.1,36.1z M207.1,72.9c-7.1,0-11-5.6-11-14s4-14.1,11-14.1c7,0,11,5.7,11,14.1S214.2,72.9,207.1,72.9z">
  </path>
  <path class="st2" d="M254,72.5c-7,0-10.3-5.3-10.3-13.6c0-8.3,3.5-13.6,10.5-13.6c4.2,0,7.2,2.9,7.9,6.6h11.2
		c-1.5-9.3-8.4-15.8-19.6-15.8c-13.2,0-21.6,9.9-21.6,22.8l0,0c0,12.9,8.5,22.8,22.2,22.8c11.6,0,18.7-7.3,19.5-16.5h-11
		C261.9,70,258.6,72.5,254,72.5z">
  </path>
  <polygon class="st2" points="304,80.4 304,80.4 304,80.4 	">
  </polygon>
  <path class="st2" d="M303.6,62.1c0,5.7-3.3,9.8-8.7,9.8c-4.9,0-7.2-2.8-7.2-7.8V37.2h-11.4V66c0,9.4,5.4,15.6,15,15.6
		c6.1,0,9.4-2.3,12.4-6.2h0.3v5h11V37.2h-11.5V62.1z">
  </path>
  <rect x="370.9" y="20.5" class="st2" width="11.5" height="10.7">
  </rect>
  <rect x="370.9" y="37.3" class="st2" width="11.5" height="43.1">
  </rect>
  <path class="st2" d="M417.1,41.8h-0.2c-2.6-3.6-6.6-5.7-12-5.7c-11,0-18.7,8.1-18.7,21.1c0,13,9.4,20.6,19.1,20.6
		c5.5,0,8.8-2.2,11.3-5h0.3v4.7c0,5.9-3.1,9-9.6,9c-5.3,0-7.8-2.1-8.7-4.8l0,0h-11.4c1.2,8.4,8.4,13.5,20.2,13.5
		c6.4,0,12-1.5,15.6-4.9c3.2-2.9,5.1-7.1,5.1-13.1V37.2h-11V41.8z M417.4,56.9C417.4,56.9,417.4,56.9,417.4,56.9
		c0,6.4-3,11.7-10.2,11.7c-5.9,0-9.8-4.4-9.8-11.6c0-7.2,3.9-11.8,9.7-11.8C414.1,45.2,417.4,50.6,417.4,56.9
		C417.4,56.9,417.4,56.9,417.4,56.9L417.4,56.9z">
  </path>
  <polygon class="st2" points="417.4,56.9 417.4,56.9 417.4,56.9 	">
  </polygon>
  <path class="st2" d="M457.4,36.1c-5.9,0-9.9,2.4-12.8,7.1h-0.3l0,0v-5.9h-11.2v43.1h11.5V55.9c0-5.9,3.7-9.9,8.8-9.9
		c4.8,0,7.5,3.3,7.5,7.9v26.5h11.5V52.2C472.3,42.8,466.3,36.1,457.4,36.1z">
  </path>
  <path class="st2" d="M344.8,44.1L344.8,44.1L344.8,44.1L344.8,44.1c-8.9-1.9-13.2-3.4-13.2-8.2c0-4.3,4.3-7.1,10.9-7.1
		c6,0,10.6,2.8,11.5,8.4h11.8c-1.2-11.7-9.9-18.1-23.2-18.1c-13.3,0-23.1,6.1-23.1,18c0,12.5,9.9,15.4,20.7,17.8
		c9.2,2.1,14.9,3.3,14.9,9.2c0,5.5-5.5,7.7-11.7,7.7c-8.6,0-12.7-2.9-13.6-10.1h-12c0.4,12.7,9.7,19.9,26,19.9
		c13.6,0,23.4-6.8,23.4-19C367.3,49.8,357.2,46.8,344.8,44.1z">
  </path>
  <path class="st2" d="M476.9,36.1c-2.5,0-4.6,2-4.6,4.6c0,2.5,2,4.5,4.6,4.5c2.5,0,4.5-2,4.6-4.5C481.5,38.2,479.4,36.1,476.9,36.1z
		 M476.9,44.5c-2.1,0-3.8-1.7-3.9-3.8c0-2.1,1.7-3.8,3.8-3.8c2.1,0,3.8,1.7,3.8,3.8C480.8,42.8,479.1,44.5,476.9,44.5z">
  </path>
  <path class="st2" d="M478.8,39.8c0-0.4-0.2-0.9-0.5-1.1c-0.4-0.3-0.8-0.3-1.4-0.3h-1.5l0,0V43h0.9v-1.7h0.8l0.9,1.7h1l-1-1.9
		C478.2,41,478.8,40.7,478.8,39.8z M477.1,40.5c-0.2,0-0.3,0-0.6,0h-0.3v-1.5h0.4c0.5,0,0.7,0,0.9,0.1c0.4,0.2,0.4,0.5,0.4,0.6
		C477.9,40.5,477.3,40.5,477.1,40.5z">
  </path>
 </g>
</svg>