<svg version="1.1" id="Layer_1" xmlns:x="ns_extend;" xmlns:i="ns_ai;" xmlns:graph="ns_graphs;" xmlns="http://www.w3.org/2000/svg" xmlns:xlink="http://www.w3.org/1999/xlink" x="0px" y="0px" viewBox="0 0 413.4 104" style="enable-background:new 0 0 413.4 104;" xml:space="preserve">
 <style type="text/css">
  .st0{fill:#FFFFFF;}
	.st1{fill:#93C73F;}
	.st2{fill:#58C8E5;}
	.st3{fill:#EAE617;}
	.st4{fill:#4FBFAE;}
	.st5{fill:#0076BA;}
	.st6{fill:#78BB43;}
	.st7{fill:#0B9DD9;}
 </style>
 <metadata>
  <sfw xmlns="ns_sfw;">
   <slices>
   </slices>
   <sliceSourceBounds bottomLeftOrigin="true" height="104" width="413.4" x="-111.3" y="-26.4">
   </sliceSourceBounds>
  </sfw>
 </metadata>
 <g>
  <g>
   <g>
    <g>
     <path class="st0" d="M56.9,43.1v37.8h-9.2V45.5c0-3.5-0.7-5.9-2-7.5s-3.1-2.4-5.7-2.4c-2,0-4.2,0.7-6.4,1.5
					c-2.2,1.3-4.4,2.9-6.6,5.1v38.5h-8.8V28.8h8.6v7c3.1-2.9,5.9-4.8,8.6-5.9c2.4-1.3,5.1-2,7.9-2c4.4,0,7.9,1.3,10.3,3.7
					C56.1,34.5,56.9,38.3,56.9,43.1">
     </path>
     <path class="st0" d="M87.3,9v7.5c-2.2,0-3.1-0.2-3.7-0.2c-0.7,0-1.5,0-2,0c-2.2,0-3.7,0.7-4.4,1.5c-0.9,0.9-1.3,2.4-1.3,5.1v6.4
					h11.4v7.9H75.6v44.4h-9.2V36.3v-7.7v-7.3c0-4.4,1.3-7.5,3.5-9.7s5.7-3.5,9.7-3.5c0.9,0,2,0,3.1,0.2C83.8,8.4,85.1,8.6,87.3,9">
     </path>
     <path class="st0" d="M110.6,27.9c7,0,12.1,2.2,15.8,7c3.7,4.8,5.7,11,5.7,19.6s-2,14.7-5.7,19.6c-3.7,4.8-9.2,7-15.8,7
					c-7,0-12.1-2.2-15.8-7S89,63.1,89,54.5c0-8.1,2-14.7,5.7-19.6C98.5,30.1,104,27.9,110.6,27.9 M110.6,35.8c-4.2,0-7,1.5-9.2,4.8
					c-2,3.1-3.1,7.5-3.1,13.9c0,5.9,0.9,10.8,3.1,13.9c2,3.1,5.1,4.8,9.2,4.8c3.7,0,7-1.5,9.2-4.8c2.2-3.1,3.1-7.9,3.1-13.9
					s-0.9-10.8-3.1-13.9C117.6,37.4,114.8,35.8,110.6,35.8">
     </path>
     <rect x="191.9" y="8.4" class="st0" width="9.2" height="72.6">
     </rect>
     <rect y="8.4" class="st0" width="9.2" height="72.6">
     </rect>
     <path class="st0" d="M149.7,80.9v-5.7c1.5,1.5,3.1,2.9,5.1,3.7c2.2,1.3,4.8,1.5,7.5,1.5c6.4,0,11.4-2.2,15.2-7
					c3.5-4.8,5.3-11.4,5.3-19.6c0-7.9-2-14.5-5.7-18.9c-3.7-4.8-8.8-7-14.7-7c-2.4,0-4.8,0.7-7,1.5s-4.2,2.4-5.3,4.8V8.6h-9.2v72.6
					h8.8v-0.2H149.7z M170.2,68.2c-2.2,3.1-5.1,4.8-9.2,4.8c-2.2,0-4.2-0.7-5.9-1.5c-2-0.9-3.5-2.4-5.3-4.8V41.8
					c1.5-2.2,3.5-3.5,5.1-4.8c2-0.9,3.7-1.5,5.7-1.5c4.2,0,7.3,1.5,9.5,4.8c2.2,3.1,3.1,7.9,3.1,14.3
					C173.5,60.7,172.6,65.1,170.2,68.2">
     </path>
     <path class="st0" d="M231.5,27.9c7,0,12.1,2.2,15.8,7s5.7,11,5.7,19.6s-2,14.7-5.7,19.6c-3.7,4.8-9.2,7-15.8,7
					c-7,0-12.1-2.2-15.8-7s-5.7-11-5.7-19.6c0-8.1,2-14.7,5.7-19.6C219.4,30.1,224.5,27.9,231.5,27.9 M231.5,35.8
					c-4.2,0-7,1.5-9.2,4.8c-2.2,3.1-3.1,7.5-3.1,13.9c0,5.9,0.9,10.8,3.1,13.9s5.1,4.8,9.2,4.8c3.7,0,7-1.5,9.2-4.8
					c2.2-3.1,3.1-7.9,3.1-13.9s-0.9-10.8-3.1-13.9C238.3,37.4,235.7,35.8,231.5,35.8">
     </path>
     <polygon class="st0" points="256.2,27.9 266.5,27.9 276.4,45.3 286.1,27.9 296.2,27.9 281.4,52.8 298.1,80.5 287.4,80.5 
					275.9,60 264.9,80.5 254.8,80.5 271.3,52.8 				">
     </polygon>
     <path class="st1" d="M328.7,45.5l-15.8-11.7c-0.2-0.2-0.7-0.7-0.7-1.3c0-0.2,0.2-0.9,0.7-1.3l15.8-11.7c1.3-0.9,3.1-0.9,4.4,0
					l15.4,11.7c0.2,0.2,0.7,0.7,0.7,1.3c0,0.2-0.2,0.9-0.7,1.3l-15.4,11.7C331.8,46.4,329.6,46.4,328.7,45.5">
     </path>
     <path class="st2" d="M328.7,83.3l-15.8-11.7c-0.2-0.2-0.7-0.7-0.7-1.3c0-0.2,0.2-0.9,0.7-1.3l15.8-11.7c1.3-0.9,3.1-0.9,4.4,0
					L348.5,69c0.2,0.2,0.7,0.7,0.7,1.3c0,0.2-0.2,0.9-0.7,1.3l-15.4,11.7C331.8,84.4,329.6,84.4,328.7,83.3">
     </path>
     <path class="st3" d="M354,26.6L338.6,15c-0.7-0.2-0.7-0.7-0.7-1.3c0-0.2,0.2-0.9,0.7-1.3L354,0.7c1.3-0.9,3.1-0.9,4.4,0
					l15.8,11.7c0.2,0.2,0.7,0.7,0.7,1.3c0,0.2-0.2,0.9-0.7,1.3l-15.8,11.7C357.1,27.5,354.9,27.5,354,26.6">
     </path>
     <path class="st4" d="M354,64.9l-15.4-11.7c-0.7-0.2-0.7-0.7-0.7-1.3c0-0.2,0.2-0.9,0.7-1.3L354,38.9c1.3-0.9,3.1-0.9,4.4,0
					l15.8,11.7c0.2,0.2,0.7,0.7,0.7,1.3c0,0.2-0.2,0.9-0.7,1.3l-15.8,11.7C357.1,65.3,354.9,65.3,354,64.9">
     </path>
     <path class="st5" d="M354,103.3l-15.4-11.7c-0.7-0.2-0.7-0.7-0.7-1.3c0-0.2,0.2-0.9,0.7-1.3L354,77.4c1.3-0.9,3.1-0.9,4.4,0
					L374.2,89c0.2,0.2,0.7,0.7,0.7,1.3c0,0.2-0.2,0.9-0.7,1.3l-15.8,11.7C357.1,104.2,354.9,104.2,354,103.3">
     </path>
     <path class="st6" d="M379.3,45.5l-15.8-11.7c-0.2-0.2-0.7-0.7-0.7-1.3c0-0.2,0.2-0.9,0.7-1.3l15.8-11.7c1.3-0.9,3.1-0.9,4.4,0
					l15.4,11.7c0.2,0.2,0.7,0.7,0.7,1.3c0,0.2-0.2,0.9-0.7,1.3l-15.4,11.7C382.4,46.4,380.4,46.4,379.3,45.5">
     </path>
     <path class="st7" d="M379.3,83.3l-15.8-11.7c-0.2-0.2-0.7-0.7-0.7-1.3c0-0.2,0.2-0.9,0.7-1.3l15.8-11.7c1.3-0.9,3.1-0.9,4.4,0
					L399.1,69c0.2,0.2,0.7,0.7,0.7,1.3c0,0.2-0.2,0.9-0.7,1.3l-15.4,11.7C382.4,84.4,380.4,84.4,379.3,83.3">
     </path>
     <path class="st0" d="M413.4,51.9c0,3.7-2.9,6.6-6.6,6.6c-3.7,0-6.6-2.9-6.6-6.6c0-3.7,2.9-6.6,6.6-6.6
					C410.5,44.9,413.4,48.2,413.4,51.9 M401,51.9c0,3.1,2.4,5.7,5.7,5.7c3.3,0,5.7-2.4,5.7-5.7c0-3.3-2.4-5.7-5.7-5.7
					C403.2,46,401,48.4,401,51.9 M405,55.6h-0.9v-7.9h2.9c2,0,2.4,0.7,2.4,2.2c0,1.3-0.9,2-2,2.2l2.2,3.5h-1.3l-2.2-3.5h-1.5v3.5
					H405z M406.3,51.2c1.3,0,2.2,0,2.2-1.3c0-0.9-0.9-1.3-2-1.3h-2v2.9h1.5v-0.2H406.3z">
     </path>
    </g>
   </g>
  </g>
 </g>
</svg>