<svg version="1.1" id="Layer_1" xmlns:x="ns_extend;" xmlns:i="ns_ai;" xmlns:graph="ns_graphs;" xmlns="http://www.w3.org/2000/svg" xmlns:xlink="http://www.w3.org/1999/xlink" x="0px" y="0px" viewBox="0 0 830.7 111.3" style="enable-background:new 0 0 830.7 111.3;" xml:space="preserve">
 <style type="text/css">
  .st0{fill:#FFFFFF;}
 </style>
 <metadata>
  <sfw xmlns="ns_sfw;">
   <slices>
   </slices>
   <sliceSourceBounds bottomLeftOrigin="true" height="111.3" width="830.7" x="0" y="0">
   </sliceSourceBounds>
  </sfw>
 </metadata>
 <g>
  <path class="st0" d="M524.1,35.5v64h18.1v-64H524.1z M533.2,9.7c7.2,0,10.7,4.8,10.7,10.8S540.4,31,533.2,31s-10.8-4.6-10.8-10.4
		S526,9.7,533.2,9.7z">
  </path>
  <path class="st0" d="M787.6,99.4V47.5l-3.7-12.1h17.4l3.7,10.9c3.1-7.8,9.4-12.2,18.5-12.2c2.7,0,5.3,0.5,7.2,1.2v17.5
		c-2.1-0.6-4.4-1-7-1c-12.6,0-18.1,8.8-18.1,20.6v27L787.6,99.4L787.6,99.4z">
  </path>
  <polygon class="st0" points="654.8,99.4 632.6,99.4 613.2,35.5 633.2,35.5 645.4,82.2 656.5,45.9 653.3,35.5 672.5,35.5 
		685.5,82.3 697.4,35.5 716.3,35.5 696.7,99.4 674.5,99.4 664.9,68.9 	">
  </polygon>
  <polygon class="st0" points="464.1,99.4 434.3,12.2 455.4,12.2 475.4,79.3 496.5,12.2 516.4,12.2 486.4,99.4 	">
  </polygon>
  <path class="st0" d="M779,66.5c0-19-11.7-32.3-29.7-32.3c-20.7,0-33.1,15.4-33.1,33.6s12.2,32.8,32.2,32.8
		c13.5,0,22.1-4.5,28.2-12.2l-11.8-9.9c-3.6,4.6-8.5,7.5-15,7.5c-8.9,0-14-5.2-15.2-13.2h44.3C778.8,70.6,779,68.6,779,66.5
		L779,66.5z M760.7,61.3h-26.2c1.2-8.1,5.3-12.9,14.2-12.9C756.7,48.4,760.6,54.4,760.7,61.3L760.7,61.3z">
  </path>
  <path class="st0" d="M612.7,66.5c0-19-11.6-32.3-29.7-32.3c-20.5,0-32.8,15.4-32.8,33.6s12,32.8,32.2,32.8c13.5,0,22-4.5,28.2-12.2
		l-11.8-9.9c-3.7,4.6-8.5,7.5-15,7.5c-8.9,0-14.2-5.2-15.3-13.2h44.1C612.7,70.6,612.7,68.6,612.7,66.5L612.7,66.5z M594.5,61.3
		h-26.2c1.2-8.1,5.4-12.9,14.3-12.9C590.6,48.4,594.4,54.4,594.5,61.3z">
  </path>
  <g>
   <polygon class="st0" points="158.4,99.3 158.4,28.6 129,28.6 129,12.1 206.5,12.1 206.5,28.6 177.3,28.6 177.3,99.3 		">
   </polygon>
   <path class="st0" d="M255.6,66.3c0-19-12.1-32.3-30.1-32.3c-20.6,0-32.8,15.4-32.8,33.6s12.1,32.8,32.3,32.8
			c13.5,0,22.1-4.5,28.1-12.2l-11.8-9.9c-3.5,4.6-8.5,7.5-15.2,7.5c-8.8,0-13.9-5.2-14.9-13.2h44.1
			C255.4,70.5,255.6,68.5,255.6,66.3L255.6,66.3z M211.1,61.2c1-8.1,5.3-12.9,14-12.9c8.2,0,12,5.9,12.2,12.9H211.1z">
   </path>
   <path class="st0" d="M328.9,87.1V35.3H313v7.1h-0.1c-4.5-4.9-10.9-8.4-19.6-8.4c-18.4,0-31,14.3-31,33.4s12.6,32.9,31,32.9
			c8.6,0,15-2.8,19.6-7.7h0.1l2.1,6.6h17.8L328.9,87.1L328.9,87.1z M296.8,85.5c-10.3,0-15.7-8.2-15.7-18.4c0-9.1,5.3-18,15.7-18
			s15.8,9,15.8,18C312.6,77.3,308.1,85.5,296.8,85.5z">
   </path>
   <path class="st0" d="M372.2,50.5c-7.1,0-10.9,5.5-10.9,13.6v35.1h-18.1V47.4l-3.9-12.1H357l3.1,9.9c3-6.3,8.9-11.2,18.5-11.2
			c7.7,0,13.1,3.7,16.2,9.8c4.2-5.7,10.8-9.8,20.5-9.8c15.2,0,20.8,11.3,20.8,27v38.2H418V63.4c0-8.6-1.9-12.9-8.5-12.9
			s-10.8,5.5-10.8,13.6v35.3h-18v-36C380.7,54.8,378.7,50.5,372.2,50.5L372.2,50.5z">
   </path>
  </g>
 </g>
 <path class="st0" d="M94.9,0H16.5C7.4,0,0,7.4,0,16.5v78.4c0,9.1,7.4,16.5,16.5,16.5h78.4c9.1,0,16.5-7.4,16.5-16.5V16.5
	C111.3,7.4,104,0,94.9,0z M55.7,100.4c-24.7,0-44.8-20-44.8-44.8s20-44.8,44.8-44.8s44.8,20,44.8,44.8S80.4,100.4,55.7,100.4
	L55.7,100.4z">
 </path>
 <polygon class="st0" points="93.6,55.7 64.7,39.9 67.9,49.8 43.5,49.8 46.6,39.9 17.8,55.7 46.6,71.5 43.5,61.5 67.9,61.5 
	64.7,71.5 ">
 </polygon>
</svg>